<?xml version="1.0" encoding="iso-8859-1"?>
<!-- Generator: Adobe Illustrator 27.7.0, SVG Export Plug-In . SVG Version: 6.00 Build 0)  -->
<svg version="1.2" baseProfile="tiny" id="Layer_4" xmlns="http://www.w3.org/2000/svg" xmlns:xlink="http://www.w3.org/1999/xlink"
	 x="0px" y="0px" viewBox="0 0 1024 1024" overflow="visible" xml:space="preserve">
<circle id="Outer__x3C_Ellipse_x3E__00000170256138739574569840000013918434422196734104_" fill="#414042" stroke="#FFFFFF" stroke-miterlimit="10" cx="512" cy="512" r="512"/>
<path fill="#00AEEF" d="M874.056,150.002c-69.866,4.277-221.362,14.268-221.362,14.268s25.822,93.038,35.987,171.049
	C738.108,385.532,762,448.899,762,512c0,86.468-45.173,167.144-119,212.954c0-20.17,0-212.954,0-212.954s-0.73-495.81,0-495.08
	C595.929,1.978,532.453,0,512,0C258.612,0,0,197.489,0,512c-1.417,105.317,34.928,246.209,149.944,361.998
	c69.866-4.277,221.362-14.269,221.362-14.269s-25.822-93.038-35.987-171.049C285.892,638.468,262,575.101,262,512
	c0-86.468,45.173-167.144,119-212.954c0,20.17,0,212.954,0,212.954s0.73,495.81,0,495.08c47.071,14.942,110.547,16.92,131,16.92
	c253.388,0,512-197.489,512-512C1025.417,406.683,989.072,265.791,874.056,150.002z"/>
<path fill="#414042" d="M512,0C229.23,0,0,229.23,0,512s229.23,512,512,512s512-229.23,512-512S794.77,0,512,0z M512,987
	C249.665,987,37,774.335,37,512S249.665,37,512,37s475,212.665,475,475S774.335,987,512,987z"/>
<g>
</g>
<g>
</g>
<g>
</g>
<g>
</g>
<g>
</g>
<g>
</g>
</svg>
