<?xml version="1.0" encoding="UTF-8"?>
<svg xmlns="http://www.w3.org/2000/svg" baseProfile="tiny" version="1.2" viewBox="0 0 1024 1024">
  <!-- Generator: Adobe Illustrator 29.0.0, SVG Export Plug-In . SVG Version: 2.1.0 Build 186)  -->
  <g id="Backup" display="none">
    <path d="M512,514.108v411.244c228.288,0,413.352-180.159,413.353-408.448,0-174.464-108.086-328.642-260.947-389.308" fill="none" stroke="#000" stroke-miterlimit="10" stroke-width="100"/>
  </g>
  <g id="Design">
    <path d="M341.151,943.626c-85.307-33.854-158.088-91.786-210.476-167.531-53.663-77.59-82.028-168.634-82.028-263.292,0-62.534,12.261-123.189,36.443-180.282,23.343-55.114,56.757-104.585,99.313-147.038,42.532-42.429,92.083-75.741,147.277-99.01,57.129-24.085,117.797-36.297,180.319-36.297v924.464h-50V153.597c-176.779,24.388-313.353,176.18-313.353,359.207,0,149.949,90.042,282.573,229.392,337.875l41.5,65.821-78.388,27.126Z" fill="#7f7f7f"/>
    <path d="M359.135,896.783" fill="#7cc242"/>
    <path d="M682.849,81.19c85.307,33.854,158.088,91.786,210.476,167.531,53.663,77.59,82.028,168.634,82.028,263.292,0,62.534-12.261,123.189-36.443,180.282-23.343,55.114-56.757,104.585-99.313,147.038-42.532,42.429-92.083,75.741-147.277,99.01-57.129,24.085-117.797,36.297-180.319,36.297V50.176h50v821.044c176.779-24.388,313.353-176.18,313.353-359.207,0-149.949-90.042-282.573-229.392-337.875l-41.5-65.821,78.388-27.126Z" fill="#7cc242"/>
    <path d="M512,4C231.439,4,4,231.439,4,512s227.439,508,508,508,508-227.439,508-508S792.561,4,512,4ZM512,973.496c-254.877,0-461.496-206.619-461.496-461.496S257.123,50.504,512,50.504s461.496,206.619,461.496,461.496-206.619,461.496-461.496,461.496Z" fill="#414042"/>
  </g>
  <g id="Guides__x2B__Templates">
    <circle id="Templatec_x5F_circle-outside" cx="512" cy="512" r="413.353" fill="none" stroke="#f1e912" stroke-miterlimit="10"/>
  </g>
  <metadata>
    <sfw xmlns="http://ns.adobe.com/SaveForWeb/1.0/">
      <slices/>
      <sliceSourceBounds x="-7679.5" y="-8703.5" width="16383" height="16383" bottomLeftOrigin="true"/>
    </sfw>
  </metadata>
</svg>