<?xml version="1.0" encoding="UTF-8"?>
<svg id="Design" xmlns="http://www.w3.org/2000/svg" baseProfile="tiny" version="1.2" viewBox="0 0 1024 1024">
  <!-- Generator: Adobe Illustrator 29.0.0, SVG Export Plug-In . SVG Version: 2.1.0 Build 186)  -->
  <path d="M893.469,249.452c-52.388-75.745-125.169-133.677-210.476-167.531l-78.388,27.126,41.5,65.821c139.35,55.303,229.392,187.927,229.392,337.875,0,183.026-136.574,334.818-313.353,359.207l-.144-823.303h-50c-62.522,0-123.19,12.212-180.319,36.297-55.194,23.269-104.745,56.581-147.277,99.01-42.556,42.453-75.97,91.923-99.313,147.038-24.182,57.093-36.443,117.749-36.443,180.282,0,94.658,28.365,185.702,82.028,263.292,52.388,75.745,125.169,133.677,210.476,167.531l78.388-27.126-41.5-65.821c-139.35-55.303-229.392-187.927-229.392-337.875,0-183.026,136.574-334.818,313.353-359.207l.144,823.303h50c62.522,0,123.19-12.212,180.319-36.297,55.194-23.269,104.745-56.581,147.277-99.01,42.556-42.453,75.97-91.923,99.313-147.038,24.182-57.093,36.443-117.749,36.443-180.282,0-94.658-28.365-185.702-82.028-263.292h0Z" fill="#7f7f7f"/>
  <path d="M512,4C231.439,4,4,231.439,4,512s227.439,508,508,508,508-227.439,508-508S792.561,4,512,4ZM512,973.496c-254.877,0-461.496-206.619-461.496-461.496S257.123,50.504,512,50.504s461.496,206.619,461.496,461.496-206.619,461.496-461.496,461.496h0Z" fill="#414042"/>
  <metadata>
    <sfw xmlns="http://ns.adobe.com/SaveForWeb/1.0/">
      <slices/>
      <sliceSourceBounds x="4" y="4" width="1016" height="1016" bottomLeftOrigin="true"/>
    </sfw>
  </metadata>
</svg>