<?xml version="1.0" encoding="UTF-8"?>
<svg id="Layer_1" xmlns="http://www.w3.org/2000/svg" baseProfile="tiny" version="1.2" viewBox="0 0 1024 1024">
  <!-- Generator: Adobe Illustrator 29.0.0, SVG Export Plug-In . SVG Version: 2.1.0 Build 186)  -->
  <path d="M798.686,752.102c4.809-.191,25.389,1.31,28.155,4.312,2.42,2.627-3.375,3.567-5.162,4.027-11.703,3.012-25.563,3.224-37.64,3.735-24.618,1.04-52.491,1.385-76.936-1.803-9.737-1.27-28.606-4.942-5.653-8.954,9.676-1.691,20.199-2.284,30.002-2.466.796,2.674,4.262,8.049,7.211,8.592,9.093,1.676,22.074-1.622,31.558.637,7.071-1.615,16.677.698,23.326-1.438,1.971-.633,5.136-4.558,5.139-6.641ZM478.901,810.138c-.747,1.192-8.109,6.032-9.83,6.276-19.863-.967-41.198,1.456-60.888.074-7.315-.513-8.399-4.964-10.032-10.943-11.37.376-23.367.705-34.499,3.141-12.755,2.791-11.4,5.315.475,7.609,26.899,5.198,60.298,3.886,87.73,3.018,15.131-.479,31.478-.424,46.303-3.692,1.913-.422,10.707-2.097,8.915-4.93-1.718-2.717-24.841-5.504-29.048-5.146.575.964,1.484,3.617.873,4.593ZM996.485,801.117c-20.716-3.753-51.128-3.38-72.231-1.887-3.291.233-24.488,2.414-25.575,4.027-1.644,2.44,5.411,3.612,6.765,3.852,22.768,4.04,59.389,3.607,82.585,1.305,5.473-.543,26.002-4.118,8.456-7.297ZM103.866,777.329c-.235.278-2.77.362-3.513.679-.555.237-.574.957-.854,1.095-2.628,1.289-10.767.448-14.271.559-11.422.362-27.126.998-38.339-.689-4.55-.685-4.721-4.48-5.024-8.482-8.014.72-18.095.855-25.744,3.276-12.205,3.862,6.219,6.95,10.036,7.548,26.467,4.147,79.62,4.453,105.471-1.799,1.799-.435,8.731-1.868,7.094-4.453-1.81-2.858-31.129-5.034-35.944-4.572.448,1.333,1.848,5.936,1.088,6.838ZM805.007,380.875c-2.611-2.9-5.231-6.229-8.62-8.045,3.832,5.014,3.971,4.41,8.62,8.045Z" fill="#b1d6ef"/>
  <path d="M439.814,798.075v-.575c.373.191.373.383,0,.575ZM442.272,801.971l-.689.203,1.38,4.688.689-.203-1.38-4.688ZM443.554,807.272l1.712,5.166c.244-1.039-.225-1.796-.469-2.684-.165-.599-.538-2.516-1.244-2.482ZM440.681,799.802c-.413.807.364,1.533.563,1.143.413-.807-.364-1.533-.563-1.143ZM336.663,545.227c-1.119-1.342-1.704-2.185-1.975-2.708h0c-.147.315-.321.53-.514.684-.002.002-.004.003-.006.005-.047.037-.095.071-.144.102-.002.001-.004.003-.007.004-.377.232-.815.297-1.272.448-.014.005-.028.009-.043.014-.052.018-.104.037-.156.058-.021.008-.042.016-.063.025-.05.021-.099.044-.149.069-.021.01-.041.019-.062.03-.069.036-.139.075-.208.12-11.596,7.495-22.36,14.355-35.054,20.113-27.888,12.649-58.981,20.442-89.646,22.412-4.583.294-17.789-.185-20.852.697-1.526.44-11.13,7.603-13.815,9.171-12.676,7.399-24.039,11.934-36.589,15.992l-32.755,6.896c-2.292,1.406-2.675,4.62-3.916,6.715-15.719,26.539-32.731,52.645-51.841,76.882-3.354,4.253-7.019,9.425-11.419,12.459,2,4.227,2.242,11.334,3.917,15.187.38.873.622,1.596,1.771,1.39v-16.952c0-.541,2.038-1.843,2.87-1.434-1.041,5.969-.399,12.075-.548,18.122-.334,13.575-1.583,27.692.042,41.285.14,1.17.599,3.571,1.649,4.097l33.911,1.424c-1.258-4.601-2.152-9.689-4.005-14.091-.466-1.108-2.164-3.058-2.241-3.538-.186-1.168,2.002-1.659,1.648-3.052-2.807-.06-5.336-1.039-8.225-.442-1.758.363-1.458,1.472-2.508,2.035-1.414.757-3.733,1.667-5.355,1.847,2.649-3.139,5.088-6.665,9.77-5.743-2.159-11.742-4.639-23.637-3.768-35.657,19.159-23.803,40.876-45.385,60.684-68.613,33.201-11.379,67.06-17.143,101.979-20.423,3.99-.375,8.627-.178,12.581-.649,2.3-.274,2.357-.761,3.792-2.229,1.52-1.555,2.204-3.216,3.842-4.491l14.215-1.195c1.617.348.314,3.553-.242,4.536-.23,1.86.547.965,1.63.773,15.049-2.674,30.227-9.414,43.767-16.288,14.673-7.449,30.505-16.481,44.092-25.729,3.766-2.563,7.897-6.424,11.435-8.679,2.359-1.504,4.098.297.51-4.102-6.946-8.517-21.937-18.088-26.729-27.576ZM950.439,250.606c-.015-.061-.03-.121-.044-.177l.044.177ZM777.133,387.774c6.496,6.738,14.331,14.91,22.127,20.11.614.409,2.099.815,2.873,1.149-.136-.814.338-1.867-.584-2.57-4.643-3.565-9.327-7.14-13.79-10.926-3.184-2.702-6.324-6.297-9.488-8.9-.969-.797-2.522-2.598-3.146-.59.581,2.073.76,5.777,1.155,8.042l.853-6.315ZM744.668,342.374c1.529,4.577,13.826,22.546,17.337,27.199,3.08,4.083,7.316,7.579,10.247,11.303.693-2.67-1.757-3.676-2.558-5.224-.329-.635-.213-1.496-.315-1.672-1.373-1.302-1.207-1.095-2.512-2.667-7.648-9.214-15.095-19.662-19.469-31.082-1.982-1.56-2.058.027-2.729.419.093.513-.137,1.313,0,1.724ZM950.439,250.606c.167.679.36,1.59.53,2.121l-.53-2.121ZM788.342,462.476c-.007-.043-.082-.105-.175-.175l.175.175ZM788.167,462.302l-.4-.4c.016.128.237.277.4.4ZM440.388,798.65v.575c.373-.192.373-.383,0-.575ZM713.57,556.969c.046-.181-.401-3.547-.521-3.69-.09-.107-1.271-.004-1.712-.007-.188-.001-.39-.021-.575,0-.177.577-.68.488-1.149.575-2.015.372-6.912,2.313-7.8,2.286-1.915-.057-1.588-2.632-.426-3.474.673-.487,6.882-2.45,8.225-2.834,2.937-.713,1.588-3.249,1.105-5.415-1.498-6.716-4.156-13.239-5.995-19.865-3.199-11.526-4.791-22.269-10.626-32.76-5.512-9.912-11.359-16.524-19.719-23.961-.473-.421-1.724-.35-2.117-.749-1.043-1.057-1.439-4.253-4.597-3.448,1.195,1.182,2.989,2.87,4.023,4.023.862.961,2.057,2.941,2.873,4.023,9.814,13.003,18.429,30.834,9.656,46.721-5.617,10.172-20.563,15.04-30.914,18.796.172,1.052,2.947.617,3.726.562,5.249-.373,10.505-2.007,15.808-1.712,1.323.962-8.297,2.573-9.074,2.701-42.746,7.01-76.791-9.211-112.13-30.626-21.727-13.166-42.058-28.606-64.395-40.767-1.533-1.1,1.398-3.179,2.332-3.959,4.748-3.966,14.583-7.581,20.64-8.955,3.559-.807,7.357-.88,10.669-1.711.963-.242,1.678.577,1.395-1.159-10.068.752-20.472.165-30.454,1.721-3.959.617-8.344,1.842-12.189,3.039-3.873,1.205-7.542,3.117-11.368,4.432-.583-4.046-.859-8.269-.601-12.379.121-1.937.952-3.836,1.172-5.436.087-.634.052-1.632,0-2.299-.038-.482-.058-.923-.575-1.149-4.649,4.704-6.269,10.195-9.46,15.537-.537.899-.679,1.764-2.034,1.703,3.66,7.978,6.385,17.433,10.231,25.111,1.639,3.272,4.908,7.227,6.657,10.582,2.288,4.388,2.092,8.309,7.286,11.103,4.303,2.315,21.737,4.476,28.244,6.236,60.336,16.314,113.306,63.71,178.019,55.578,10.94-1.375,13.432-2.702,23.158-7.011.963-.426,2.96-.384,3.21-1.36ZM975.679,322.261c.075,4.367-3.911,8.958-7.197,11.479-6.611,5.071-15.535,4.032-23.259,2.887-14.768-2.189-30.944-6.37-45.972-9.194-.114-.021-.229-.052-.344-.075-3.297-.679-6.711-2.195-10-2.798-.69-.127-1.599.121-2.299,0-2.987-.516-6.982-1.625-9.769-1.724-.456-.016-2.334.785-4.264.523-1.474-.2-8.631-3.164-8.95-2.819-.8.864,5.712,8.921,6.888,10.062.231.717-.143,1.152-.849.849-.497-.213-3.624-3.541-4.333-4.29-7.66-8.09-19.152-20.232-24.051-29.966-1.609-3.197-2.639-8.004-4.168-10.773-1.598-2.895-9.392-9.83-12.355-14.08-.695-.997-3.409-6.142-3.726-6.327-.585-.342-1.483.014-1.975.477-6.701,6.614-13.221,13.411-19.795,20.141.02.573-.03,1.152,0,1.724.586,11.267,13.687,22.24,25.224,20.176.378,1.393.581,2.767.663,4.222.806,14.271-.124,30.234-.602,44.561-.088,2.623-.575,6.191-.575,8.332v12.642c0,.203-.551.957-.597,1.702-.231,3.796.046,8.101-1.127,11.802.603.405,1.091.747,1.724,1.149.733-11.974,2.681-23.826,4.597-35.629,2.331-14.358,5.545-28.492,8.065-42.802.143-.81-.546-1.691.836-1.443l10.681,15.182c.928,9.851,1.782,19.237,4.545,28.785,2.093,7.234,4.846,15.286,11.492,19.528l-22.976,24.423c.052.035-.306.717.349,1.2.355.262,4.721,1.548,5.275,1.572,1.428.062,1.54-.452,2.442-1.32,4.684-4.509,11.372-16.199,15.842-22.081,5.442-7.16,19.776-22.426,22.902-29.392.221-.492.729-1.479.017-1.707-5.54,1.603-12.007,4.588-17.796,4.622-.661.004-2.167.383-2.018-.584l36.77-14.381c-1.367-1.888-5.09-.861-6.892-2.291-.381.007-.769.014-1.149,0-1.341-.048-3.299-.556-4.023-1.724-2.596-4.193,3.177-3.95,5.747-4.023,1.371-.039,3.329-.183,4.597,0,.589-1.056,2.066-.528,2.988-.413,7.16.895,14.069,3.173,21.145,4.442.112,1.197-1.835.282-2.296.569-.052.032.223,1.009-.374,1.16-.523.132-4.016.504-4.798.564,6.838,1.714,13.801-.707,20.688.575,8.605,1.542,16.515,5.767,25.274,2.575,5.236-1.908,12.165-8.938,13.089-14.493.752-4.518.26-3.461-3.309-3.598ZM919.363,244.682c.207,1.165,4.672,7.459,3.448,9.194,3.54.491,3.204-.472,2.813-3.677-.647-5.289-2.602-8.181-4.537-12.414-.286-.627.232-3.797-1.711-3.742.659.881.775,2.439.585,3.464.093.696.115,1.157.101,1.744.018.698-.006,1.438-.124,2.557-.179.846-.716,2.077-.575,2.873ZM855.682,288.749c3.692-7.207,3.102-14.48,3.342-22.23-1.664-.342-1.048.822-1.311,1.82-2.304,8.744-6.657,19.802-17.647,17.719.812,2.388,1.053,5.679,2.868,7.47,4.903,4.838,10.364-.126,12.748-4.779ZM889.194,348.695v.575c.373-.192.373-.383,0-.575ZM808.99,251.33c1.855,1.338,3.462,3.107,5.206,4.563.46.384,1.162,1.516,1.735.564l-14.372-23.268v12.93c0,1.524,6.014,4.19,7.431,5.211ZM816.213,257.325v.575c.373-.192.373-.383,0-.575ZM991.195,303.297c-.107-.114-.456-.956-1.149-1.724-6.65,9.939-17.089,16.008-28.733,18.389,5.6,1.353,11.372-.512,17.24,0,6.372.556,2.064,5.543,2.876,6.318,1.582,1.51,5.473-3.347,6.304-4.323,1.607-1.888,9.356-12.622,9.246-14.313-.024-.361-4.942-3.457-5.784-4.347ZM951.544,320.537c-.029,0-.057,0-.086,0h.086ZM956.716,320.537h-1.578c.318.015.528.116,1.578,0ZM951.458,320.537h-.489c.243.015.372.003.489,0ZM1007.333,286.297c-.905-1.125-10.635-3.869-12.548-4.112-1.667-.212-7.738-.019-8.76,1.008-.989.994.373.969.815,1.193,1.43.727,3.312,1.269,4.771,2.118l16.246,1.85c.102-.843.02-1.378-.525-2.056ZM787.48,740.609v.575c.373-.192.373-.383,0-.575ZM784.888,738.882c.413-.807-.363-1.533-.563-1.143-.413.807.364,1.533.563,1.143ZM786.33,739.46v.575c.373-.192.373-.383,0-.575ZM88.412,756.705c3.001,4.143,6.25,8.267,8.873,12.671.287.482,2.942,7.79,4.341,6.284,1.125-1.211-3.597-9.572-4.693-11.104-.947-1.326-7.129-8.934-8.521-7.85ZM779.423,736.027c-1.539-.297-10.888.298-10.565,2.5.055.372,2.93,4.13,3.492,5.144,1.159,2.09,5.298,9.866,5.477,11.668.074.745-.732,2.728-.4,3.082.442.471,11.008-1.732,12.848-1.225,3.018-.965-1.72-10.109-2.842-11.943-1.118-1.828-6.349-8.906-8.01-9.226ZM774.009,756.433c0,.631.009,1.333-.575,1.739-2.341,1.626-30.162-.662-35.075-.622-1.478-.621-5.814-7.856-5.619-9.204.246-1.699,4.604-.822,3.877-2.269-.474-.943-6.2-1.451-7.332-2.732-.304-.344-.492-1.94-.962-2.765-.788-1.381-5.663-9.89-6.177-10.193-2.498-1.47-3.581,4.13-5.608,2.726-.245-.17-1.754-4.671-2.225-5.536-1.555-2.853-3.533-5.5-5.274-8.23-5.523-8.662-11.799-16.877-17.254-25.6,5.548-27.633,7.504-55.983,8.634-84.159.53-13.21.981-26.692.601-39.962-.035-1.224-.849-3.034-.56-3.917.507-1.548,7.616-2.827,9.271-3.413,4.296-1.522,4.942-4.862,5.622,3.339.23,2.775-.934,12.692-.044,13.839l32.75,14.984-12.585,37.542c.043,2.343-3.688,11.964-4.552,15.273-3.624,13.88-6.947,27.871-9.831,41.934-.062,4.247,6.731,14.099,9.211,18.072,6.333,10.144,13.385,20.547,21.164,29.589-2.075,2.232-4.34,10.288-6.801,11.533-1.409.713-4.131-3.669-5.165-2.618-.879.894,3.333,5.97,4.422,6.257,3.903,1.029,7.416-12.844,9.359-14.025,1.753-1.065,8.523.423,11.104-.895,1.298.26,9.623,17.123,9.624,19.312ZM711.625,664.174c-.773,7.189-6.074,20.724-3.872,27.437.271.826,2.355,4.793,3.582,3.603-.644-10.364.714-20.732.29-31.039ZM215.685,482.601c10.1.837,26.845-1.203,37.284-2.392,16.781-1.912,33.381-6.157,50.366-5.662.338-7.807,3.34-15.324,7.469-21.84.858-1.355,1.431-1.478,1.98-2.318,2.678-4.1,5.001-8.432,8.364-12.049-.65-.744-.522-.4-1.327.103-10.824,6.759-21.747,13.352-33.14,19.161-5.88,2.998-15.079,8.05-21.275,9.47-7.769,3.921-16.312,6.414-24.71,8.62-.331.087-.816-.085-1.149,0-2.883.737-5.67,1.671-8.62,2.299-5.551,1.18-12.278,2.781-17.814,3.448.596.964,1.556,1.077,2.573,1.161ZM788.049,741.77c1.966,3.59,4.659,7.125,7.758,9.757-1.27-3.854-4.566-7.387-7.758-9.757ZM756.654,406.749c.232.192.453.379.656.56l-1.933-1.8c.429.445.855.861,1.276,1.24ZM196.447,584.303c3.857-.169,5.695-.113,6.636-.056.286.015.566.033.835.056,32.396-2.35,56.29-7.814,86.198-20.113,12.286-5.052,22.046-9.829,33.33-16.665l.055-.055c.149-.179.493-.724,1.094-1.094.139-.086.436.086.575,0,2.58-2.436-.343-7.051.036-8.272.437-1.406,3.529.058-.052-4.668-11.486-15.158-19.321-29.344-22.329-48.902-.172-1.115-.334-7.359-.646-7.686-.208-.218-5.177-.105-6.03-.007-12.275,1.422-31.579,29.504-39.362,39.078-14.892,18.319-29.704,36.524-47.114,52.589-4.272,4.496-14.127,11.719-19.286,15.893,1.475-.151,3.085.105,6.061-.098ZM85.708,756.818c-1.267-.371-8.578-.199-8.825.783,2.002,6.777,6.42,12.978,6.932,20.361h12.068c.374-4.08-6.944-20.199-10.175-21.144ZM833.736,424.54l-33.32,41.681c-.038,1.916,1.343.387,2.014-.288,5.357-5.39,10.111-13.971,15.501-19.553.712-.738,1.416-1.863,2.589-1.715l-12.934,27.598c-1.368,1.515-3.409-2.229-6.602.846-2.563,2.469-2.298,6.149-3.279,9.36-.942,3.082-4.791,9.011-1.15,12.01,2.834,2.334,5.042-1.305,7.304-1.547-4.044,8.825-9.167,11.409-14.358,18.684-1.697,2.378-1.468,3.856.863,1.437,2.682-2.784,13.895-14.962,14.512-17.671.375-1.647.639-2.627-1.017-2.45,4.946-10.793,6.416-22.19,11.574-33.536,1.692-3.722,3.769-8.121,6.234-11.287-1.175,9.568-2.029,19.474-4.157,28.88-2.444,10.802-5.532,18.263-13.077,26.287l-19.531,31.327-1.154-.017c-1.151-1.604,1.295-5.306,2.197-6.986,3.426-6.378,8.717-13.564,13.315-19.153-1.521.168-2.493,1.56-3.431,2.603-3.393,3.77-14.868,17.65-15.482,21.87-.23,1.581.044,3.246-.056,4.834-1.912-.951-1.77-2.941-1.582-4.728.899-8.543,6.193-21.253,8.101-30.421,2.536-12.183,2.573-23.727,1.532-36.108-.024-.281-.004-.437,0-.529v-.045c1.759.17,2.649-1.156,3.741-2.294,8.329-8.684,9.273-21.361,10.051-32.76h1.149c-.327,2.571-.309,5.569-.657,8.251-.514,3.96-1.879,7.859-1.932,11.859,5.679-5.836,12.206-11.525,16.615-18.439,3.864-6.058,1.137-3.813-2.833-7.979-1.585-1.663-3.509-4.719-4.758-6.735-1.179-1.902-1.523-5.654-4.136-5.346.045-.853-.566-2.589.854-2.294,6.637,5.744,14.63,9.223,22.73,12.327.782.299,5.022,1.001,4.57,2.026ZM800.128,467.66c-1.294.872-.712,1.651,0,.563.191-.292.465-.304,0-.563Z" fill="#0a4783"/>
  <path d="M919.932,222.845c-4.552-2.099-9.564-2.767-14.361-4.022,3.292-1.094,9.414-4.62,12.642-4.597l1.718,8.62ZM453.318,791.179c-2.33.957-6.745.971-9.194,0-.814.387-4.047,3.043-4.048,3.718,0,.54,4.115,7.744,4.752,9.709.495,1.53,1.558,10.134,3.031,10.134h18.389c.213,0,.865-.76,1.441-.58-1.243-5.344-3.528-9.349-6.673-13.726-1.257-1.749-6.333-8.338-7.698-9.255ZM922.453,260.73c-.069,0-.138-.004-.207-.003l1.14.045-.933-.042ZM856.753,261.662c.794-12.596-.603-26.984-.602-39.966-.022-.278-.028-.553-.041-.829-.153-1.787-.693-3.911-.473-6.293.186-2.012,1.849-4.108.514-6.095-.084.043-.405.018-.575,0-1.591,1.664-4.378,1.959-6.042,3.44-1.604,1.427-2.716,5.321-3.161,5.753-2.409,2.334.4-5.682,1.089-6.281-1.405.785-2.544,1.316-3.953,2.26-.166.111-.375.831-.833,1.151-3.945,2.749-8.83,4.914-10.668,9.763l-.567-2.294c-1.949,2.779-3.109,4.122-3.382,7.836-.229,3.112.947,5.334.799,8.252-3.728-5.464-5.425-11.476-.29-16.662-3.784,1.471-10.685,3.604-13.463,6.937-.81.973-1.409,3.519-2.348,3.976-1.982.966.056-4.077.295-4.592-.698-.68-4.078.352-4.712.631-.47.208-.541.823-.944,1.02-1.576.772-3.133,1.567-4.688,2.371,11.608,12.323,16.493,30.647,26.77,43.626,14.627,18.472,26.164,3.642,27.276-14.003ZM828.568,357.315c-1.916,11.802-3.865,23.654-4.597,35.629,4.99,3.174,14.404,6.105,17.24,8.045l22.976-24.423c-6.646-4.243-9.399-12.294-11.492-19.528-2.763-9.548-3.618-18.934-4.545-28.785l-10.681-15.182c-1.381-.249-.693.633-.836,1.443-2.519,14.31-5.733,28.444-8.065,42.802ZM966.482,703.829c1.086-1.215-2.817-4.162-3.738-4.582-.624,1.268,2.985,5.425,3.738,4.582ZM801.559,373.98c.011-.159.611-.878.616-1.944.049-10.553-.607-21.797-.035-32.243.094-1.725,1.205-13.601,1.722-14.087,1.775-1.669,2.24,3.105,2.318,4.292.767,11.73-.563,31.356-2.38,43.079-.152.98-.22,2.364-1.666,2.052,1.053,1.893,7.957,7.447,10.071,9.18,3.189,2.615,6.624,5.188,10.042,7.485,1.173-3.701.896-8.007,1.127-11.802.045-.745.597-1.499.597-1.702v-12.642c0-2.141.487-5.709.575-8.332.478-14.327,1.408-30.29.602-44.561-.082-1.455-.285-2.829-.663-4.222-11.536,2.065-24.638-8.908-25.224-20.176-.643.087-5.544,5.198-6.342,6.038-6.469,6.809-13.389,13.555-19.801,20.4-2.526,2.696-4.633,5.907-7.761,8.042,8.535,18.92,21.027,36.996,36.203,51.144ZM915.894,334.062c-3.871-.769-9.132-2.679-12.622-3.182-1.269-.183-3.226-.039-4.597,0-2.57.073-8.343-.171-5.747,4.023.723,1.168,2.681,1.676,4.023,1.724.381.014.768.007,1.149,0,3.129-.061,4.483-.306,8.045,0,.883.076,1.067-.005,1.149,0,4.233.278,8.317.907,12.642.575.782-.06,4.276-.431,4.798-.564.597-.151.322-1.128.374-1.16-3.067-.239-6.2-.817-9.215-1.416ZM858.45,210.203c.345-1.004-.615-2.951,1.724-2.873,1.866,1.56,3.842,3.355,5.467,5.165,1.124,1.253,2.163,3.723,3.153,4.604,1.34,1.192,8.689.41,11.2.581,16.24,1.102,36.783,6.134,51.254,13.682,4.263,2.224,5.57,4.737,7.949,8.719,2.481.297-1.851-5.048.559-4.013,2.62,1.126,7.054,9.602,10.064,11.488.833.402.424,1.249.575,1.724.096.304-.086.813,0,1.149.176.689.389,1.72.575,2.299,1.286,4.002,5.636,12.324,4.023,16.09-.042.098-.713.086-.575.565,10.541,4.428,21.772,7.205,32.181,12.078-3.057,1.632-5.57,2.57-5.13,6.551.433,3.908,5.882,10.575,8.577,13.562-6.649,9.939-17.089,16.008-28.733,18.389-1.213.248-3.26.427-4.597.575h-1.724c-1.133.051-2.313.035-3.448,0h-.575c-6.24-.374-9.943-.868-14.226-2.258-3.114-1.011-11.961-5.168-14.78-4.619-2.692.524-2.649,3.265-.056,4.046,15.27,3.981,29.542,5.532,44.889,5.154,2.916-.072,5.629-.723,8.883-.598.075,4.367-3.911,8.958-7.197,11.479-6.611,5.071-15.535,4.032-23.259,2.887-14.768-2.189-30.944-6.37-45.972-9.194-.122-.046-.235-.067-.344-.075-3.297-.679-6.711-2.195-10-2.798,3.874-7.761,10.871-13.612,15.528-20.963,3.899-1.574,7.809-.507,12.159-1.65,1.029-.27,2.573.079,2.195-1.523h-14.654c-1.27,0-14.109,17.516-15.694,19.934-.861,1.313-1.969,2.457-1.833,4.202-2.987-.516-6.982-1.625-9.769-1.724-16.029-3.521-28.839-13.418-33.905-29.307,4.903,4.838,10.364-.126,12.748-4.779,3.692-7.207,3.102-14.48,3.342-22.23.323-10.422.136-20.727-.453-31.201,2.638-3.864,5.018-8.015,7.695-11.84.552-.789,1.874-.773,1.999-2.08.191-2.011-7.161-10.698-9.816-11.196ZM886.035,248.127c.499.482,8.955-.48,10.368-.833,3.115-.779,5.695-2.779,8.603-4.039,1.313-.569,6.624-1.782,6.887-2.027,2.24-2.082-6.073-.592-6.345-.806-1.267-.995-.869-6.974-1.129-7.236-1.815-1.83-7.92,6.754-9.494,8.033-1.279,1.04-10.687,5.173-8.891,6.907ZM880.297,257.037c4.54,4.392,9.616,8.87,15.287,11.711,2.812,1.409,9.475,4.462,12.286,5.241h.575c.61.101,1.629.039,2.299,0h.575c.203-.039.443.062.575,0,.157-.204.341-.468.575-.575,2.551-1.169,4.096-2.586,6.301-3.755,1.442-.765,8.135-3.312,8.398-3.687.648-.926-.359-2.641-.908-3.476.076-2.92-3.608-3.668-4.342-5.709-1.225-3.406.785-2.756.894-2.911,3.54.491,3.204-.472,2.813-3.677-.646-5.289-2.602-8.181-4.536-12.414-.286-.627.231-3.797-1.711-3.742.659.881.775,2.439.585,3.464.046.664.086,1.191.101,1.744.018.698-.006,1.438-.124,2.557-.179.846-.716,2.077-.575,2.873-3.57.787-6.543-.353-10.373.258-4.948.789-9.245,4.199-13.763,6.063-1.913.789-14.914,4.47-14.93,6.034ZM977.409,725.094c.992,7.427,4.377,17.641,3.443,25.008-.101.795-.339,1.703-1.144.852-.528-.558-.974-9.896-1.229-11.708-.349-2.483-1.332-10.944-2.214-12.587-.462-.859-3.978-1.249-4.605-3.005.521-.402,6.031-.235,5.738-1.14l-10.778-17.525c-.81-.389-1.569-1.136-1.289.282.984,4.995,4.294,10.485,5.117,16.148.318,2.191.559,6.202.659,8.536.063,1.468.329,13.019-.91,12.972-3.05-.982-7.079-4.136-10.246-4.031-.448.015-.75.517-.935.565-.393.103-1.114-.267-1.572.152-.282.258-.091.955-.152.997.364.048.881-.091,1.149,0,1.418.48,4.065,2.18,5.058,3.399l9.308,4.647c.366-.052.775.035,1.149,0l.289-.566c.156.157.18.526.285.566,3.8,1.427,6.494,4.354,10.338,5.746.477-8.567-1.549-16.947-2.296-25.436l-5.163-3.871ZM944.061,725.393c-.611-.276-2.589-.54-2.859-.297-1.011.91,3.195,3.935,3.13,5.197,1.315.842,5.845,6.867,7.198,5.712.28-.239,1.334-3.41.63-4.337-.31-.408-7.632-6.065-8.099-6.275ZM927.453,701.42c-.135.094.043.623-.054.681-.467.28-1.104-1.445-1.702-.862.929.448,1.371,4.287,2.565,3.736,1.155-.533,1.913-5.46-.808-3.555ZM916.378,676.073c-1.838-3.078-5.144-5.718-5.063-9.594-2.186.865-5.13.609-3.748,3.464l15.291,28.676c.967.693,4.243-1.761,5.116-2.543-4.323-6.394-7.644-13.388-11.596-20.003ZM814.476,424.562c-1.585-1.663-3.509-4.719-4.758-6.735-1.179-1.902-1.523-5.654-4.136-5.346-.319,6.072-1.524,12.301-2.299,18.389-.327,2.571-.309,5.569-.657,8.251-.514,3.96-1.879,7.859-1.932,11.859,5.679-5.836,12.206-11.525,16.615-18.439,3.864-6.058,1.137-3.813-2.833-7.979ZM954.992,741.752c5.705,1.392,10.141,6.375,15.468,8.387,1.385.523,1.816-.025.622-.91l-13.792-8.62c-.33.231-2.149-.208-2.298,1.143ZM954.417,715.899c-.602,3.037.138,5.889,0,9.194-3.191-.013-6.164-1.411-9.194-2.299-1.101-.323-3.87-.488-4.336-1.124-1.157-1.579-1.724-13.323-3.406-16.707-.677-1.363-4.193-5.135-5.475-6.88l-19.538-35.054c-1.057-5.582-3.903-10.104-8.62-13.217-3.07-2.027-6.762-4.054-10.063-5.734-.318.445.244,1.084.294,1.711,1.975,2.112,6.949,4.805,6.038,8.041-31.045-14.649-63.22-26.665-95.092-39.378-5.596-2.232-11.107-4.955-16.683-7.165-1.328-.526-2.663-1.041-4.002-1.552-15.141-5.778-30.905-10.725-45.419-17.986-.435-.218-.767.185-1.149-.575-.04-.078-.031-.483,0-.575-.364.057-.836-.084-1.149,0-.137.037-.273.483-.705.428-.218-.028-.315-.394-.445-.428-5.805-1.534-12.652-6.225-18.412-8.43,1.202-12.212-1.785-23.161-4.738-34.793-3.213-12.66-6.903-25.313-10.344-37.928-.778-2.853-2.722-6.995-3.146-9.494-.512-3.023,1.091-5.526,0-8.051-.63-1.456-7.111-7.516-8.75-9.061-9.712-9.157-20.715-17.018-30.465-26.139l-9.769-8.045c.096-.285-.061-.791,0-1.149,4.778.323,14.418-6.447,18.647-5.755,1.134.186,8.925,8.185,10.661,9.778.201.184.377.393.575.575.104.095.471-.096.575,0,.2.185.378.391.575.575.976.911,1.966,2.552,2.299,2.873.048.047.629.069,1.149.575.195.189.381.386.575.575l.575.575c.583.569,1.147,1.16,1.724,1.724l.575.575c.194.189.38.386.575.575l.575.575c5.231,5.086,10.264,10.435,15.516,15.516l.575.575c.578.556,1.125,1.151,1.724,1.724.048.046.63.08,1.149.575.196.186.378.388.575.575l.575.575c.809.773,1.616,2.193,1.724,2.299l.575.575c.795.799,5.257,5.078,5.747,5.172.04.008.247-.619.563-.581.067.267-.028.74-.022.998.011.051.023.1.033.158.08.096.473-.094.575,0l.575.575c1.167,1.08,1.805,1.518,2.873,2.873.061.078.138.148.217.217.13.114.266.225.358.358.773,1.123,1.48,2.176,2.001,3.46,3.785,9.323,6.558,22.206,9.492,32.169,1.186,4.026,8.3,31.187,9.89,32.053.41.223,2.078.218,2.175.127.95-.89-2.831-10.12-2.296-12.068-1.073-.971-.843-2.314-1.149-3.448-.614-2.272-1.148-4.852-1.724-6.896-3.85-13.658-9.228-34.788-14.941-47.122-2.992-2.683-6.942-5.247-9.194-8.62-.122-.183-.412-.342-.575-.575-15.705-13.566-29.988-28.826-45.079-43.13-1.252-.935-2.89-.477-4.345-.541.806-6.917,1.232-14.07,2.34-20.94.632-3.919,3.431-2.664,6.105-1.583,30.17,12.192,61.742,30.431,91.159,45.035,4.961,2.463,10.127,4.872,15.331,6.793-.38,5.851,1.419,14.481,1.724,20.688.762,15.493.394,38.67-10.032,51.18-.546.655-2.918,1.328-2.036,2.258.137.144,2.818.599,3.839,1.053,13.598,6.056,30.024,21.352,42.526,30.453,24.857,18.094,52.159,37.965,78.91,52.973-1.725,2.938.195,6.256.575,9.194-2.731-1.109-5.579-1.833-8.339-2.861,1.436,2.205,5.905,3.873,8.465,4.745,1.078.367,3.538,1.428,4.472.414,6.699,3.138,17.023,7.457,22.986,10.918l5.172-6.896c.441.176.852.467,1.149.575,1.084,1.204,1.579,2.706,2.299,4.023-5.046-.434-4.887,2.119-4.597,6.321,7.931,14.48,14.149,30.212,22.501,44.446,3.944,6.722,11.92,11.744,14.869,19.963.602,2.116.979,4.302,1.132,6.56v16.378c-1.615.147-3.068-.045-4.316-1.137l-.281.562c-.394-.195-.758-.363-1.149-.575-1.547-.837-6.179-2.863-5.299-4.928.035-.081.075-.162.127-.243,1.286-2.427,3.023-9.743,3.336-12.512.113-.998-.298-1.224-.462-1.855-.491-1.888-.193-2.888-3.154-2.312-2.028.394-1.183,1.571-1.444,2.887ZM699.119,431.582c-8.339,1.336-11.367,10.926-5.302,17.096,3.87,3.936,8.048,4.141,12.538,1.058,8.673-5.954,4.225-19.991-7.237-18.154ZM797.536,599.244c.063-.175-.068-.419,0-.575-5.223-1.972-10.335-4.241-15.516-6.321l-35.054-15.516c-2.658-2.159-1.347-1.728-2.768-4.415-1.786-3.378-4.384-7.499-6.761-10.478-.893-1.119-6.173-6.782-6.966-6.854-.758-.069-1.048-.212-1.607.479-.501.62-2.798,10.848-2.508,11.695.053.155,1.986,1.969,2.369,2.277,1.627,1.31,6.638,4.586,8.473,5.572,14.537,7.809,36.125,16.678,51.737,22.681,1.332.512,7.846,3.288,8.6,2.601.108-.098-.107-.844.001-1.146ZM650.123,374.481c1.748-.671,3.466-1.314,5.152-1.928-2.005.681-3.78,1.339-5.152,1.928ZM674.56,471.671c9.814,13.003,18.429,30.834,9.656,46.721-5.617,10.172-20.563,15.04-30.914,18.796.172,1.052,2.947.617,3.726.562,5.249-.373,10.505-2.007,15.808-1.712,1.323.962-8.297,2.573-9.074,2.701-42.746,7.01-76.791-9.211-112.13-30.626-21.727-13.166-42.058-28.606-64.395-40.767-1.533-1.1,1.398-3.179,2.332-3.959,4.748-3.966,14.583-7.581,20.64-8.955,3.559-.807,7.357-.88,10.669-1.711.963-.242,1.678.577,1.395-1.159-10.068.752-20.472.165-30.454,1.721-3.959.617-8.344,1.842-12.189,3.039-3.873,1.205-7.542,3.117-11.368,4.432-.583-4.046-.859-8.269-.601-12.379.121-1.937.952-3.836,1.172-5.436.087-.634.052-1.632,0-2.299-.038-.482-.058-.923-.575-1.149-4.649,4.704-6.269,10.195-9.46,15.537-.537.899-.679,1.764-2.034,1.703-3.677-8.015-8.229-15.628-12.068-23.561,2.558,10.48,9.708,22.792,14.061,33.348,10.512,25.496,17.585,49.991,25.016,76.411-6.487-3.53-13.21-7.085-18.875-11.869l-38.479-73.635.179-1.813c5.493-8.613,12.89-16.81,16.374-26.465-1.664-1.209-4.994-.775-6.896-1.149l-1.149-.575c-.184-.037-.389.033-.575,0h-.575c-.365-.056-.783.054-1.149,0l-.575-.575c-.733-.093-1.571.102-2.299,0l-2.299-.575c-2.107.463-16.212,24.764-19.823,28.189-.475,1.017.354,2.946.86,3.992.609.204.876.604,1.149,1.149.077.154-.078.425,0,.575,2.049,3.909,4.5,7.957,6.294,11.357,8.826,16.727,17.953,33.685,26.62,50.284,3.56,6.819,6.5,13.478,9.939,19.921,12.578,7.58,24.66,16.094,37.598,23.026,1.183,4.879,1.945,8.884,2.873,13.792,1.324,7.004,3.211,14.368,3.471,21.525.058,1.607.21,4.169-.163,5.631-.26,1.018-6.511,9.379-7.66,10.729-5.131,6.029-12.141,12.292-18.06,17.857-1.022.961-1.662,2.501-3.448,2.873-1.172,1.839-2.668,2.633-4.023,4.023-1.876,1.924-3.58,3.077-5.172,4.597-1.358,1.297-2.631,2.706-4.023,4.023-22.291,21.094-44.868,41.905-67.25,62.91-17.117,17.781.662,34.916,11.613,49.905,7.217,9.878,15.193,19.454,22.269,29.335-2.703,2.464-5.854,7.716.038,3.238,0,.247-.064,1.102-.004,1.148,1.054.806,13.124-1.336,15.52-.573,3.425,5.601,5.551,12.609,6.897,18.961-9.738-.42-19.933.565-29.62.026-1.829-.102-6.442-.381-7.882-.738-5.434-1.347-4.046-8.967-5.933-12.456-1.044-1.931-10.228-11.537-12.031-11.546-1.771-.008-2.397,3.922-6.191,2.766-.493-.15-4.083-3.602-4.464-4.171-1.848-2.754,3.576-3.981,2.832-6.804-.451-1.712-7.891-8.228-9.694-10.174-11.987-12.941-24.687-25.372-37.919-37.073-1.627-1.439-3.802-3.411-5.754-4.302-.057-1.525-.875-3.311-.3-4.578.619-1.365,6.923-6.244,8.641-8.056,13.117-13.833,20.83-28.807,29.587-45.406,2.013.368,3.448-1.254,4.868-2.315,14.478-10.817,28.128-23.722,42.253-35.038,2.349-3.137,3.721-5.554,5.172-9.194.01-.024.042-.053.085-.085l.49-.49c3.454-9.617,2.808-18.423,2.266-28.413l-.856-2.017c-13.883-13.503-28.072-26.72-41.938-40.237-12.796-12.474-26.167-27.727-39.622-39.106-.789-.667-2.733-2.595-3.752-2.044-.489.264-5.008,7.035-5.099,7.651-.173,1.166,1.693,3.219,2.508,4.184,14.121,16.723,35.53,31.365,50.282,47.984,8.918,5.678,19.94,20.85,28.705,25.312,2.415,1.229,6.657.961,7.382,4.111.733,3.185.069,12.933-.583,16.408-.851,4.533-4.504,9.607-6.37,14.036-13.373,12.228-29.818,22.936-42.919,35.231,6.228-14.466,10.855-31.1,18.389-44.823l21.303-12.893c1.655-3.073-1.201-4.792-3.489-6.07-11.977-6.69-25.748-20.204-35.931-29.867-7.864-7.462-20.513-23.07-28.405-28.5-.39-.268-3.784-4.182-4.048-4.271-.736-.859-1.754-.9-2.288-1.466-1.388-1.472-4.918-6.268-6.341-8.161-14.044-18.688-26.084-44.265-19.366-68.075,1.108-3.928,3.285-7.377,3.859-11.369.858-1.355,1.431-1.478,1.98-2.318,2.678-4.1,5.001-8.432,8.364-12.049-.65-.744-.522-.4-1.327.103-10.824,6.759-21.747,13.352-33.14,19.161-5.88,2.998-15.079,8.05-21.275,9.47-7.769,3.921-16.312,6.414-24.71,8.62-.331.087-.816-.085-1.149,0-2.883.737-5.67,1.671-8.62,2.299-5.551,1.18-12.278,2.781-17.814,3.448-12.005,1.446-28.323-.574-40.431-2.381-50.114-7.48-91.728-28.196-126.514-64.846-7.194-7.579-26.821-30.407-28.401-39.986-.767-4.648,2.217-2.37,4.279-.253,6.523,6.695,12.621,14.74,19.22,21.565,38.349,39.664,75.3,59.53,130.762,65.785,5.599.631,11.39.244,16.949,1.152h7.471c.765,0,1.534.021,2.299,0,11.059-.305,22.371-.815,33.33-2.299,25.351-3.433,56.289-12.014,79.691-22.31,10.52-4.629,19.792-10.912,30.068-15.617,4.312-1.974,9.554-3.436,13.792-5.747.253-.138.458-.303.575-.575,7.834-2.321,15.511-5.252,23.437-7.307,17.557-4.552,35.527-6.076,53.567-7.634,32.688-2.823,69.48-6.051,102.289-5.747,14.296.133,30.771,1.251,45.105,2.305,13.533.994,26.983,3.098,40.52,4.014l-2.874-14.938c.509-.045,1.419-.901,2.296-.575-.503,1.391.402,2.535.577,3.449,3.646,19.007,9.786,28.248,19.538,44.248,2.387,3.917,4.323,9.083,7.471,12.642.791.895,2.522,1.989,3.448,2.873,5.102,4.875,11.143,9.473,16.09,14.366,1.195,1.182,2.989,2.87,4.023,4.023.862.961,2.057,2.941,2.873,4.023ZM363.669,695.214c-.398-.419-2.269.378-2.603,1.127l-17.251,22.972c-1.411,4.337,3.462,10.93,5.193,14.983.982,2.298.405,5.079,3.972,2.805,3.799-2.422-1.281-8.753-1.812-11.854-.277-1.618-.285-3.168.132-4.768,1.71-6.558,9.558-15.603,11.921-22.554.212-.624.786-2.351.446-2.709ZM622.841,388.346c-.557-4.418,3.217-3.741,6.321-5.172l1.149,4.597c.041.371-.061.793,0,1.149.123.721.624,1.745,1.149,2.299.83,5.18,4.011,10.355,5.196,15.499l18.32-6.936-7.425-22.354c-.1-1.519.881-1.435,1.833-1.904,7.002-3.455,16.225-6.004,23.814-7.791l47.62-.071c.734-.085-.246-.806-.285-1.152-5.234-1.036-6.88-5.453-9.769-9.194,2.062-.472,6.971-1.568,8.62-2.299v.575l25.285-13.217c1.529,4.577,13.826,22.546,17.337,27.199,3.08,4.083,7.316,7.579,10.247,11.303.681.865,2.582,4.131,2.873,5.172.581,2.073.76,5.777,1.155,8.042l.853-6.315c6.496,6.738,14.331,14.91,22.127,20.11.614.409,2.099.815,2.873,1.149,1.209,7.208.489,14.661,0,21.837-.778,11.399-1.722,24.076-10.051,32.76-1.092,1.138-1.982,2.464-3.741,2.294-.071-1.108.157-2.416,0-3.448-.007-.043-.082-.105-.175-.175l-.4-.4c-.041-.325-.529-.81-.575-1.149-.227-1.693-.257-3.377-.575-5.172,1.445-3.068-.013-7.284-.742-10.464-1.462-6.377-3.904-13.269-6.154-19.418-1.401-3.828-4.034-11.383-6.321-14.366-.365-.476-.474-1.276-1.143-1.147.182,7.084,3.825,13.509,5.741,20.11,1.721,5.929,3.717,12.328,4.904,18.369.714,3.632.785,7.307,1.417,10.938-.184-.036-.39.035-.575,0-13.443-2.557-33.798-15.312-46.916-21.756-21.235-10.432-42.578-20.645-63.843-31.018-8.492,1.319-6.648,5.111-7.698,11.608-.433,2.678-2.322,16.534-3.114,17.574-1.264,1.662-10.289,4.336-12.899,5.777-.036.02.074.671-.575.575-2.162-3.129-3.869-5.892-5.747-9.194-1.203-2.116-2.274-4.724-3.448-6.896-5.129-9.493-15.172-27.168-16.625-37.658-.012-.089-.029-.181-.04-.269ZM730.028,386.038c.748,1.635,9.061,8.842,11.001,10.562.268.237.126.883.192.94-2.72,3.234-6.697,5.943-1.682,9.44,2.365,1.649,3.676,1,5.717,1.754,7.42,2.742,14.219,11.07,20.966,15.237.753-2.991-1.102-7.591-3.164-9.765,1.858.141,1.114-.323.293-1.155-1.702-1.727-4.232-4.131-6.04-5.741l-1.933-1.8c-2.816-2.919-5.759-7.004-8.395-8.87-.659-.467-1.653-.75-1.74-.822-3.611-4.413-6.73-7.086-10.755-11.085-.733-.728-.379-2.552-2.462-2.707-2.569-.19-2.945,1.943-1.998,4.013ZM468.259,805.545c.887,1.412,2.053,5.56,2.305,5.745.228.167,4.999-2.076,5.165-2.305.79-1.088-3.361-4.919-4.022-5.738-1.067,1.431-3.907.339-3.448,2.299Z" fill="#0b80c6"/>
  <path d="M261.958,626.828c-.823,1.455-2.226,1.384-3.805,1.65-3.11.524-10.79,1.392-13.714,1.242-1.714-.088-.16-.83-.295-1.742,1.52-1.555,2.204-3.216,3.842-4.491l14.215-1.195c1.616.348.314,3.553-.242,4.536ZM630.312,388.921c.123.721.624,1.745,1.149,2.299.83,5.18,4.011,10.355,5.196,15.499l18.32-6.936-7.425-22.354-.575-.575v-1.149c-6.288,2.484-11.682,4.645-17.814,7.471l1.149,4.597c.041.371-.061.793,0,1.149ZM332.066,544.077c3.676-5.786-4.97,1.11-6.896,2.299-.139.086-.436-.086-.575,0l-1.094,1.094-.055.055c-11.284,6.836-21.044,11.613-33.33,16.665-29.909,12.299-53.803,17.763-86.198,20.113-.162-.004-.405-.03-.835-.056-.941-.056-2.778-.113-6.636.056-2.976.203-4.586-.054-6.061.098h-.001c-.071.058-.148.121-.229.187-.073.059-.15.122-.232.189-.019.015-.039.032-.058.048-.519.426-1.193.993-2.039,1.772l19.538.006c30.665-1.969,61.758-9.762,89.646-22.412,12.694-5.758,23.458-12.618,35.054-20.113ZM923.386,260.773l-1.14-.045c.068,0,.138.003.207.003l.933.042c-6.427-1.731-12.055,2.414-18.389-1.149-3.445-2.608-6.683-5.598-9.769-8.62-1.913.789-14.914,4.47-14.93,6.034,4.54,4.392,9.616,8.87,15.287,11.711,2.812,1.409,9.475,4.462,12.286,5.241h.575c.61.101,1.629.039,2.299,0h.575c.203-.039.443.062.575,0,.157-.204.341-.468.575-.575,2.551-1.169,4.096-2.586,6.301-3.755,1.442-.765,8.135-3.312,8.398-3.687.648-.926-.359-2.641-.908-3.476-.929-1.414-1.364-1.317-2.873-1.724ZM369.115,669.911c14.478-10.817,28.128-23.722,42.253-35.038,2.349-3.137,3.721-5.554,5.172-9.194.01-.024.042-.053.085-.085l.49-.49c3.454-9.617,2.808-18.423,2.266-28.413l-.856-2.017c-13.883-13.503-28.072-26.72-41.938-40.237-12.796-12.474-26.167-27.727-39.622-39.106-.789-.667-2.733-2.595-3.752-2.044-.489.264-5.008,7.035-5.099,7.651-.173,1.166,1.693,3.219,2.508,4.184,14.121,16.723,35.53,31.365,50.282,47.984,8.918,5.678,19.94,20.85,28.705,25.312,2.415,1.229,6.657.961,7.382,4.111.733,3.185.069,12.933-.583,16.408-.851,4.533-4.504,9.607-6.37,14.036-13.373,12.228-29.818,22.936-42.919,35.231-1.614,1.515-1.867,2.115-2.873,4.023,2.013.368,3.448-1.254,4.868-2.315ZM917.854,252.279c-.306-1.101-1.086-2.543-2.437-1.767-.51.293-2.264,4.217-4.419,4.534-3.821.562-4.134-6.132-7.719-4.341-3.733,1.865,2.922,6.951,5.711,7.518,3.479.708,10.034-1.734,8.865-5.944ZM706.356,449.737c-4.491,3.082-8.669,2.877-12.538-1.058-6.065-6.169-3.037-15.759,5.302-17.096,11.462-1.837,15.91,12.2,7.237,18.154ZM708.145,441.199c0-4.083-3.31-7.393-7.393-7.393s-7.393,3.31-7.393,7.393,3.31,7.393,7.393,7.393,7.393-3.31,7.393-7.393ZM803.107,474.653c-1.088.337-1.81,1.954-2.238,2.937-.736,1.696-3.635,10.267-3.805,11.763-.292,2.58,1.311,4.598,3.926,3.298,2.44-1.213,6.435-14.876,5.684-17.16-.407-1.239-2.517-1.164-3.567-.839ZM857.872,395.819c-5.436,1.154,1.3,6.77-3.008,8.769-5.518,2.56-15.744-1.694-20.938-4.073-11.196-5.127-19.385-12.185-28.919-19.639-4.649-3.635-4.788-3.031-8.62-8.045-6.917-3.707-17.92-20.057-22.206-27.498-.394-.684-1.507-1.83-.205-2.384-3.588-5.667-8.209-12.455-10.918-18.389l-16.09,11.493c.47,3.585.637,1.992,1.319,3.587,5.859,13.702,14.012,22.196,21.093,34.34,6.818,6.467,12.494,14.131,19.53,20.408,10.838,9.669,34.422,26.529,48.728,28.277,7.264.888,7.171.065,11.283-5.06,2.152-2.683,9.239-12.551,9.974-15.324.689-2.596-1.184-3.948-1.021-6.462ZM699.113,436.73c-5.299,1.158-3.969,10.286,2.605,8.982,4.417-.876,4.274-10.485-2.605-8.982ZM888.906,324.559c3.874-7.761,10.871-13.612,15.528-20.963,3.899-1.574,7.809-.507,12.159-1.65,1.029-.27,2.573.079,2.195-1.523h-14.654c-1.27,0-14.109,17.516-15.694,19.934-.861,1.313-1.969,2.457-1.833,4.202.7.121,1.608-.127,2.299,0ZM786.604,496.953c1.391-1.127.322-30.318.013-34.479-1.459-.032-3.3-.386-3.477,1.455l1.756,33.03c.472-.078,1.545.126,1.708-.006ZM701.814,556.132c.888.027,5.785-1.914,7.8-2.286.181-.565.659-.519,1.149-.575.185-.021.387-.001.575,0,2.104-.856.597-2.253.569-4.027-.745.519-1.606.382-2.293.579-1.343.384-7.552,2.347-8.225,2.834-1.163.842-1.49,3.417.426,3.474ZM426.421,457.425l.179-1.813c5.493-8.613,12.89-16.81,16.374-26.465-1.664-1.209-4.994-.775-6.896-1.149l-1.149-.575c-.184-.037-.389.033-.575,0h-.575c-.365-.056-.783.054-1.149,0l-.575-.575c-.733-.093-1.571.102-2.299,0l-2.299-.575c-2.107.463-16.212,24.764-19.823,28.189-.475,1.017.354,2.946.86,3.992.609.204.876.604,1.149,1.149.077.154-.078.425,0,.575,2.049,3.909,4.5,7.957,6.294,11.357,8.826,16.727,17.953,33.685,26.62,50.284,3.56,6.819,6.5,13.478,9.939,19.921,12.578,7.58,24.66,16.094,37.598,23.026-1.812-7.47-4.287-14.605-6.321-21.837-6.487-3.53-13.21-7.085-18.875-11.869l-38.479-73.635ZM672.986,406.829c-8.492,1.319-6.648,5.111-7.698,11.608-.433,2.678-2.322,16.534-3.114,17.574-1.264,1.662-10.289,4.336-12.899,5.777-.036.02.074.671-.575.575.261.378-.623,1.029,1.149,1.149,4.778.323,14.418-6.447,18.647-5.755,1.134.186,8.925,8.185,10.661,9.778.201.184.377.393.575.575.104.095.471-.096.575,0,.2.185.378.391.575.575.976.911,1.966,2.552,2.299,2.873.048.047.629.069,1.149.575.195.189.381.386.575.575l.575.575c.583.569,1.147,1.16,1.724,1.724l.575.575c.194.189.38.386.575.575l.575.575c5.231,5.086,10.264,10.435,15.516,15.516l.575.575c.578.556,1.125,1.151,1.724,1.724.048.046.63.08,1.149.575.196.186.378.388.575.575l.575.575c.809.773,1.616,2.193,1.724,2.299l.575.575c.795.799,5.257,5.078,5.747,5.172.04.008.247-.619.563-.581.067.267-.028.74-.022.998.011.051.023.1.033.158.08.096.473-.094.575,0l.575.575c1.167,1.08,1.805,1.518,2.873,2.873.061.078.138.148.217.217.13.114.266.225.358.358.773,1.123,1.48,2.176,2.001,3.46,3.785,9.323,6.558,22.206,9.492,32.169,1.186,4.026,8.3,31.187,9.89,32.053.41.223,2.078.218,2.175.127.95-.89-2.831-10.12-2.296-12.068-1.073-.971-.843-2.314-1.149-3.448-.614-2.272-1.148-4.852-1.724-6.896-3.85-13.658-9.228-34.788-14.941-47.122-2.992-2.683-6.942-5.247-9.194-8.62-.122-.183-.412-.342-.575-.575-15.705-13.566-29.988-28.826-45.079-43.13-1.252-.935-2.89-.477-4.345-.541.806-6.917,1.232-14.07,2.34-20.94.632-3.919,3.431-2.664,6.105-1.583,30.17,12.192,61.742,30.431,91.159,45.035,4.961,2.463,10.127,4.872,15.331,6.793.155-2.384.261-2.586,2.299-4.023-13.443-2.557-33.798-15.312-46.916-21.756-21.235-10.432-42.578-20.645-63.843-31.018Z" fill="#edad3e"/>
  <path d="M324.595,546.376l-1.094,1.094c.149-.179.493-.724,1.094-1.094ZM711.625,664.174c-.773,7.189-6.074,20.724-3.872,27.437.271.826,2.355,4.793,3.582,3.603-.644-10.364.714-20.732.29-31.039ZM899.25,327.432c-.122-.046-.235-.067-.344-.075.114.024.23.054.344.075ZM744.199,572.418c-1.786-3.378-4.384-7.499-6.761-10.478-.893-1.119-6.173-6.782-6.966-6.854-.758-.069-1.048-.212-1.607.479-.501.62-2.798,10.848-2.508,11.695.053.155,1.986,1.969,2.369,2.277,1.627,1.31,6.638,4.586,8.473,5.572,14.537,7.809,36.125,16.678,51.737,22.681,1.332.512,7.846,3.288,8.6,2.601.108-.098-.107-.844.001-1.146-5.505-1.38-11.132-4.096-16.09-6.896-7.903-3.197-28.794-10.898-34.479-15.516-2.658-2.159-1.347-1.728-2.768-4.415ZM903.273,330.88c3.489.503,8.751,2.413,12.622,3.182,3.015.599,6.149,1.177,9.215,1.416.461-.286,2.407.628,2.296-.569-7.076-1.269-13.985-3.547-21.145-4.442-.922-.115-2.399-.642-2.988.413ZM741.028,396.6c.268.237.126.883.192.94.564.493,3.423,1.797,4.023,2.299,4.954,4.143,13.821,10.156,17.814,14.366,1.858.141,1.114-.323.293-1.155-1.702-1.727-4.232-4.131-6.04-5.741-.203-.181-.425-.369-.656-.56-3.154-2.607-8.719-6.143-10.837-9.209-.383-.555-.428-1.545-.575-1.724-3.305-2.763-7.096-5.741-10.074-9.175-1.039-1.198-2.171-3.247-3.143-4.616-2.569-.19-2.945,1.943-1.998,4.013.748,1.635,9.061,8.842,11.001,10.562ZM859.316,391.806c-1.155,2.466,2.284,6.57,1.901,9.893-.403,3.496-12.994,21.718-16.131,22.991-2.503,1.016-6.38.423-8.962-.086-1.798,4.351-9.005,9.398-10.572,13.307-1.984,4.949-2.363,19.084-3.387,25.345-1.178,7.203-2.703,14.549-4.936,21.498-6.302,19.608-23.521,37.222-32.791,55.708-.586,2.805.246,1.221,1.306,1.86,46.399,35.021,92.861,71.916,146.873,94.548.45.455.377,1.235.539,1.45,7.368,9.753,13.786,27.569,19.813,39.089,2.809,5.369,7.031,14.345,10.069,18.951,4.767,7.23,9.862,13.937,14.091,21.825.756,1.41,2.458,6.451,2.716,6.766.343.417,1.539.512,2.136,1.008,1.699,1.414,3.593,10.549,3.998,13.249.5,3.339,1.537,11.308,1.205,14.34-.808,7.377-10.427.163-13.582-.135-.838-.079-1.823.504-2.794.45-3.141-.174-17.051-9.347-18.949-12.155-.37-.548-.139-1.577-.465-2.096-.16-.255-2.753-1.646-3.595-2.441-1.755-1.657-8.654-8.769-8.819-10.618-.493-5.508-1.426-11.593-3.112-17.102-.371-1.214-1.448-5.954-2.986-5.618-1.268.277-2.679,5.496-5.309,4.181-.951-.476-6.746-9.059-7.762-10.664-3.027-4.783-13.378-22.344-14.557-26.841-.818-3.122,1.209-5.554-.893-10.003-1.679-3.553-10.325-7.069-14.096-8.891-7.006-3.384-14.331-6.475-21.487-9.545-38.973-16.719-79.043-30.966-118.354-46.853-6.522,19.204-13.576,38.284-18.806,57.917-2.575,9.663-6.371,23.051-7.475,32.751-.677,5.948.585,7.635,3.191,12.582,4.907,9.319,12.773,20.647,19.167,29.104,1.289,1.705,3.892,5.576,5.342,6.725,2.993,2.373,8.493.664,12.089.517,1.507-.062,2.821.652,4.034.641,2.639-.025,6.625-2.099,10.358-1.793,5.865.482,12.334,7.17,16.064,11.533,1.413,1.653,4.305,4.835,4.302,6.904-.003,2.084-3.169,6.008-5.139,6.641-6.649,2.136-16.255-.176-23.326,1.438-9.484-2.259-22.465,1.039-31.558-.637-2.949-.543-6.415-5.918-7.211-8.592-.357-1.199-.42-4.691-.665-5.083-.1-.16-1.676-.515-2.46-1.274-1.842-1.783-5.169-9.684-6.641-10.62-1.559-.991-2.659,1.413-4.309,1.423-2.572.016-5.64-5.807-5.531-8.182l-22.341-32.911c5.224-26.998,7.492-54.653,8.64-82.108.643-15.369.971-30.9-.029-46.283-5.544,1.258-11.865,2.521-17.527,2.868-55.744,3.411-101.684-32.665-151.693-50.575-16.937-6.066-35.148-11.097-53.165-12.054,3.723,14.538,8.98,28.619,12.927,43.097,5.05,18.529,9.498,37.671,9.802,56.924-7.968,11.395-17.678,21.35-27.599,31.012-26.575,25.881-55.003,49.978-81.624,75.831-8.617,10.198-10.1,17.923-2.94,29.391,10.301,16.499,24.258,31.474,35.101,47.677,1.578,1.065,11.155-.987,13.827-1.198,5.223-.412,10.285-.651,15.513-1.152,1.59-.152,7.475-.78,8.498-.466.585.179,6.618,5.299,7.603,6.193,2.606,2.363,9.576,9.375,11.191,12.083.575.964,1.484,3.617.873,4.593-.747,1.192-8.109,6.032-9.83,6.276-19.863-.967-41.198,1.456-60.888.074-7.315-.513-8.399-4.964-10.032-10.943-.157-.575.041-1.405-.26-2.301-.509-1.512-7.699-9.513-8.95-10.077-1.927-.87-3.712,2.82-7.729,2.022-1.526-.303-7.588-6.418-7.121-8.202.651-2.489,4.704-1.817-.08-7.008-6.366-6.907-15.768-15.009-22.973-21.276-8.225-7.154-16.862-13.857-25.598-20.375-.574-.36-.698-.849-.828-1.47-.379-1.806-1.401-10.591-.865-11.756.521-1.131,8.292-7.596,10.059-9.475,24.651-26.225,36.122-62.248,49.964-94.695,1.489-1.703,10.968-5.769,11.417-7.124,4.064-12.257-20.846-29.006-27.774-36.878-17.801,12.535-36.284,24.434-55.648,34.481-35.921,18.637-52.921,18.158-92.041,22.315-31.686,3.367-63.008,9.028-93.114,19.519-19.353,23.269-41.223,44.444-59.927,68.246.63,11.42,1.17,22.986,4.567,33.984l18.326-1.416c.661.278,1.208.707,1.736,1.18,3.735,3.345,9.889,10.557,11.467,15.253.448,1.333,1.848,5.936,1.088,6.838-.235.278-2.77.362-3.513.679-.555.237-.574.957-.854,1.095-2.628,1.289-10.767.448-14.271.559-11.422.362-27.126.998-38.339-.689-4.55-.685-4.721-4.48-5.024-8.482-.662-8.745,1.628-24.339-.011-31.78-.098-.444-.998-.456-1.307-1.116-1.233-2.627-6.548-20.636-6.068-22.431,25.589-29.635,47.582-62.426,66.569-96.677.728-.826,1.608-1.624,2.713-1.884,5.091-1.196,11.543-1.445,16.95-2.588,4.597-.972,9.735-2.259,14.247-3.568,67.491-19.579,107.624-80.603,148.825-132.75-7.775,1.126-15.54,2.647-23.344,3.659-86.589,11.228-168.205-8.2-225.455-76.65-5.215-6.235-16.683-21.059-18.585-28.534-1.056-4.151-.469-7.707,4.523-5.67,22.066,25.447,45.74,50.542,75.723,66.787,65.3,35.38,162.937,26.969,227.186-7.471,25.105-13.457,41.266-22.206,70.19-27.501,54.63-10.001,116.36-8.753,172.209-12.829,16.121-1.177,37.877-1.986,53.29-5.325,11.161-2.417,27.68-11.572,39.381-15.786,10.559-3.803,21.392-7.017,32.315-9.635,7.884-1.889,18.702-2.888,25.894-5.138,3.888-1.216,15.012-8.517,19.5-10.957,2.505-1.362,5.317-2.837,8.003-3.775.239-3.267-2.211-5.223.318-8.021,1.042-1.152,14.753-11.131,15.986-11.597,1.834-.693,3.29.152,4.166-.39,18.051-18.551,35.269-37.913,54.279-55.507-2.711-2.424-5.553-5.482-8.338-7.742-2.153-1.748-10.118-6.631-10.754-8.209-1.461-3.623.469-9.868-1.036-13.908.138-5.529,10.457-8.509,14.985-10.348,10.092-4.096,19.185-6.737,29.097-11.704,1.754-.879,3.087-2.409,4.756-3.289,1.058-.558,10.14-4.254,10.716-4.283,3.801-.195,9.674,10.576,10.984,10.934,2.283.624,5.225-.65,7.353-.631,7.025.061,17.705,3.151,23.52,2.88,3.932-.183,12.196-5.349,16.266-6.162,4.233-.846,9.081,4.581,11.628,7.657,2.632,3.179,4.504,8.072,6.665,10.574,1.412,1.635,6.251,3.734,8.565,5.802,1.624,1.452,2.734,3.391,4.041,4.578,1.729,1.57,6.253,3.891,7.106,5.536,1.941,3.744-.811,7.198-.477,10.774.278,2.975,3.191,7.581,2.967,11.155l48.547,16.681c3.912,1.861,7.72,4.631,5.273,9.51-7.897,8.772-19.67,33.237-30.069,37.793-1.348.591-2.254-.207-2.525-.031-.287.187-2.83,4.624-3.811,5.708-6.675,7.379-13.979,7.982-23.408,6.157-3.936-.762-8.184-2.891-12.231-3.284-5.983-.581-13.37.081-19.557.019-2.613-.026-4.971-.838-8.013-.588-5.878.485-11.726,5.14-16.989,7.719l-35.309,45.15ZM889.194,348.695v.575c.373-.192.373-.383,0-.575ZM986.025,283.192c-.989.994.373.969.815,1.193,1.43.727,3.312,1.269,4.771,2.118l16.246,1.85c.102-.843.02-1.378-.525-2.056-.905-1.125-10.635-3.869-12.548-4.112-1.667-.212-7.738-.019-8.76,1.008ZM903.276,217.68c-.036.926,1.62.966,2.295,1.143,4.797,1.256,9.809,1.923,14.361,4.022l-1.718-8.62c2.166.015,3.202,1.442,5.168,1.719-5.598-6.866-13.216,1.622-20.106,1.736ZM815.931,256.457l-14.372-23.268v12.93c0,1.524,6.014,4.19,7.431,5.211,1.855,1.338,3.462,3.107,5.206,4.563.46.384,1.162,1.516,1.735.564ZM816.213,257.325v.575c.373-.192.373-.383,0-.575ZM88.412,756.705c3.001,4.143,6.25,8.267,8.873,12.671.287.482,2.942,7.79,4.341,6.284,1.125-1.211-3.597-9.572-4.693-11.104-.947-1.326-7.129-8.934-8.521-7.85ZM76.883,757.601c2.002,6.777,6.42,12.978,6.932,20.361h12.068c.374-4.08-6.944-20.199-10.175-21.144-1.267-.371-8.578-.199-8.825.783ZM363.392,572.802c-6.946-8.517-21.937-18.088-26.729-27.576-1.119-1.342-1.704-2.185-1.975-2.708h0c-.147.315-.321.529-.514.684-.002.002-.004.003-.006.005-.047.037-.095.071-.144.102-.002.001-.004.003-.007.004-.377.233-.815.297-1.272.448-.014.005-.028.009-.043.014-.052.018-.104.037-.156.058-.021.008-.042.016-.063.025-.05.021-.099.044-.149.069-.021.01-.041.019-.062.03-.069.036-.139.075-.208.12,3.676-5.786-4.97,1.11-6.896,2.299,2.58-2.436-.343-7.051.036-8.272.437-1.406,3.529.058-.052-4.668-11.486-15.158-19.321-29.344-22.329-48.902-.172-1.115-.334-7.359-.646-7.686-.208-.218-5.177-.105-6.03-.007-12.275,1.422-31.579,29.504-39.362,39.078-14.892,18.319-29.704,36.524-47.114,52.589-4.272,4.496-14.127,11.719-19.286,15.893h-.001c-.071.058-.148.121-.229.187-.078.064-.156.127-.232.189-.019.015-.039.032-.058.048-.857.703-1.559,1.307-2.039,1.772l19.538.006c-4.583.294-17.789-.185-20.852.697-1.526.44-11.13,7.603-13.815,9.171-12.676,7.399-24.039,11.934-36.589,15.992l-32.755,6.896c-2.292,1.406-2.675,4.62-3.916,6.715-15.719,26.539-32.731,52.645-51.841,76.882-3.354,4.253-7.019,9.425-11.419,12.459,2,4.227,2.242,11.334,3.917,15.187.38.873.622,1.596,1.771,1.39v-16.952c0-.541,2.038-1.843,2.87-1.434-1.041,5.969-.399,12.075-.548,18.122-.334,13.575-1.583,27.692.042,41.285.14,1.17.599,3.571,1.649,4.097l33.911,1.424c-1.258-4.601-2.152-9.689-4.005-14.091-.466-1.108-2.164-3.058-2.241-3.538-.186-1.168,2.002-1.659,1.648-3.052-2.807-.06-5.336-1.039-8.225-.442-1.758.363-1.458,1.472-2.508,2.035-1.414.757-3.733,1.667-5.355,1.847,2.649-3.139,5.088-6.665,9.77-5.743-2.159-11.742-4.639-23.637-3.768-35.657,19.159-23.803,40.876-45.385,60.684-68.613,33.201-11.379,67.06-17.143,101.979-20.423,3.99-.375,8.627-.178,12.581-.649,2.3-.274,2.357-.761,3.792-2.229.135.913-1.419,1.655.295,1.742,2.925.15,10.605-.718,13.714-1.242,1.579-.266,2.982-.195,3.805-1.65-.23,1.86.547.965,1.63.773,15.049-2.674,30.227-9.414,43.767-16.288,14.673-7.449,30.505-16.481,44.092-25.729,3.766-2.563,7.897-6.424,11.435-8.679,2.359-1.504,4.098.297.51-4.102ZM444.798,809.754c-.165-.599-.538-2.516-1.244-2.482l1.712,5.166c.244-1.039-.225-1.796-.469-2.684ZM443.652,806.659l-1.38-4.688-.689.203,1.38,4.688.689-.203ZM454.468,790.036c4.088,4.865,10.459,10.207,13.791,15.51.887,1.412,2.053,5.56,2.305,5.745.228.167,4.999-2.076,5.165-2.305.79-1.088-3.361-4.919-4.022-5.738-4.067-5.046-8.175-9.391-13.235-13.519l-4.004.308ZM444.123,791.179c-.814.387-4.047,3.043-4.048,3.718,0,.54,4.115,7.744,4.752,9.709.495,1.53,1.558,10.134,3.031,10.134h18.389c.213,0,.865-.76,1.441-.58-1.243-5.344-3.528-9.349-6.673-13.726-1.257-1.749-6.333-8.338-7.698-9.255-1.566-1.052-7.442-.834-9.194,0ZM441.244,800.945c.413-.807-.364-1.533-.563-1.143-.413.807.364,1.533.563,1.143ZM440.388,798.65v.575c.373-.192.373-.383,0-.575ZM439.814,797.5v.575c.373-.192.373-.383,0-.575ZM430.906,791.754c.833.081,3.101.969,4.023,1.149,2.683.525,4.56,1.292,6.321-1.718-3.466.016-6.957-.267-10.344.569ZM710.361,558.328c.963-.426,2.96-.384,3.21-1.36.046-.18-.401-3.547-.521-3.69-.09-.107-1.271-.004-1.712-.007,2.104-.856.597-2.253.569-4.027-.745.519-1.606.382-2.293.579,2.937-.713,1.588-3.249,1.105-5.415-1.498-6.716-4.156-13.239-5.995-19.865-3.199-11.526-4.791-22.269-10.626-32.76-5.512-9.911-11.359-16.524-19.719-23.961-.473-.421-1.724-.35-2.117-.749-1.043-1.057-1.439-4.253-4.597-3.448-4.947-4.893-10.988-9.492-16.09-14.366-.926-.884-2.657-1.979-3.448-2.873-3.148-3.56-5.083-8.725-7.471-12.642-9.752-16-15.893-25.242-19.538-44.248-.175-.914-1.08-2.058-.577-3.449-.877-.325-1.787.531-2.296.575-25.39,2.235-51.194,5.382-77.004,6.321-.382.014-.767-.005-1.149,0-.573.007-1.153-.031-1.724,0-.629.034-1.444-.182-1.724.575-.377-.031-.769.007-1.149,0-13.148-.249-27.329,1.537-40.519,2.293-45.346,2.596-96.356,2.509-138.773,19.544-4.816,1.934-9.875,4.291-14.366,6.896-10.276,4.705-19.548,10.988-30.068,15.617-23.402,10.296-54.339,18.877-79.691,22.31-10.959,1.484-22.271,1.993-33.33,2.299-.764.021-1.534,0-2.299,0h-7.471c-5.559-.908-11.35-.521-16.949-1.152-55.462-6.254-92.413-26.12-130.762-65.785-6.599-6.826-12.697-14.87-19.22-21.565-2.062-2.117-5.046-4.394-4.279.253,1.58,9.579,21.208,32.407,28.401,39.986,34.786,36.649,76.4,57.366,126.514,64.846,12.108,1.807,28.426,3.826,40.431,2.381.596.964,1.556,1.077,2.573,1.161,10.1.837,26.845-1.203,37.284-2.392,16.781-1.912,33.381-6.157,50.366-5.662.338-7.807,3.34-15.324,7.469-21.84-.574,3.993-2.751,7.442-3.859,11.369-6.718,23.81,5.323,49.388,19.366,68.075,1.422,1.893,4.953,6.688,6.341,8.161.534.566,1.552.607,2.288,1.466.264.089,3.658,4.002,4.048,4.271,7.892,5.43,20.541,21.038,28.405,28.5,10.183,9.663,23.954,23.177,35.931,29.867,2.288,1.278,5.144,2.998,3.489,6.07l-21.303,12.893c-7.534,13.723-12.161,30.357-18.389,44.823-1.614,1.515-1.867,2.115-2.873,4.023-8.756,16.599-16.469,31.573-29.587,45.406-1.718,1.812-8.022,6.691-8.641,8.056-.574,1.267.243,3.053.3,4.578,1.952.891,4.127,2.863,5.754,4.302,13.232,11.701,25.932,24.132,37.919,37.073,1.803,1.946,9.243,8.462,9.694,10.174.744,2.824-4.68,4.051-2.832,6.804.381.568,3.971,4.02,4.464,4.171,3.794,1.156,4.421-2.774,6.191-2.766,1.803.008,10.988,9.615,12.031,11.546,1.886,3.49.499,11.109,5.933,12.456,1.44.357,6.052.636,7.882.738,9.687.538,19.881-.447,29.62-.026-1.346-6.352-3.472-13.36-6.897-18.961-.219-.358-.343-.819-.575-1.149h-14.941c-.038.164,0,.392,0,.575-5.892,4.478-2.741-.774-.038-3.238-7.076-9.881-15.052-19.458-22.269-29.335-10.951-14.989-28.73-32.124-11.613-49.905,22.382-21.005,44.959-41.816,67.25-62.91,1.392-1.317,2.664-2.725,4.023-4.023,1.592-1.52,3.296-2.673,5.172-4.597,1.354-1.389,2.851-2.184,4.023-4.023,1.786-.372,2.426-1.912,3.448-2.873,5.919-5.565,12.929-11.828,18.06-17.857,1.148-1.349,7.399-9.71,7.66-10.729.373-1.461.221-4.024.163-5.631-.26-7.158-2.147-14.521-3.471-21.525-.928-4.907-1.69-8.913-2.873-13.792-1.812-7.47-4.287-14.605-6.321-21.837-7.431-26.42-14.503-50.915-25.016-76.411-4.353-10.556-11.503-22.868-14.061-33.348,3.839,7.933,8.39,15.546,12.068,23.561,3.66,7.978,6.385,17.433,10.231,25.111,1.639,3.272,4.908,7.227,6.657,10.582,2.288,4.388,2.092,8.309,7.286,11.103,4.303,2.315,21.737,4.476,28.244,6.236,60.336,16.314,113.306,63.71,178.019,55.578,10.94-1.375,13.432-2.702,23.158-7.011ZM788.049,741.77c1.966,3.59,4.659,7.125,7.758,9.757-1.27-3.854-4.566-7.387-7.758-9.757ZM787.48,741.184c.373-.192.373-.383,0-.575v.575ZM786.33,740.035c.373-.192.373-.383,0-.575v.575ZM784.888,738.882c.413-.807-.364-1.533-.563-1.143-.413.807.364,1.533.563,1.143ZM768.858,738.528c.055.372,2.93,4.13,3.492,5.144,1.159,2.09,5.298,9.866,5.477,11.668.074.745-.732,2.728-.4,3.082.442.471,11.008-1.732,12.848-1.225,3.018-.965-1.72-10.109-2.842-11.943-1.118-1.828-6.349-8.906-8.01-9.226-1.539-.297-10.888.298-10.565,2.5ZM748.059,594.458l-32.75-14.984c-.89-1.147.274-11.064.044-13.839-.68-8.2-1.326-4.86-5.622-3.339-1.655.586-8.764,1.865-9.271,3.413-.289.883.525,2.693.56,3.917.38,13.271-.071,26.753-.601,39.962-1.13,28.176-3.086,56.526-8.634,84.159,5.455,8.723,11.73,16.938,17.254,25.6,1.741,2.73,3.719,5.377,5.274,8.23.471.865,1.98,5.366,2.225,5.536,2.027,1.404,3.111-4.196,5.608-2.726.514.302,5.389,8.811,6.177,10.193.471.825.658,2.421.962,2.765,1.131,1.281,6.858,1.789,7.332,2.732.727,1.446-3.631.569-3.877,2.269-.195,1.348,4.141,8.583,5.619,9.204,4.913-.039,32.734,2.248,35.075.622.584-.406.576-1.108.575-1.739-.001-2.189-8.326-19.051-9.624-19.312-2.581,1.317-9.351-.171-11.104.895-1.943,1.181-5.456,15.054-9.359,14.025-1.09-.287-5.301-5.364-4.422-6.257,1.034-1.052,3.757,3.33,5.165,2.618,2.461-1.245,4.726-9.301,6.801-11.533-7.778-9.043-14.831-19.445-21.164-29.589-2.48-3.973-9.273-13.825-9.211-18.072,2.884-14.063,6.207-28.054,9.831-41.934.864-3.31,4.595-12.931,4.552-15.273l12.585-37.542ZM927.973,696.075c-4.323-6.394-7.644-13.388-11.596-20.003-1.838-3.078-5.144-5.718-5.063-9.594-2.186.865-5.13.609-3.748,3.464l15.291,28.676c.967.693,4.243-1.761,5.116-2.543ZM927.453,701.42c-.135.094.043.623-.054.681-.467.28-1.104-1.445-1.702-.862.929.448,1.371,4.287,2.565,3.736,1.155-.533,1.913-5.46-.808-3.555ZM952.161,731.669c-.31-.408-7.632-6.065-8.099-6.275-.611-.276-2.589-.54-2.859-.297-1.011.91,3.195,3.935,3.13,5.197,1.315.842,5.845,6.867,7.198,5.712.28-.239,1.334-3.41.63-4.337ZM966.619,704.989c-.81-.389-1.569-1.136-1.289.282.984,4.995,4.294,10.485,5.117,16.148.318,2.191.559,6.202.659,8.536.063,1.468.329,13.019-.91,12.972-3.05-.982-7.079-4.136-10.246-4.031-.448.015-.75.517-.935.565-.393.103-1.114-.267-1.572.152-.282.258-.091.955-.152.997-.33.231-2.149-.208-2.298,1.143,5.705,1.392,10.141,6.375,15.468,8.387,1.385.523,1.816-.025.622-.91l-13.792-8.62c.364.048.881-.091,1.149,0,1.418.48,4.065,2.18,5.058,3.399l9.308,4.647c.366-.052.775.035,1.149,0l.289-.566c.156.157.18.526.285.566,3.8,1.427,6.494,4.354,10.338,5.746.477-8.567-1.549-16.947-2.296-25.436l-5.163-3.871c.992,7.427,4.377,17.641,3.443,25.008-.101.795-.339,1.703-1.144.852-.528-.558-.974-9.896-1.229-11.708-.349-2.483-1.332-10.944-2.214-12.587-.462-.859-3.978-1.249-4.605-3.005.521-.402,6.031-.235,5.738-1.14l-10.778-17.525ZM966.482,703.829c1.086-1.215-2.817-4.162-3.738-4.582-.624,1.268,2.985,5.425,3.738,4.582ZM857.872,395.819c-5.436,1.154,1.3,6.77-3.008,8.769-5.518,2.56-15.744-1.694-20.938-4.073-11.196-5.127-19.385-12.185-28.919-19.639-2.611-2.9-5.231-6.229-8.62-8.045-7.547-9.875-15.638-19.184-22.412-29.882-3.588-5.667-8.209-12.455-10.918-18.389-.239-.524-.075-2.592-.582-3.446-.176-.135-1.296.692-1.651.927-1.874,1.241-13.213,9.302-13.897,10.235-1.268,1.729-.127,2.512.039,3.778.47,3.585.637,1.992,1.319,3.587,5.859,13.702,14.012,22.196,21.093,34.34-1.373-1.302-1.207-1.095-2.512-2.667-7.648-9.214-15.095-19.662-19.469-31.082-1.982-1.56-2.058.027-2.729.419-7.448,4.343-17.783,11.039-25.285,14.366-1.648.731-6.558,1.826-8.62,2.299-20.95,4.798-36.458,8.313-55.489,15.238-2.005.681-3.78,1.339-5.152,1.928-1.038.398-2.083.803-3.146,1.223-6.288,2.484-11.682,4.645-17.814,7.471-3.104,1.43-6.878.754-6.321,5.172.011.088.028.18.04.269,1.453,10.49,11.496,28.165,16.625,37.658,1.174,2.172,2.245,4.779,3.448,6.896,1.877,3.302,3.585,6.066,5.747,9.194.261.378-.623,1.029,1.149,1.149-.061.358.096.864,0,1.149l9.769,8.045c9.749,9.121,20.753,16.982,30.465,26.139,1.638,1.545,8.12,7.605,8.75,9.061,1.092,2.525-.511,5.028,0,8.051.423,2.499,2.368,6.641,3.146,9.494,3.44,12.615,7.13,25.267,10.344,37.928,2.953,11.632,5.939,22.58,4.738,34.793,5.76,2.205,12.607,6.896,18.412,8.43.129.034.227.4.445.428.432.055.567-.391.705-.428.313-.084.786.057,1.149,0-.031.092-.04.496,0,.575.383.759.714.357,1.149.575,14.514,7.262,30.277,12.208,45.419,17.986,1.339.511,2.674,1.026,4.002,1.552,5.576,2.21,11.087,4.933,16.683,7.165,31.872,12.713,64.047,24.728,95.092,39.378.911-3.236-4.063-5.929-6.038-8.041-.05-.627-.612-1.266-.294-1.711,3.301,1.679,6.993,3.707,10.063,5.734,4.716,3.113,7.563,7.635,8.62,13.217,1.005,5.311,3.728,7.487,6.262,11.968,4.389,7.76,8.173,16.145,13.276,23.086,1.282,1.744,4.798,5.516,5.475,6.88,1.682,3.384,2.249,15.128,3.406,16.707.466.636,3.235.801,4.336,1.124,1.194,1.138,8.222,4.167,9.192,3.446.028-.38-.014-.765.002-1.147.138-3.306-.602-6.157,0-9.194.261-1.316-.584-2.493,1.444-2.887,2.961-.576,2.662.424,3.154,2.312.164.631.575.857.462,1.855-.313,2.769-2.05,10.084-3.336,12.512-.508.96-2.13,1.452-2.299,2.868,1.656-.13,3.085.487,4.51,1.142.645.369,1.426.696,2.345.981.203.067.408.129.616.181.391.212.755.379,1.149.575.874.433,5.384,2.558,5.739,2.303.138-.099.641-2.611.634-3.162-.123-10.144-.771-21.902-6.121-30.712-.993-1.635-2.818-1.677-2.555-4.289.11-1.088,1.234-2.18,1.154-3.217-.109-1.413-6.54-11.43-7.77-13.779-6.979-13.333-13.166-27.035-20.388-40.238-.72-1.316-1.214-2.819-2.299-4.023-.297-.108-.708-.399-1.149-.575-11.267-4.499-22.751-9.581-33.33-15.516-26.751-15.008-54.053-34.879-78.91-52.973-12.502-9.101-28.928-24.397-42.526-30.453-1.021-.455-3.702-.909-3.839-1.053-.882-.929,1.491-1.603,2.036-2.258,10.426-12.509,10.794-35.687,10.032-51.18-.305-6.207-2.104-14.836-1.724-20.688.155-2.384.261-2.586,2.299-4.023.185.035.39-.036.575,0-.632-3.631-.702-7.307-1.417-10.938-1.188-6.041-3.184-12.44-4.904-18.369-1.916-6.601-5.558-13.026-5.741-20.11.669-.129.778.67,1.143,1.147,2.505,7.087,5.169,14.098,7.471,21.262,2.691,8.375,4.209,14.308,5.747,22.986.318,1.795.347,3.479.575,5.172.046.34.534.824.575,1.149.016.128.237.277.4.4l.175.175c.157,1.032-.071,2.34,0,3.448.005.084-.028.241,0,.575,1.042,12.381,1.004,23.925-1.532,36.108-1.908,9.168-7.203,21.878-8.101,30.421-.188,1.787-.329,3.777,1.582,4.728.1-1.588-.174-3.253.056-4.834.614-4.22,12.089-18.099,15.482-21.87.938-1.043,1.91-2.435,3.431-2.603-4.598,5.589-9.889,12.774-13.315,19.153-.902,1.68-3.348,5.381-2.197,6.986l1.154.017,19.531-31.327c7.545-8.024,10.633-15.485,13.077-26.287,2.128-9.405,2.982-19.311,4.157-28.88-2.465,3.166-4.542,7.564-6.234,11.287-5.158,11.346-6.628,22.743-11.574,33.536-2.262.242-4.47,3.881-7.304,1.547-3.641-2.999.208-8.929,1.15-12.01.982-3.211.716-6.891,3.279-9.36,3.193-3.075,5.234.669,6.602-.846l12.934-27.598c-1.172-.148-1.877.978-2.589,1.715-5.39,5.582-10.144,14.163-15.501,19.553-.671.675-2.051,2.204-2.014.288l33.32-41.681c.452-1.024-3.788-1.726-4.57-2.026-8.1-3.103-16.093-6.583-22.73-12.327-1.421-.295-.809,1.441-.854,2.294-.319,6.072-1.524,12.301-2.299,18.389h-1.149c.489-7.176,1.209-14.628,0-21.837-.136-.814.338-1.867-.584-2.57-4.643-3.565-9.327-7.14-13.79-10.926-3.184-2.702-6.324-6.297-9.488-8.9-.969-.797-2.522-2.598-3.146-.59-.291-1.041-2.192-4.307-2.873-5.172.693-2.67-1.757-3.676-2.558-5.224-.329-.635-.213-1.496-.315-1.672,6.818,6.467,12.494,14.131,19.53,20.408,10.838,9.669,34.422,26.529,48.728,28.277,7.264.888,7.171.065,11.283-5.06,2.152-2.683,9.239-12.551,9.974-15.324.689-2.596-1.184-3.948-1.021-6.462ZM806.674,475.491c-.407-1.239-2.517-1.164-3.567-.839-1.088.337-1.81,1.954-2.238,2.937-.736,1.696-3.635,10.267-3.805,11.763-.292,2.58,1.311,4.598,3.926,3.298,2.44-1.213,6.435-14.876,5.684-17.16ZM786.604,496.953c1.391-1.127.322-30.318.013-34.479-1.459-.032-3.3-.386-3.477,1.455l1.756,33.03c.472-.078,1.545.126,1.708-.006ZM865.118,380.36c5.442-7.16,19.776-22.426,22.902-29.392.221-.492.729-1.479.017-1.707-5.54,1.603-12.007,4.588-17.796,4.622-.661.004-2.167.383-2.018-.584l36.769-14.381c-1.367-1.888-5.09-.861-6.892-2.291,3.129-.061,4.483-.306,8.045,0,.883.076,1.067-.005,1.149,0,4.233.278,8.317.907,12.642.575,6.838,1.714,13.801-.707,20.688.575,8.605,1.542,16.515,5.767,25.274,2.575,5.236-1.908,12.165-8.938,13.089-14.493.752-4.518.26-3.461-3.309-3.598-3.255-.125-5.968.527-8.883.598-15.347.378-29.618-1.173-44.889-5.154-2.593-.781-2.635-3.522.056-4.046,2.819-.549,11.665,3.608,14.78,4.619,4.283,1.39,7.986,1.884,14.226,2.258.303.018.428-.005.575,0,1.135.035,2.315.051,3.448,0h.146c.318.015.528.116,1.578,0,1.337-.148,3.384-.327,4.597-.575,5.6,1.353,11.372-.512,17.24,0,6.372.556,2.064,5.543,2.876,6.318,1.582,1.51,5.474-3.347,6.304-4.323,1.607-1.888,9.356-12.622,9.246-14.313-.024-.361-4.942-3.457-5.784-4.347-.107-.114-.456-.956-1.149-1.724-2.696-2.987-8.145-9.654-8.577-13.562-.441-3.98,2.072-4.918,5.13-6.551.83-.443,2.307-.235,2.295-1.143l-33.901-11.499c1.614-3.767-2.737-12.088-4.023-16.09l-.575-2.299c-.086-.336.096-.845,0-1.149-.15-.475.258-1.322-.575-1.724l.285-1.721,1.439,2.296c.074,0,.822.857,1.14.579,2.112-1.844-.94-4.3-2.87-4.917-.672-.215-1.602.321-1.669.269-.098-.075-.413-1.586-.933-2.227-6.806-8.386-16.006-12.684-25.972-16.556-16.141-6.271-35.151-9.828-52.446-8.18-.991-.881-2.029-3.352-3.153-4.604-1.625-1.81-3.601-3.605-5.467-5.165-.339-.284-.329-1.269-1.329-1.087-.968.176-2.243,2.007-2.694,2.237-.084.043-.405.018-.575,0-3.158-.325-5.25,1.304-8.045,2.873-.02,0-.043.016-.069.038-1.405.785-2.544,1.316-3.953,2.26-3.87,1.483-8.832,4.021-11.512,7.186-.423.5-.385,1.191-.556,1.434-1.949,2.779-3.109,4.122-3.382,7.836-.229,3.112.947,5.334.799,8.252-3.728-5.464-5.425-11.476-.29-16.662.155-.06,4.237-2.33,2.033-2.281-4.46,1.73-9.074,3.107-13.517,4.875-1.68.669-3.254,1.986-4.606,2.577-1.793.784-10.181,2.324-9.769,5.172,11.608,12.323,16.493,30.647,26.77,43.626,14.627,18.472,26.164,3.642,27.276-14.003.794-12.596-.603-26.984-.602-39.966.167-3.995,1.035-7.812,2.299-11.493,2.654.499,10.007,9.185,9.816,11.196-.124,1.307-1.446,1.291-1.999,2.08-2.677,3.825-5.057,7.975-7.695,11.84.589,10.474.775,20.779.453,31.201-1.664-.342-1.048.822-1.311,1.82-2.304,8.744-6.657,19.802-17.647,17.719.812,2.388,1.053,5.679,2.868,7.47,5.065,15.89,17.875,25.787,33.905,29.307-.456-.016-2.334.785-4.264.523-1.474-.2-8.631-3.164-8.95-2.819-.8.864,5.712,8.921,6.888,10.062.231.717-.143,1.152-.849.849-.497-.213-3.624-3.541-4.333-4.29-7.66-8.09-19.152-20.232-24.051-29.966-1.609-3.197-2.639-8.004-4.168-10.773-1.598-2.895-9.392-9.83-12.355-14.08-.695-.997-3.409-6.142-3.726-6.327-.585-.342-1.483.014-1.975.477-6.701,6.614-13.221,13.411-19.795,20.141-8.312,8.509-16.278,17.298-24.729,25.556l-9.175,10.648c8.535,18.92,21.027,36.996,36.203,51.144-.059.853.415.863.575,1.149,1.053,1.893,7.957,7.447,10.071,9.18,3.189,2.615,6.624,5.188,10.042,7.485.603.405,1.091.747,1.724,1.149,4.99,3.174,14.404,6.105,17.24,8.045.052.035-.306.717.349,1.2.355.262,4.721,1.548,5.275,1.572,1.428.062,1.54-.452,2.442-1.32,4.684-4.509,11.372-16.199,15.842-22.081ZM904.997,259.623c-3.445-2.608-6.683-5.598-9.769-8.62,4.518-1.864,8.815-5.274,13.763-6.063,3.83-.611,6.803.529,10.373-.258.207,1.165,4.672,7.459,3.448,9.194-.109.154-2.119-.495-.894,2.911.734,2.041,4.418,2.789,4.342,5.709-.929-1.414-1.364-1.317-2.873-1.724-6.427-1.731-12.055,2.414-18.389-1.149ZM908.448,249.276c.018.017.05.033.096.047.091.029.233.053.411.069.178.016.391.023.623.02.232-.004.484-.018.738-.047.127-.014.255-.032.382-.054.253-.044.502-.103.729-.18.455-.155.824-.385.98-.712.078-.164.102-.352.057-.567-.457-2.186-5.747-.212-4.017,1.425ZM908.989,258.223c3.479.708,10.034-1.734,8.865-5.944-.306-1.101-1.086-2.543-2.437-1.767-.51.293-2.264,4.217-4.419,4.534-3.821.562-4.134-6.132-7.719-4.341-3.733,1.865,2.922,6.951,5.711,7.518ZM800.128,468.223c.191-.292.465-.304,0-.563-1.294.872-.712,1.651,0,.563ZM790.362,513.055c2.682-2.784,13.895-14.962,14.512-17.671.375-1.647.639-2.627-1.017-2.45-4.044,8.825-9.167,11.409-14.358,18.684-1.697,2.378-1.468,3.856.863,1.437ZM361.066,696.341l-17.251,22.972c-1.411,4.337,3.462,10.93,5.193,14.983.982,2.298.405,5.079,3.972,2.805,3.799-2.422-1.281-8.753-1.812-11.854-.277-1.618-.285-3.168.132-4.768,1.71-6.558,9.558-15.603,11.921-22.554.212-.624.786-2.351.446-2.709-.398-.419-2.269.378-2.603,1.127ZM710.763,553.272c-.49.055-.968.01-1.149.575.47-.087.972.003,1.149-.575ZM708.145,441.199c0,4.083-3.31,7.393-7.393,7.393s-7.393-3.31-7.393-7.393,3.31-7.393,7.393-7.393,7.393,3.31,7.393,7.393ZM699.113,436.73c-5.299,1.158-3.969,10.286,2.605,8.982,4.417-.876,4.274-10.485-2.605-8.982ZM897.077,633.31c1.078.367,3.538,1.428,4.472.414-1.612-.755-2.701-1.529-4.597-2.299-2.731-1.109-5.579-1.833-8.339-2.861,1.436,2.205,5.905,3.873,8.465,4.745Z" fill="#091328"/>
  <path d="M786.618,455.581c-1.538-8.678-3.056-14.611-5.747-22.986-2.302-7.164-4.965-14.175-7.471-21.262,2.288,2.983,4.92,10.539,6.321,14.366,2.25,6.149,4.692,13.041,6.154,19.418.729,3.18,2.187,7.396.742,10.464ZM756.654,406.749c-.422-.379-.847-.795-1.276-1.24-2.816-2.919-5.759-7.004-8.395-8.87-.659-.467-1.653-.75-1.74-.822.146.179.191,1.169.575,1.724,2.117,3.066,7.683,6.602,10.837,9.209ZM745.243,395.816c-3.611-4.413-6.73-7.086-10.755-11.085-.733-.728-.379-2.552-2.462-2.707.972,1.37,2.104,3.418,3.143,4.616,2.978,3.434,6.769,6.412,10.074,9.175ZM710.763,357.315c-20.95,4.798-36.458,8.313-55.489,15.238-1.686.614-3.404,1.257-5.152,1.928-1.038.398-2.083.803-3.146,1.223v1.149l.575.575c-.1-1.519.881-1.435,1.833-1.904,7.002-3.455,16.225-6.004,23.814-7.791l47.62-.071c.734-.085-.246-.806-.285-1.152-5.234-1.036-6.88-5.453-9.769-9.194ZM797.536,598.67c-5.223-1.972-10.335-4.241-15.516-6.321l-35.054-15.516c5.685,4.618,26.576,12.319,34.479,15.516h.288c-.103.017-.206.033-.288,0,4.958,2.8,10.585,5.516,16.09,6.896.063-.175-.068-.419,0-.575ZM763.057,414.205c-3.994-4.21-12.86-10.223-17.814-14.366-.6-.502-3.459-1.805-4.023-2.299-2.72,3.234-6.697,5.943-1.682,9.44,2.365,1.649,3.676,1,5.717,1.754,7.42,2.742,14.218,11.07,20.966,15.237.753-2.991-1.102-7.591-3.164-9.765ZM744.668,340.65c-7.448,4.343-17.783,11.039-25.285,14.366v.575l25.285-13.217c-.137-.411.093-1.211,0-1.724ZM420.563,794.627c-.038.164,0,.392,0,.575,0,.247-.064,1.102-.004,1.148,1.054.806,13.124-1.336,15.52-.573-.219-.358-.343-.819-.575-1.149h-14.941ZM905.571,218.823c3.292-1.094,9.414-4.62,12.642-4.597,2.166.015,3.202,1.442,5.168,1.719-5.598-6.866-13.216,1.622-20.106,1.736-.036.926,1.62.966,2.295,1.143ZM430.906,791.754c.833.081,3.101.969,4.023,1.149,2.683.525,4.56,1.292,6.321-1.718-3.466.016-6.957-.267-10.344.569ZM458.472,789.728l-4.004.308c4.088,4.865,10.459,10.207,13.791,15.509-.459-1.96,2.381-.867,3.448-2.299-4.067-5.046-8.175-9.391-13.235-13.519ZM541.24,392.943c-.382.014-.767-.005-1.149,0-.573.007-1.153-.031-1.724,0-.629.034-1.444-.182-1.724.575-.377-.031-.769.007-1.149,0-13.148-.249-27.329,1.537-40.519,2.293-45.346,2.596-96.356,2.509-138.773,19.544-4.816,1.934-9.875,4.291-14.366,6.896,4.312-1.974,9.554-3.436,13.792-5.747.253-.138.458-.303.575-.575,7.834-2.321,15.511-5.252,23.437-7.307,17.557-4.552,35.527-6.076,53.567-7.634,32.688-2.823,69.48-6.051,102.289-5.747,14.296.133,30.771,1.251,45.105,2.305,13.533.994,26.983,3.098,40.52,4.014l-2.874-14.938c-25.39,2.235-51.194,5.382-77.004,6.321ZM444.123,791.179c2.45.971,6.865.957,9.194,0-1.566-1.052-7.442-.834-9.194,0ZM939.197,240.08c2.481.297-1.851-5.048.559-4.013,2.62,1.126,7.054,9.602,10.064,11.488l.285-1.721,1.439,2.296c.074,0,.823.857,1.14.579,2.112-1.844-.94-4.3-2.87-4.917-.672-.215-1.602.321-1.669.269-.098-.075-.413-1.586-.933-2.227-6.805-8.386-16.006-12.684-25.972-16.556-16.141-6.271-35.151-9.828-52.446-8.18,1.34,1.192,8.689.41,11.2.581,16.24,1.102,36.783,6.134,51.254,13.682,4.263,2.224,5.57,4.737,7.949,8.719ZM945.223,722.795c1.194,1.138,8.221,4.167,9.192,3.446.028-.38-.014-.765.002-1.147-3.191-.013-6.164-1.411-9.194-2.299ZM799.26,286.632c-8.312,8.509-16.278,17.298-24.729,25.556l-9.175,10.648c3.129-2.134,5.235-5.346,7.761-8.042,6.413-6.844,13.332-13.591,19.801-20.4.798-.84,5.699-5.951,6.342-6.038-.03-.572.02-1.151,0-1.724ZM918.729,674.999c4.389,7.76,8.173,16.145,13.276,23.086l-19.538-35.054c1.005,5.311,3.728,7.487,6.262,11.968ZM960.159,699.578c.11-1.088,1.234-2.18,1.154-3.217-.109-1.413-6.54-11.43-7.77-13.779-6.979-13.333-13.166-27.035-20.388-40.238-5.046-.435-4.887,2.119-4.597,6.321,7.931,14.48,14.149,30.212,22.501,44.446,3.944,6.722,11.92,11.744,14.869,19.963.71,1.979,1.132,4.142,1.132,6.56v16.378c-1.615.147-3.068-.045-4.316-1.137l-.281.562c.874.433,5.384,2.558,5.739,2.303.138-.099.641-2.611.634-3.162-.123-10.144-.771-21.902-6.121-30.712-.993-1.635-2.818-1.677-2.555-4.289ZM956.014,729.934c.021-.048.044-.097.069-.145-.562.896-2.078,1.403-2.241,2.769,1.656-.13,3.085.487,4.51,1.142.771.354,1.541.717,2.345.981.203.067.408.129.616.181-1.547-.837-6.179-2.863-5.299-4.928ZM954.992,268.818c-.042.098-.713.086-.575.565,10.541,4.428,21.772,7.205,32.181,12.078.83-.443,2.307-.235,2.295-1.143l-33.901-11.499ZM929.707,637.746c-11.267-4.499-22.751-9.581-33.33-15.516-1.725,2.938.195,6.256.575,9.194,1.896.77,2.985,1.543,4.597,2.299,6.699,3.138,17.023,7.457,22.986,10.918l5.172-6.896ZM956.084,729.789c.02-.032.04-.065.057-.099-.021.033-.04.066-.057.099ZM830.6,219.415c-4.46,1.73-9.074,3.107-13.517,4.875-1.68.669-3.254,1.986-4.606,2.577-1.793.784-10.181,2.324-9.769,5.172,1.555-.804,3.112-1.6,4.688-2.371.403-.197.474-.812.944-1.02.633-.28,4.013-1.311,4.712-.631-.239.515-2.277,5.558-.295,4.592.939-.458,1.537-3.004,2.348-3.976,2.778-3.334,9.679-5.467,13.463-6.937.155-.06,4.237-2.33,2.033-2.281ZM831.997,220.837c-.423.5-.385,1.191-.556,1.434l.567,2.294c1.837-4.849,6.722-7.014,10.668-9.763.458-.319.667-1.039.833-1.151-3.87,1.483-8.832,4.021-11.512,7.186ZM905.006,243.255c1.313-.569,6.624-1.782,6.887-2.027,2.24-2.082-6.073-.592-6.345-.806-1.267-.995-.869-6.974-1.129-7.236-1.815-1.83-7.92,6.754-9.494,8.033-1.279,1.04-10.687,5.173-8.891,6.907.499.482,8.955-.48,10.368-.833,3.115-.779,5.695-2.779,8.603-4.039ZM803.861,325.706c-.517.486-1.628,12.362-1.722,14.087-.571,10.445.085,21.69.035,32.243-.005,1.065-.605,1.785-.616,1.944-.059.853.415.863.575,1.149,1.446.312,1.514-1.073,1.666-2.052,1.817-11.723,3.147-31.349,2.38-43.079-.078-1.187-.543-5.96-2.318-4.292ZM858.845,206.242c-.968.176-2.243,2.007-2.694,2.236,1.335,1.987-.328,4.083-.514,6.095-.22,2.382.32,4.506.473,6.293.013.276.019.551.041.829.167-3.995,1.035-7.812,2.299-11.493.345-1.004-.615-2.951,1.724-2.873-.339-.284-.329-1.269-1.329-1.087ZM847.531,211.352c-.019,0-.043.016-.069.038-.689.599-3.498,8.615-1.089,6.281.446-.432,1.557-4.326,3.161-5.753,1.664-1.481,4.451-1.775,6.042-3.44-3.158-.325-5.25,1.304-8.045,2.873Z" fill="#3fddfb"/>
  <metadata>
    <sfw xmlns="http://ns.adobe.com/SaveForWeb/1.0/">
      <slices/>
      <sliceSourceBounds x="12" y="-820.13" width="1000" height="616.25" bottomLeftOrigin="true"/>
    </sfw>
  </metadata>
</svg>