<?xml version="1.0" encoding="UTF-8"?>
<svg id="Layer_1" xmlns="http://www.w3.org/2000/svg" baseProfile="tiny" version="1.2" viewBox="0 0 2048 2048">
  <!-- Generator: Adobe Illustrator 29.0.0, SVG Export Plug-In . SVG Version: 2.1.0 Build 186)  -->
  <path d="M5398.753,5064.065c74.322-2.949,392.409,20.244,435.153,66.639,37.4,40.595-52.164,55.137-79.785,62.246-180.881,46.553-395.098,49.832-581.761,57.723-380.485,16.081-811.284,21.414-1189.108-27.87-150.494-19.63-442.124-76.386-87.371-138.393,149.556-26.142,312.19-35.301,463.71-38.107,12.297,41.332,65.873,124.402,111.447,132.801,140.544,25.901,341.169-25.075,487.757,9.838,109.293-24.96,257.753,10.783,360.525-22.232,30.457-9.785,79.387-70.44,79.432-102.643ZM456.25,5961.05c-11.545,18.426-125.338,93.232-151.937,96.995-307.004-14.939-636.74,22.507-941.062,1.146-113.063-7.936-129.82-76.717-155.057-169.126-175.739,5.811-361.157,10.9-533.207,48.546-197.13,43.131-176.191,82.142,7.343,117.609,415.75,80.343,931.945,60.062,1355.939,46.64,233.86-7.403,486.523-6.546,715.649-57.061,29.561-6.517,165.487-32.403,137.792-76.194-26.558-41.993-383.942-85.067-448.956-79.54,8.887,14.903,22.942,55.91,13.497,70.984ZM8455.896,5821.623c-320.187-58.004-790.221-52.238-1116.391-29.162-50.873,3.6-378.484,37.31-395.282,62.234-25.416,37.706,83.624,55.825,104.565,59.541,351.896,62.439,917.895,55.75,1276.417,20.163,84.585-8.396,401.883-63.647,130.691-112.776ZM-5340.203,5453.964c-3.628,4.304-42.809,5.588-54.296,10.497-8.583,3.669-8.871,14.793-13.207,16.92-40.617,19.92-166.414,6.926-220.565,8.641-176.538,5.594-419.254,15.428-592.554-10.642-70.321-10.58-72.965-69.248-77.649-131.099-123.867,11.124-279.679,13.221-397.896,50.631-188.644,59.695,96.127,107.41,155.117,116.654,409.073,64.102,1230.581,68.82,1630.135-27.811,27.806-6.725,134.949-28.871,109.644-68.817-27.981-44.174-481.128-77.801-555.538-70.657,6.923,20.604,28.56,91.74,16.809,105.683ZM5496.452-673.527c-40.354-44.821-80.844-96.275-133.226-124.344,59.221,77.49,61.376,68.16,133.226,124.344Z" fill="#b1d6ef"/>
  <path d="M-147.882,5774.603v-8.881c5.767,2.959,5.767,5.92,0,8.881ZM-109.882,5834.815l-10.644,3.131,21.324,72.463,10.643-3.131-21.324-72.463ZM-90.065,5916.758l26.467,79.845c3.768-16.062-3.471-27.762-7.244-41.49-2.544-9.254-8.322-38.881-19.223-38.354ZM-134.469,5801.294c-6.382,12.474,5.618,23.698,8.701,17.672,6.382-12.475-5.618-23.698-8.701-17.672ZM-1742.151,1866.645c-17.291-20.749-26.331-33.768-30.522-41.852h0c-2.276,4.868-4.96,8.186-7.946,10.567-.032.026-.064.053-.096.078-.726.573-1.471,1.096-2.231,1.57-.034.021-.068.041-.102.063-5.826,3.586-12.589,4.597-19.655,6.931-.219.073-.438.146-.658.222-.797.273-1.601.577-2.404.893-.323.128-.646.253-.97.388-.766.322-1.535.685-2.303,1.06-.318.156-.636.295-.954.461-1.07.556-2.141,1.163-3.211,1.855-179.223,115.834-345.589,221.872-541.785,310.86-431.033,195.502-911.595,315.947-1385.549,346.387-70.834,4.549-274.946-2.865-322.289,10.775-23.582,6.796-172.026,117.516-213.527,141.741-195.911,114.361-371.533,184.447-565.517,247.162l-506.258,106.581c-35.422,21.737-41.346,71.399-60.528,103.783-242.945,410.175-505.875,813.662-801.244,1188.262-51.834,65.737-108.487,145.675-176.483,192.56,30.918,65.329,34.651,175.173,60.543,234.73,5.869,13.5,9.61,24.666,27.368,21.482v-262.011c0-8.355,31.495-28.484,44.362-22.159-16.088,92.263-6.172,186.633-8.469,280.095-5.158,209.805-24.469,427.993.655,638.096,2.163,18.088,9.264,55.19,25.49,63.328l524.122,22.011c-19.443-71.117-33.265-149.757-61.904-217.782-7.209-17.123-33.449-47.258-34.63-54.686-2.871-18.057,30.935-25.636,25.472-47.171-43.388-.927-82.467-16.056-127.121-6.832-27.176,5.614-22.529,22.749-38.765,31.446-21.848,11.703-57.693,25.757-82.759,28.542,40.942-48.522,78.643-103.014,151.008-88.767-33.376-181.475-71.706-365.329-58.231-551.108,296.111-367.896,631.768-701.464,937.924-1060.462,513.143-175.873,1036.457-264.951,1576.156-315.65,61.663-5.794,133.333-2.758,194.452-10.029,35.553-4.23,36.425-11.761,58.604-34.454,23.494-24.039,34.067-49.708,59.378-69.407l219.697-18.469c24.984,5.384,4.858,54.917-3.742,70.113-3.555,28.742,8.458,14.914,25.199,11.94,232.594-41.324,467.179-145.507,676.457-251.747,226.775-115.124,471.484-254.731,681.476-397.653,58.203-39.613,122.054-99.285,176.731-134.145,36.455-23.242,63.331,4.596,7.88-63.396-107.35-131.63-339.057-279.566-413.12-426.203ZM7744.214-2686.936c-.232-.942-.461-1.865-.686-2.742l.686,2.742ZM5065.645-566.901c100.393,104.139,221.501,230.442,341.991,310.815,9.484,6.326,32.445,12.594,44.409,17.763-2.108-12.573,5.224-28.862-9.028-39.726-71.762-55.097-144.163-110.349-213.139-168.872-49.215-41.758-97.736-97.33-146.65-137.557-14.983-12.322-38.972-40.153-48.624-9.114,8.975,32.041,11.751,89.288,17.853,124.301l13.189-97.611ZM4563.872-1268.603c23.629,70.743,213.688,348.46,267.952,420.38,47.611,63.102,113.073,117.145,158.371,174.695,10.714-41.268-27.148-56.821-39.537-80.746-5.078-9.809-3.293-23.126-4.872-25.835-21.222-20.129-18.661-16.924-38.825-41.214-118.213-142.411-233.31-303.895-300.914-480.395-30.626-24.114-31.802.421-42.175,6.469,1.441,7.935-2.123,20.292,0,26.645ZM7744.214-2686.936c2.58,10.495,5.56,24.578,8.196,32.785l-8.196-32.785ZM5238.882,587.677c-.102-.669-1.26-1.618-2.697-2.698l2.697,2.698ZM5236.185,584.98l-6.185-6.184c.248,1.98,3.661,4.289,6.185,6.184ZM-139,5783.485v8.882c5.767-2.961,5.767-5.922,0-8.882ZM4083.235,2048.125c.714-2.79-6.196-54.823-8.046-57.031-1.385-1.652-19.65-.054-26.458-.104-2.903-.022-6.027-.323-8.882,0-2.734,8.925-10.505,7.542-17.763,8.882-31.147,5.753-106.83,35.741-120.552,35.329-29.605-.887-24.547-40.682-6.578-53.696,10.401-7.532,106.369-37.863,127.129-43.806,45.392-11.019,24.548-50.21,17.079-83.689-23.157-103.801-64.23-204.621-92.652-307.029-49.444-178.151-74.053-344.187-164.234-506.336-85.198-153.19-175.563-255.39-304.779-370.339-7.315-6.507-26.644-5.41-32.727-11.575-16.118-16.334-22.24-65.735-71.054-53.29,18.465,18.263,46.198,44.354,62.172,62.172,13.318,14.856,31.797,45.462,44.408,62.172,151.676,200.972,284.832,476.559,149.244,722.115-86.813,157.219-317.821,232.462-477.8,290.513,2.665,16.257,45.541,9.534,57.584,8.679,81.126-5.764,162.369-31.017,244.325-26.465,20.448,14.875-128.243,39.773-140.243,41.74-660.667,108.345-1186.861-142.365-1733.046-473.345-335.805-203.493-650.037-442.132-995.272-630.084-23.701-17.008,21.604-49.141,36.036-61.196,73.388-61.301,225.399-117.175,319-138.409,55.007-12.479,113.704-13.604,164.903-26.447,14.885-3.734,25.936,8.915,21.568-17.915-155.614,11.624-316.414,2.545-470.686,26.599-61.193,9.541-128.96,28.476-188.395,46.971-59.853,18.625-116.56,48.179-175.706,68.495-9.012-62.541-13.27-127.798-9.288-191.319,1.877-29.94,14.713-59.282,18.12-84.017,1.35-9.8.803-25.218,0-35.527-.58-7.443-.899-14.268-8.882-17.763-71.86,72.702-96.899,157.574-146.205,240.135-8.299,13.897-10.49,27.265-31.43,26.317,56.575,123.304,98.679,269.446,158.122,388.104,25.331,50.564,75.858,111.705,102.891,163.56,35.358,67.824,32.338,128.418,112.613,171.603,66.51,35.78,335.964,69.187,436.526,96.378,932.535,252.15,1751.227,984.678,2751.419,859.001,169.087-21.246,207.597-41.769,357.927-108.366,14.877-6.591,45.754-5.932,49.608-21.015ZM8134.324-1579.463c1.163,67.496-60.449,138.457-111.24,177.416-102.183,78.378-240.098,62.324-359.491,44.628-228.252-33.831-478.267-98.457-710.538-142.108-1.763-.331-3.545-.802-5.312-1.166-50.96-10.491-103.722-33.926-154.56-43.243-10.668-1.955-24.715,1.867-35.527,0-46.165-7.974-107.919-25.118-150.989-26.645-7.051-.25-36.075,12.137-65.904,8.083-22.779-3.096-133.396-48.895-138.321-43.574-12.358,13.352,88.283,137.881,106.453,155.513,3.563,11.075-2.214,17.806-13.127,13.127-7.674-3.29-56.008-54.728-66.969-66.302-118.387-125.029-296.015-312.7-371.729-463.152-24.865-49.408-40.792-123.701-64.412-166.505-24.693-44.747-145.158-151.925-190.952-217.616-10.739-15.405-52.689-94.929-57.589-97.792-9.049-5.285-22.919.215-30.531,7.37-103.565,102.223-204.34,207.277-305.951,311.299.308,8.856-.46,17.806,0,26.645,9.051,174.146,211.55,343.743,389.854,311.833,5.839,21.525,8.979,42.763,10.248,65.248,12.455,220.564-1.913,467.283-9.307,688.725-1.353,40.541-8.881,95.687-8.881,128.785v195.398c0,3.143-8.522,14.795-9.222,26.305-3.571,58.668.713,125.21-17.423,182.416,9.315,6.259,16.864,11.543,26.646,17.763,11.322-185.07,41.436-368.255,71.054-550.667,36.032-221.913,85.703-440.364,124.643-661.532,2.203-12.514-8.435-26.142,12.915-22.299l165.08,234.644c14.335,152.248,27.549,297.322,70.25,444.891,32.353,111.814,74.906,236.255,177.619,301.827l-355.108,377.479c.798.545-4.725,11.088,5.393,18.554,5.492,4.051,72.964,23.927,81.527,24.3,22.072.961,23.8-6.983,37.741-20.401,72.4-69.683,175.756-250.37,244.851-341.275,84.117-110.671,305.646-346.612,353.96-454.277,3.411-7.6,11.265-22.856.262-26.385-85.63,24.779-185.583,70.907-275.044,71.435-10.224.061-33.49,5.915-31.185-9.022l568.3-222.266c-21.125-29.184-78.674-13.306-106.516-35.415-5.892.115-11.88.21-17.764,0-20.728-.743-50.992-8.589-62.172-26.645-40.128-64.813,49.101-61.05,88.817-62.172,21.189-.598,51.445-2.825,71.054,0,9.103-16.314,31.932-8.168,46.177-6.387,110.664,13.832,217.443,49.043,326.809,68.652,1.727,18.498-28.357,4.363-35.48,8.79-.8.497,3.443,15.595-5.777,17.931-8.077,2.046-62.077,7.785-74.159,8.714,105.681,26.489,213.311-10.92,319.742,8.882,132.996,23.839,255.254,89.126,390.628,39.799,80.93-29.489,188.016-138.143,202.299-223.993,11.616-69.831,4.011-53.499-51.142-55.612ZM7263.915-2778.495c3.198,18.012,72.202,115.288,53.291,142.108,54.708,7.595,49.522-7.292,43.47-56.823-9.992-81.75-40.213-126.444-70.115-191.865-4.428-9.686,3.578-58.684-26.447-57.839,10.186,13.609,11.986,37.703,9.045,53.536,1.438,10.757,1.783,17.881,1.556,26.949.278,10.79-.099,22.23-1.918,39.525-2.772,13.073-11.067,32.104-8.882,44.408ZM6279.677-2097.411c57.07-111.396,47.947-223.794,51.657-343.578-25.717-5.292-16.202,12.702-20.268,28.128-35.614,135.144-102.886,306.049-272.745,273.856,12.549,36.91,16.273,87.774,44.324,115.457,75.773,74.778,160.187-1.947,197.031-73.863ZM6797.625-1170.904v8.882c5.768-2.961,5.768-5.921,0-8.882ZM5558.015-2675.746c28.668,20.673,53.511,48.021,80.462,70.523,7.104,5.931,17.958,23.425,26.81,8.72l-222.125-359.626v199.839c0,23.556,92.957,64.755,114.853,80.545ZM5669.646-2583.097v8.882c5.768-2.961,5.768-5.921,0-8.882ZM8374.13-1872.56c-1.66-1.758-7.047-14.769-17.763-26.645-102.773,153.609-264.127,247.423-444.086,284.215,86.551,20.906,175.76-7.918,266.452,0,98.49,8.599,31.903,85.675,44.45,97.649,24.457,23.339,84.597-51.732,97.437-66.819,24.834-29.185,144.601-195.077,142.9-221.214-.364-5.58-76.386-53.423-89.39-67.185ZM7761.292-1606.108c-.448-.014-.883-.011-1.329,0h1.329ZM7841.227-1606.108h-24.387c4.913.224,8.164,1.79,24.387,0ZM7759.963-1606.108h-7.553c3.763.225,5.744.044,7.553,0ZM8623.555-2135.309c-13.989-17.394-164.367-59.797-193.944-63.56-25.761-3.279-119.597-.293-135.39,15.573-15.287,15.359,5.772,14.969,12.603,18.439,22.108,11.233,51.183,19.611,73.741,32.734l251.102,28.594c1.578-13.031.314-21.304-8.111-31.78ZM5225.56,4886.431v8.881c5.768-2.961,5.768-5.922,0-8.881ZM5185.501,4859.74c6.383-12.475-5.618-23.698-8.7-17.672-6.382,12.474,5.619,23.698,8.7,17.672ZM5207.796,4868.667v8.882c5.768-2.961,5.768-5.922,0-8.882ZM-5579.054,5135.208c46.381,64.038,96.594,127.767,137.133,195.841,4.441,7.457,45.475,120.395,67.101,97.121,17.393-18.72-55.593-147.936-72.528-171.628-14.644-20.488-110.18-138.086-131.705-121.334ZM5101.038,4815.615c-23.791-4.585-168.288,4.606-163.291,38.642.844,5.746,45.281,63.833,53.97,79.501,17.913,32.299,81.882,152.479,84.65,180.331,1.145,11.52-11.318,42.169-6.188,47.634,6.825,7.273,170.129-26.768,198.574-18.93,46.64-14.911-26.59-156.238-43.92-184.581-17.282-28.26-98.132-137.649-123.795-142.596ZM5017.357,5130.999c.004,9.754.136,20.606-8.893,26.876-36.18,25.128-466.174-10.225-542.106-9.62-22.837-9.593-89.854-121.417-86.842-142.25,3.796-26.265,71.154-12.71,59.922-35.063-7.325-14.578-95.831-22.433-113.314-42.225-4.699-5.317-7.597-29.989-14.873-42.741-12.18-21.348-87.527-152.863-95.465-157.533-38.602-22.714-55.353,63.825-86.677,42.131-3.79-2.625-27.105-72.201-34.386-85.562-24.032-44.094-54.611-85.004-81.519-127.205-85.369-133.885-182.361-260.853-266.673-395.67,85.751-427.081,115.987-865.256,133.447-1300.738,8.186-204.164,15.157-412.538,9.287-617.646-.542-18.924-13.127-46.889-8.656-60.54,7.835-23.923,117.713-43.687,143.287-52.746,66.392-23.521,76.384-75.145,86.886,51.6,3.554,42.895-14.434,196.17-.682,213.896l506.177,231.586-194.515,580.237c.662,36.21-56.999,184.906-70.357,236.062-56.016,214.529-107.372,430.766-151.948,648.122-.956,65.64,104.038,217.918,142.37,279.322,97.875,156.79,206.882,317.563,327.101,457.328-32.07,34.49-67.081,159.001-105.115,178.249-21.77,11.017-63.843-56.712-79.831-40.458-13.586,13.811,51.508,92.271,68.352,96.713,60.323,15.905,114.625-198.518,144.651-216.771,27.092-16.467,131.733,6.533,171.625-13.828,20.057,4.02,148.73,264.646,148.746,298.474ZM4053.172,3705.072c-11.952,111.118-93.876,320.307-59.844,424.056,4.19,12.773,36.396,74.077,55.365,55.682-9.953-160.181,11.031-320.425,4.48-479.738ZM-3611.955,898.722c156.104,12.931,414.907-18.591,576.253-36.972,259.36-29.548,515.935-95.168,778.442-87.511,5.221-120.665,51.623-236.842,115.431-337.55,13.265-20.937,22.122-22.84,30.601-35.823,41.39-63.375,77.29-130.326,129.27-186.22-10.053-11.492-8.062-6.185-20.508,1.587-167.294,104.471-336.11,206.361-512.206,296.14-90.886,46.337-233.051,124.412-328.813,146.359-120.081,60.597-252.108,99.127-381.914,133.226-5.115,1.343-12.606-1.318-17.763,0-44.564,11.388-87.627,25.83-133.226,35.527-85.789,18.243-189.763,42.986-275.333,53.29,9.207,14.905,24.053,16.646,39.767,17.948ZM5234.355,4904.372c30.381,55.481,72.012,110.12,119.903,150.807-19.635-59.572-70.578-114.17-119.903-150.807ZM4749.124-273.626c3.582,2.961,7.004,5.861,10.146,8.658l-29.874-27.825c6.63,6.872,13.213,13.315,19.728,19.167ZM-3909.292,2470.603c59.615-2.61,88.018-1.74,102.557-.867,4.421.227,8.746.503,12.905.867,500.697-36.325,869.998-120.764,1332.258-310.86,189.884-78.086,340.735-151.912,515.14-257.57l.851-.85c2.305-2.764,7.622-11.185,16.913-16.913,2.145-1.323,6.738,1.323,8.882,0,39.873-37.648-5.299-108.985.563-127.853,6.754-21.736,54.542.893-.802-72.147-177.519-234.28-298.618-453.536-345.118-755.816-2.651-17.237-5.159-113.733-9.992-118.798-3.217-3.372-80.02-1.63-93.204-.103-189.727,21.972-488.083,456.012-608.373,603.985-230.16,283.13-459.098,564.508-728.177,812.801-66.025,69.483-218.346,181.131-298.082,245.635,22.796-2.34,47.674,1.626,93.678-1.511ZM-5620.856,5136.945c-19.582-5.727-132.576-3.081-136.39,12.105,30.936,104.743,99.227,200.584,107.137,314.693h186.516c5.786-63.055-107.332-312.197-157.264-326.798ZM5940.478,1.339l-514.979,644.215c-.581,29.62,20.752,5.987,31.125-4.45,82.8-83.302,156.271-215.934,239.575-302.207,11.008-11.4,21.891-28.798,40.012-26.51l-199.908,426.549c-21.137,23.417-52.694-34.446-102.04,13.083-39.614,38.156-35.513,95.036-50.684,144.667-14.559,47.629-74.054,139.276-17.781,185.626,43.806,36.079,77.933-20.162,112.891-23.903-62.505,136.401-141.678,176.336-221.917,288.78-26.227,36.752-22.684,59.602,13.333,22.215,41.458-43.035,214.753-231.256,224.296-273.124,5.803-25.459,9.881-40.61-15.712-37.871,76.443-166.818,99.163-342.965,178.888-518.327,26.155-57.531,58.257-125.519,96.357-174.445-18.166,147.886-31.355,300.99-64.25,446.359-37.778,166.952-85.502,282.274-202.113,406.284l-301.863,484.18-17.836-.258c-17.788-24.796,20.016-82.007,33.963-107.968,52.958-98.579,134.735-209.642,205.8-296.018-23.505,2.596-38.529,24.116-53.033,40.231-52.443,58.273-229.796,272.795-239.289,338.014-3.557,24.436.678,50.177-.864,74.721-29.546-14.691-27.359-45.454-24.455-73.07,13.889-132.04,95.717-328.488,125.211-470.185,39.194-188.294,39.775-366.717,23.677-558.076-.366-4.348-.056-6.75,0-8.179v-.703c27.189,2.635,40.946-17.86,57.816-35.45,128.735-134.225,143.327-330.156,155.346-506.335h17.763c-5.055,39.733-4.771,86.075-10.148,127.519-7.938,61.202-29.038,121.47-29.863,183.297,87.768-90.197,188.646-178.129,256.798-284.988,59.717-93.632,17.568-58.932-43.793-123.328-24.497-25.707-54.227-72.935-73.543-104.091-18.226-29.395-23.544-87.387-63.924-82.625.694-13.186-8.754-40.021,13.205-35.454,102.575,88.773,226.125,142.553,351.312,190.519,12.081,4.629,77.616,15.476,70.627,31.307ZM5421.044,667.79c-20.003,13.481-11,25.524,0,8.704,2.956-4.517,7.19-4.697,0-8.704Z" fill="#0a4783"/>
  <path d="M7272.71-3116.005c-70.353-32.447-147.815-42.76-221.956-62.168,50.878-16.902,145.499-71.398,195.398-71.054l26.558,133.221ZM60.838,5668.023c-36.01,14.788-104.246,15.001-142.108,0-12.582,5.985-62.544,47.025-62.559,57.462-.012,8.353,63.602,119.682,73.44,150.066,7.655,23.642,24.077,156.623,46.851,156.623h284.215c3.295,0,13.367-11.748,22.275-8.97-19.205-82.603-54.526-144.494-103.139-212.145-19.429-27.038-97.885-128.865-118.975-143.036ZM7311.672-2530.457c-1.065-.012-2.14-.056-3.198-.051l17.614.701-14.415-.65ZM6296.237-2516.056c12.267-194.685-9.324-417.054-9.311-617.708-.334-4.298-.43-8.548-.631-12.819-2.366-27.616-10.717-60.45-7.314-97.259,2.875-31.1,28.575-63.493,7.945-94.201-1.301.662-6.256.271-8.882,0-24.585,25.723-67.66,30.279-93.386,53.162-24.796,22.056-41.971,82.239-48.858,88.913-37.227,36.073,6.186-87.82,16.831-97.076-21.712,12.135-39.316,20.342-61.103,34.936-2.565,1.718-5.794,12.851-12.872,17.784-60.977,42.489-136.48,75.952-164.878,150.9l-8.767-35.458c-30.125,42.949-48.055,63.711-52.273,121.106-3.537,48.092,14.631,82.445,12.347,127.539-57.618-84.442-83.848-177.368-4.482-257.527-58.481,22.73-165.151,55.696-208.081,107.22-12.526,15.035-21.771,54.384-36.287,61.458-30.633,14.926.873-63.02,4.561-70.979-10.795-10.51-63.032,5.436-72.822,9.758-7.264,3.208-8.369,12.715-14.594,15.764-24.354,11.926-48.422,24.224-72.455,36.65,179.406,190.465,254.909,473.679,413.744,674.267,226.068,285.498,404.383,56.283,421.567-216.43ZM5860.603-1037.678c-29.618,182.412-59.732,365.597-71.054,550.667,77.131,49.053,222.626,94.36,266.452,124.344l355.108-377.479c-102.713-65.572-145.266-190.013-177.619-301.827-42.7-147.569-55.914-292.643-70.249-444.891l-165.079-234.644c-21.35-3.843-10.712,9.785-12.915,22.299-38.94,221.168-88.611,439.619-124.643,661.532ZM7992.169,4317.957c16.786-18.775-43.538-64.327-57.78-70.824-9.646,19.598,46.131,83.853,57.78,70.824ZM5443.162-780.108c.169-2.457,9.442-13.577,9.519-30.041.759-163.104-9.378-336.892-.549-498.333,1.458-26.663,18.624-210.22,26.615-217.732,27.43-25.789,34.623,47.984,35.824,66.334,11.857,181.295-8.702,484.626-36.778,665.814-2.346,15.14-3.4,36.536-25.75,31.721,16.277,29.262,122.985,115.103,155.649,141.889,49.29,40.419,102.376,80.181,155.211,115.681,18.136-57.206,13.852-123.748,17.423-182.416.7-11.509,9.222-23.162,9.222-26.305v-195.398c0-33.098,7.529-88.244,8.882-128.785,7.394-221.442,21.762-468.162,9.307-688.725-1.269-22.485-4.408-43.723-10.248-65.248-178.304,31.909-380.804-137.687-389.855-311.833-9.942,1.347-85.681,80.332-98.019,93.319-99.987,105.239-206.934,209.509-306.045,315.294-39.04,41.668-71.602,91.301-119.957,124.29,131.91,292.42,324.985,571.799,559.549,790.473ZM7210.302-1397.064c-59.824-11.88-141.145-41.405-195.075-49.173-19.609-2.825-49.864-.598-71.054,0-39.716,1.122-128.945-2.641-88.817,62.172,11.18,18.057,41.444,25.902,62.172,26.645,5.884.21,11.872.115,17.763,0,48.364-.946,69.287-4.735,124.344,0,13.644,1.173,16.495-.083,17.763,0,65.425,4.297,128.55,14.023,195.398,8.882,12.082-.929,66.082-6.667,74.159-8.714,9.22-2.336,4.976-17.434,5.777-17.931-47.4-3.69-95.832-12.627-142.431-21.881ZM6322.452-3311.399c5.328-15.515-9.512-45.615,26.645-44.409,28.841,24.11,59.379,51.851,84.489,79.827,17.373,19.359,33.427,57.547,48.737,71.162,20.709,18.417,134.302,6.339,173.103,8.972,251.002,17.036,568.509,94.803,792.171,211.468,65.888,34.368,86.083,73.212,122.859,134.753,38.339,4.595-28.603-78.025,8.639-62.02,40.5,17.404,109.03,148.402,155.552,177.559,12.867,6.212,6.557,19.3,8.882,26.645,1.486,4.697-1.329,12.569,0,17.763,2.727,10.65,6.009,26.583,8.882,35.527,19.873,61.855,87.113,190.472,62.172,248.688-.651,1.517-11.025,1.324-8.893,8.727,162.918,68.431,336.509,111.355,497.387,186.671-47.249,25.225-86.094,39.726-79.281,101.244,6.689,60.403,90.908,163.445,132.571,209.617-102.773,153.609-264.127,247.423-444.086,284.215-18.747,3.833-50.385,6.601-71.054,8.882h-26.645c-17.51.791-35.752.538-53.29,0h-8.882c-96.439-5.779-153.674-13.414-219.874-34.898-48.136-15.622-184.87-79.874-228.434-71.392-41.599,8.101-40.949,50.458-.867,62.53,236.014,61.523,456.593,85.495,693.789,79.653,45.063-1.11,86.998-11.175,137.3-9.248,1.162,67.495-60.449,138.457-111.241,177.415-102.183,78.378-240.098,62.324-359.491,44.628-228.252-33.831-478.266-98.457-710.538-142.108-1.885-.717-3.63-1.033-5.311-1.166-50.96-10.491-103.722-33.926-154.56-43.243,59.871-119.96,168.017-210.39,239.995-323.995,60.262-24.323,120.697-7.834,187.926-25.495,15.896-4.176,39.774,1.224,33.929-23.543h-226.484c-19.626,0-218.062,270.722-242.568,308.09-13.308,20.292-30.439,37.967-28.325,64.943-46.165-7.974-107.92-25.118-150.989-26.645-247.745-54.415-445.731-207.381-524.022-452.968,75.773,74.779,160.187-1.947,197.031-73.862,57.07-111.396,47.947-223.795,51.658-343.579,4.987-161.073,2.099-320.351-6.997-482.228,40.77-59.724,77.552-123.872,118.934-182.991,8.535-12.192,28.968-11.945,30.889-32.142,2.958-31.086-110.683-165.342-151.707-173.048ZM6748.811-2725.249c7.714,7.447,138.406-7.414,160.239-12.874,48.139-12.041,88.015-42.957,132.971-62.427,20.297-8.791,102.384-27.548,106.448-31.325,34.628-32.186-93.855-9.144-98.066-12.45-19.581-15.372-13.439-107.794-17.448-111.838-28.049-28.291-122.413,104.387-146.729,124.161-19.771,16.078-165.171,79.955-137.414,106.753ZM6660.127-2587.54c70.163,67.883,148.617,137.095,236.266,181.008,43.459,21.774,146.45,68.967,189.888,81.004h8.882c9.428,1.559,25.177.61,35.527,0h8.882c3.135-.596,6.854.96,8.882,0,2.424-3.15,5.275-7.23,8.882-8.882,39.433-18.061,63.306-39.963,97.387-58.044,22.285-11.824,125.736-51.183,129.802-56.99,10.022-14.319-5.55-40.811-14.027-53.719,1.169-45.136-55.764-56.687-67.109-88.238-18.932-52.645,12.136-42.601,13.819-44.988,54.708,7.595,49.523-7.292,43.47-56.823-9.992-81.75-40.213-126.444-70.115-191.865-4.428-9.686,3.578-58.684-26.447-57.839,10.186,13.609,11.986,37.703,9.045,53.536.711,10.26,1.336,18.406,1.556,26.949.279,10.79-.099,22.23-1.918,39.525-2.772,13.073-11.067,32.104-8.882,44.409-55.174,12.156-101.129-5.457-160.318,3.984-76.479,12.199-142.89,64.898-212.715,93.715-29.563,12.2-230.513,69.088-230.756,93.256ZM8161.058,4646.627c15.333,114.796,67.645,272.662,53.22,386.511-1.557,12.286-5.245,26.326-17.689,13.175-8.155-8.619-15.055-152.95-18.991-180.952-5.394-38.373-20.58-169.141-34.226-194.537-7.134-13.279-61.489-19.303-71.176-46.447,8.059-6.212,93.209-3.624,88.68-17.616l-166.589-270.862c-12.526-6.015-24.247-17.564-19.93,4.352,15.209,77.203,66.37,162.046,79.094,249.579,4.922,33.858,8.645,95.854,10.185,131.923.968,22.693,5.089,201.222-14.072,200.485-47.142-15.172-109.418-63.932-158.352-62.305-6.926.23-11.593,7.984-14.459,8.735-6.081,1.595-17.217-4.126-24.301,2.348-4.356,3.981-1.407,14.759-2.344,15.415,5.625.742,13.624-1.402,17.763,0,21.917,7.423,62.831,33.7,78.175,52.527l143.868,71.817c5.661-.806,11.976.54,17.763,0l4.473-8.741c2.408,2.422,2.789,8.131,4.408,8.741,58.736,22.061,100.377,67.287,159.782,88.815,7.377-132.408-23.948-261.925-35.492-393.14l-79.792-59.824ZM7645.647,4651.256c-9.448-4.265-40.011-8.339-44.182-4.585-15.631,14.065,49.388,60.819,48.369,80.325,20.328,13.019,90.345,106.134,111.258,88.284,4.322-3.688,20.611-52.711,9.736-67.031-4.788-6.306-117.964-93.734-125.181-96.992ZM7388.953,4280.737c-2.084,1.459.657,9.634-.837,10.529-7.216,4.325-17.059-22.339-26.313-13.33,14.359,6.926,21.196,66.259,39.645,57.74,17.851-8.242,29.572-84.387-12.494-54.938ZM7217.776,3888.968c-28.415-47.566-79.497-88.368-78.254-148.284-33.789,13.367-79.286,9.418-57.926,53.534l236.327,443.217c14.945,10.708,65.572-27.222,79.07-39.309-66.812-98.822-118.146-206.925-179.217-309.158ZM5642.801,1.683c-24.496-25.707-54.227-72.935-73.543-104.091-18.225-29.395-23.544-87.387-63.924-82.625-4.937,93.852-23.557,190.115-35.527,284.215-5.055,39.733-4.772,86.075-10.148,127.519-7.938,61.202-29.038,121.47-29.863,183.297,87.768-90.197,188.647-178.129,256.798-284.988,59.717-93.632,17.568-58.932-43.793-123.328ZM7814.592,4904.099c88.18,21.508,156.734,98.527,239.07,129.624,21.413,8.088,28.074-.392,9.608-14.066l-213.161-133.226c-5.107,3.577-33.222-3.209-35.517,17.668ZM7805.7,4504.517c-9.307,46.946,2.134,91.016,0,142.108-49.32-.202-95.262-21.801-142.108-35.527-17.022-4.987-59.806-7.535-67.016-17.37-17.883-24.398-26.646-205.913-52.635-258.215-10.467-21.068-64.809-79.373-84.628-106.329l-301.979-541.785c-16.33-86.269-60.331-156.159-133.226-204.28-47.447-31.322-104.51-62.664-155.535-88.622-4.916,6.878,3.773,16.756,4.546,26.45,30.524,32.635,107.409,74.263,93.329,124.275-479.822-226.418-977.108-412.126-1469.714-608.61-86.494-34.499-171.665-76.588-257.852-110.74-20.518-8.13-41.158-16.089-61.848-23.986-234.02-89.308-477.663-165.759-701.98-277.993-6.722-3.363-11.849,2.856-17.763-8.882-.611-1.212-.481-7.465,0-8.882-5.62.874-12.918-1.301-17.763,0-2.123.57-4.213,7.468-10.891,6.618-3.366-.428-4.873-6.09-6.873-6.618-89.724-23.708-195.539-96.207-284.571-130.294,18.572-188.75-27.593-357.966-73.227-537.748-49.667-195.673-106.691-391.232-159.867-586.199-12.026-44.091-42.078-108.119-48.622-146.735-7.917-46.715,16.859-85.407-.014-124.433-9.73-22.504-109.912-116.165-135.233-140.038-150.103-141.531-320.174-263.019-470.855-403.994l-150.989-124.344c1.478-4.407-.95-12.233,0-17.763,73.853,4.998,222.845-99.646,288.196-88.947,17.531,2.87,137.938,126.502,164.772,151.119,3.103,2.846,5.831,6.069,8.882,8.882,1.6,1.475,7.284-1.477,8.882,0,3.093,2.859,5.842,6.044,8.882,8.882,15.081,14.078,30.392,39.446,35.527,44.409.747.722,9.721,1.069,17.763,8.882,3.008,2.921,5.887,5.964,8.882,8.882l8.882,8.882c9.011,8.789,17.72,17.921,26.645,26.645l8.882,8.882c2.995,2.921,5.881,5.959,8.882,8.882l8.882,8.882c80.851,78.606,158.635,161.288,239.807,239.807l8.882,8.882c8.935,8.6,17.381,17.784,26.645,26.645.743.71,9.736,1.232,17.763,8.882,3.025,2.882,5.846,5.994,8.882,8.882l8.882,8.882c12.509,11.952,24.97,33.896,26.645,35.527l8.882,8.882c12.284,12.348,81.247,78.491,88.817,79.936.614.117,3.825-9.563,8.706-8.981,1.039,4.129-.436,11.442-.342,15.418.176.789.355,1.548.517,2.445,1.238,1.487,7.312-1.459,8.882,0l8.882,8.882c18.037,16.695,27.904,23.458,44.409,44.409.945,1.2,2.134,2.282,3.352,3.352,2.006,1.761,4.116,3.475,5.529,5.53,11.943,17.354,22.874,33.627,30.934,53.478,58.502,144.101,101.359,343.218,146.7,497.189,18.325,62.23,128.278,482.022,152.851,495.41,6.332,3.45,32.12,3.372,33.62,1.967,14.682-13.757-43.754-156.417-35.481-186.516-16.577-15.005-13.023-35.761-17.763-53.29-9.495-35.115-17.74-74.989-26.645-106.581-59.507-211.098-142.624-537.675-230.925-728.301-46.243-41.465-107.294-81.102-142.108-133.226-1.886-2.824-6.363-5.294-8.882-8.882-242.736-209.669-463.485-445.534-696.725-666.612-19.35-14.445-44.671-7.374-67.151-8.359,12.462-106.909,19.036-217.466,36.162-323.638,9.771-60.568,53.024-41.174,94.351-24.473,466.296,188.436,954.269,470.333,1408.927,696.044,76.677,38.066,156.518,75.301,236.952,104.994-5.868,90.435,21.929,223.811,26.645,319.742,11.774,239.456,6.085,597.68-155.055,791.022-8.437,10.124-45.104,20.529-31.474,34.894,2.117,2.231,43.554,9.255,59.337,16.282,210.174,93.601,464.045,330.018,657.277,470.675,384.184,279.653,806.151,586.781,1219.615,818.74-26.658,45.413,3.016,96.688,8.882,142.108-42.207-17.135-86.226-28.337-128.891-44.211,22.191,34.076,91.265,59.865,130.83,73.34,16.662,5.675,54.689,22.063,69.115,6.398,103.545,48.5,263.102,115.25,355.269,168.753l79.936-106.581c6.816,2.721,13.17,7.212,17.763,8.882,16.759,18.605,24.399,41.828,35.527,62.172-77.995-6.716-75.536,32.749-71.054,97.699,122.575,223.792,218.69,466.943,347.767,686.952,60.955,103.896,184.235,181.51,229.811,308.547,9.298,32.698,15.138,66.494,17.497,101.394v253.129c-24.961,2.265-47.418-.696-66.708-17.568l-4.345,8.687c-6.089-3.018-11.717-5.61-17.763-8.882-23.909-12.939-95.494-44.25-81.896-76.173.535-1.253,1.156-2.508,1.96-3.762,19.869-37.515,46.718-150.584,51.556-193.375,1.744-15.426-4.608-18.911-7.147-28.668-7.595-29.184-2.977-44.63-48.74-35.733-31.339,6.091-18.282,24.275-22.314,44.615ZM3859.88,110.189c-128.88,20.654-175.685,168.877-81.939,264.226,59.806,60.83,124.385,64.001,193.791,16.358,134.052-92.018,65.299-308.974-111.852-280.584ZM5380.99,2701.527c.971-2.704-1.045-6.475,0-8.882-80.718-30.477-159.737-65.547-239.807-97.699l-541.785-239.807c-41.084-33.372-20.819-26.704-42.782-68.237-27.606-52.204-67.753-115.907-104.503-161.95-13.802-17.295-95.409-104.813-107.667-105.931-11.708-1.068-16.191-3.282-24.837,7.41-7.748,9.582-43.24,167.666-38.763,180.759.821,2.403,30.701,30.427,36.614,35.188,25.145,20.246,102.593,70.884,130.949,86.116,224.684,120.699,558.339,257.766,799.637,350.546,20.58,7.912,121.267,50.823,132.923,40.202,1.666-1.519-1.657-13.05.021-17.716ZM3102.603-772.363c27.016-10.363,53.562-20.31,79.627-29.795-30.994,10.522-58.422,20.692-79.627,29.795ZM3480.301,729.785c151.676,200.972,284.832,476.559,149.244,722.115-86.813,157.219-317.821,232.462-477.8,290.513,2.665,16.257,45.541,9.534,57.584,8.679,81.126-5.764,162.369-31.017,244.325-26.465,20.448,14.875-128.243,39.773-140.243,41.74-660.667,108.345-1186.861-142.365-1733.046-473.345-335.805-203.493-650.037-442.132-995.272-630.084-23.701-17.008,21.604-49.141,36.036-61.196,73.388-61.301,225.399-117.175,319-138.409,55.007-12.479,113.704-13.604,164.903-26.447,14.885-3.734,25.936,8.915,21.568-17.915-155.614,11.624-316.414,2.545-470.686,26.599-61.193,9.541-128.96,28.476-188.395,46.971-59.853,18.625-116.56,48.179-175.706,68.495-9.012-62.541-13.27-127.798-9.288-191.319,1.877-29.939,14.713-59.282,18.12-84.017,1.35-9.8.803-25.218,0-35.527-.58-7.443-.899-14.268-8.882-17.763-71.86,72.702-96.899,157.574-146.205,240.135-8.3,13.897-10.49,27.265-31.43,26.317C57.292,374.986-13.053,257.317-72.388,134.71c39.536,161.978,150.047,352.266,217.319,515.423,162.478,394.058,271.788,772.652,386.638,1180.986-100.256-54.559-204.17-109.504-291.732-183.44L-354.877,509.6l2.767-28.023C-267.211,348.465-152.884,221.76-99.033,72.538c-25.723-18.683-77.183-11.978-106.581-17.763l-17.763-8.882c-2.842-.57-6.012.517-8.882,0h-8.882c-5.642-.863-12.105.833-17.763,0l-8.882-8.882c-11.336-1.435-24.279,1.57-35.527,0l-35.527-8.882c-32.558,7.15-250.567,382.741-306.381,435.684-7.338,15.713,5.474,45.536,13.285,61.692,9.411,3.148,13.541,9.329,17.763,17.763,1.189,2.375-1.213,6.568,0,8.882,31.661,60.413,69.557,122.988,97.281,175.529,136.419,258.536,277.484,520.629,411.43,777.179,55.027,105.396,100.465,208.311,153.619,307.889,194.405,117.161,381.131,248.75,581.111,355.877,18.287,75.404,30.069,137.313,44.409,213.161,20.467,108.254,49.636,222.066,53.649,332.692.901,24.832,3.252,64.442-2.519,87.024-4.022,15.739-100.636,144.965-118.385,165.822-79.304,93.183-187.648,189.976-279.131,275.989-15.797,14.852-25.689,38.654-53.29,44.409-18.111,28.419-41.238,40.697-62.172,62.172-28.989,29.737-55.334,47.555-79.936,71.054-20.992,20.051-40.662,41.817-62.172,62.172-344.521,326.023-693.461,647.676-1039.393,972.317-264.556,274.813,10.233,539.658,179.488,771.32,111.539,152.665,234.821,300.68,344.182,453.397-41.777,38.077-90.483,119.251.583,50.042.012,3.81-.982,17.034-.059,17.74,16.29,12.46,202.838-20.65,239.866-8.858,52.931,86.566,85.8,194.876,106.599,293.056-150.511-6.499-308.08,8.727-457.793.407-28.274-1.571-99.562-5.888-121.818-11.407-83.979-20.825-62.541-138.586-91.693-192.523-16.128-29.841-158.078-178.317-185.95-178.448-27.367-.126-37.055,60.614-95.689,42.754-7.62-2.321-63.102-55.676-68.998-64.46-28.569-42.561,55.264-61.526,43.767-105.167-6.97-26.457-121.962-127.167-149.822-157.245-185.272-200.014-381.556-392.147-586.073-572.99-25.151-22.239-58.769-52.716-88.938-66.494-.883-23.571-13.521-51.177-4.644-70.763,9.562-21.096,106.996-96.502,133.555-124.509,202.737-213.798,321.951-445.227,457.283-701.782,31.11,5.686,53.292-19.375,75.243-35.775,223.769-167.19,434.746-366.645,653.058-541.537,36.305-48.481,57.512-85.842,79.936-142.108.149-.374.647-.812,1.315-1.315l7.567-7.567c53.39-148.641,43.397-284.742,35.018-439.138l-13.226-31.181c-214.575-208.705-433.881-412.975-648.188-621.898-197.765-192.798-404.433-428.545-612.386-604.415-12.189-10.309-42.235-40.1-57.995-31.593-7.556,4.077-77.407,108.738-78.814,118.255-2.667,18.019,26.17,49.749,38.769,64.67,218.244,258.464,549.145,484.766,777.15,741.628,137.828,87.763,308.183,322.253,443.659,391.223,37.322,19.002,102.894,14.857,114.102,63.534,11.333,49.224,1.064,199.895-9.012,253.593-13.146,70.063-69.619,148.484-98.446,216.932-206.697,188.991-460.855,354.499-663.34,544.519,96.261-223.585,167.765-480.669,284.215-692.774l329.257-199.277c25.585-47.49-18.565-74.07-53.924-93.82-185.115-103.393-397.954-312.274-555.342-461.615-121.543-115.328-317.05-356.559-439.021-440.482-6.03-4.149-58.478-64.638-62.562-66.01-11.37-13.271-27.108-13.907-35.356-22.66-21.445-22.757-76.019-96.877-98.001-126.129-217.054-288.829-403.154-684.155-299.318-1052.156,17.129-60.704,50.772-114.012,59.643-175.723,13.265-20.937,22.122-22.84,30.601-35.823,41.39-63.375,77.29-130.326,129.27-186.22-10.053-11.492-8.062-6.185-20.508,1.587-167.294,104.471-336.11,206.361-512.206,296.14-90.886,46.337-233.051,124.412-328.813,146.359-120.081,60.597-252.108,99.127-381.914,133.226-5.115,1.343-12.606-1.318-17.763,0-44.564,11.388-87.627,25.83-133.226,35.527-85.789,18.243-189.763,42.986-275.333,53.29-185.543,22.343-437.76-8.867-624.892-36.796-774.549-115.602-1417.732-435.796-1955.373-1002.241-111.183-117.14-414.541-469.964-438.961-618.013-11.848-71.832,34.263-36.63,66.137-3.917,100.819,103.474,195.07,227.812,297.067,333.307,592.707,613.043,1163.823,920.087,2021.024,1016.753,86.542,9.759,176.045,3.77,261.965,17.81h115.462c11.825-.002,23.713.326,35.527,0,170.927-4.72,345.766-12.59,515.14-35.527,391.826-53.063,869.989-185.686,1231.683-344.823,162.6-71.54,305.906-168.646,464.726-241.371,66.642-30.516,147.661-53.109,213.161-88.817,3.905-2.129,7.081-4.69,8.882-8.882,121.084-35.872,239.728-81.176,362.234-112.938,271.359-70.354,549.1-93.906,827.916-117.987,505.222-43.634,1073.87-93.517,1580.947-88.817,220.957,2.048,475.586,19.341,697.124,35.618,209.155,15.367,417.038,47.884,626.262,62.038l-44.418-230.881c7.866-.693,21.933-13.921,35.489-8.895-7.768,21.492,6.209,39.176,8.92,53.303,56.348,293.762,151.249,436.598,301.979,683.893,36.899,60.54,66.808,140.381,115.462,195.398,12.228,13.826,38.983,30.739,53.29,44.409,78.853,75.344,172.224,146.416,248.688,222.043,18.465,18.263,46.198,44.354,62.172,62.172,13.318,14.856,31.797,45.462,44.409,62.172ZM-1324.757,4184.819c-6.146-6.472-35.068,5.849-40.225,17.415l-266.627,355.043c-21.812,67.029,53.505,168.937,80.262,231.568,15.173,35.516,6.263,78.499,61.398,43.352,58.712-37.429-19.801-135.281-28-183.216-4.278-25.008-4.407-48.965,2.043-73.697,26.435-101.361,147.728-241.149,184.255-348.59,3.28-9.647,12.149-36.342,6.894-41.875ZM2680.946-558.065c-8.603-68.277,49.721-57.826,97.699-79.936l17.763,71.054c.631,5.738-.939,12.263,0,17.763,1.902,11.147,9.645,26.976,17.763,35.527,12.822,80.053,61.996,160.047,80.304,239.541l283.148-107.203-114.764-345.5c-1.544-23.476,13.617-22.173,28.326-29.43,108.22-53.396,250.773-92.801,368.056-120.414l736.008-1.102c11.343-1.313-3.797-12.461-4.411-17.806-80.903-16.007-106.337-84.285-150.989-142.108,31.869-7.299,107.749-24.229,133.226-35.527v8.882l390.796-204.28c23.629,70.743,213.688,348.46,267.952,420.38,47.611,63.102,113.073,117.145,158.37,174.695,10.525,13.372,39.904,63.852,44.409,79.936,8.975,32.041,11.751,89.288,17.852,124.301l13.189-97.611c100.393,104.139,221.501,230.442,341.991,310.815,9.485,6.326,32.446,12.594,44.409,17.763,18.683,111.412,7.566,226.589,0,337.505-12.018,176.179-26.61,372.11-155.346,506.335-16.87,17.59-30.626,38.085-57.816,35.45-1.097-17.118,2.429-37.343,0-53.29-.102-.669-1.26-1.618-2.697-2.697l-6.184-6.184c-.627-5.023-8.177-12.512-8.882-17.763-3.515-26.159-3.968-52.199-8.882-79.936,22.339-47.421-.198-112.576-11.466-161.728-22.594-98.558-60.335-205.09-95.114-300.122-21.651-59.159-62.341-175.933-97.699-222.043-5.643-7.36-7.325-19.714-17.671-17.721,2.817,109.492,59.111,208.795,88.725,310.818,26.596,91.63,57.444,190.545,75.803,283.907,11.039,56.131,12.134,112.94,21.896,169.061-2.848-.563-6.024.544-8.882,0-207.773-39.525-522.371-236.653-725.116-336.25-328.207-161.23-658.076-319.089-986.745-479.414-131.254,20.379-102.749,78.987-118.977,179.417-6.689,41.395-35.89,255.538-48.123,271.619-19.544,25.693-159.019,67.011-199.362,89.294-.55.304,1.151,10.372-8.882,8.882-33.411-48.357-59.803-91.072-88.817-142.108-18.596-32.712-35.153-73.013-53.29-106.581-79.275-146.717-234.498-419.906-256.952-582.036-.19-1.373-.447-2.802-.618-4.158ZM4337.592-593.734c11.559,25.267,140.049,136.66,170.022,163.245,4.137,3.669,1.95,13.642,2.966,14.531-42.039,49.979-103.515,91.847-25.997,145.897,36.555,25.488,56.82,15.449,88.362,27.104,114.682,42.381,219.758,171.096,324.048,235.5,11.64-46.231-17.035-117.332-48.908-150.931,28.714,2.177,17.212-4.999,4.535-17.856-26.313-26.688-65.414-63.854-93.352-88.725l-29.874-27.825c-43.529-45.121-89.01-108.254-129.747-137.097-10.186-7.212-25.553-11.589-26.896-12.712-55.809-68.206-104.021-109.517-166.233-171.328-11.325-11.254-5.856-39.45-38.047-41.833-39.71-2.94-45.519,30.032-30.881,62.03ZM291.763,5890.066c13.714,21.823,31.728,85.933,35.626,88.786,3.527,2.581,77.259-32.091,79.828-35.627,12.217-16.818-51.954-76.02-62.163-88.686-16.485,22.12-60.38,5.241-53.29,35.527Z" fill="#0b80c6"/>
  <path d="M-2896.775,3127.85c-12.723,22.481-34.399,21.39-58.807,25.5-48.061,8.094-166.763,21.515-211.966,19.195-26.499-1.36-2.48-12.824-4.561-26.931,23.494-24.039,34.067-49.708,59.378-69.407l219.697-18.469c24.984,5.384,4.858,54.917-3.742,70.113ZM2796.409-549.183c1.902,11.147,9.645,26.976,17.763,35.527,12.822,80.053,61.996,160.047,80.304,239.541l283.148-107.203-114.764-345.5-8.882-8.882v-17.763c-97.189,38.396-180.553,71.785-275.333,115.462l17.763,71.054c.631,5.738-.939,12.263,0,17.763ZM-1813.205,1848.882c56.817-89.424-76.811,17.154-106.581,35.527-2.144,1.323-6.737-1.323-8.882,0l-16.913,16.913-.851.85c-174.405,105.658-325.256,179.484-515.14,257.57-462.26,190.096-831.561,274.535-1332.258,310.86-2.504-.068-6.259-.468-12.905-.867-14.539-.873-42.942-1.742-102.557.867-46.004,3.138-70.882-.828-93.678,1.511h-.016c-1.105.9-2.29,1.863-3.543,2.884-1.131.919-2.324,1.893-3.578,2.921-.288.236-.604.497-.899.739-8.023,6.588-18.441,15.354-31.509,27.382l301.976.089c473.954-30.44,954.516-150.885,1385.549-346.387,196.196-88.989,362.562-195.026,541.785-310.86ZM7326.087-2529.807l-17.614-.701c1.058-.005,2.134.039,3.198.051l14.415.65c-99.327-26.759-186.317,37.31-284.215-17.763-53.251-40.305-103.289-86.515-150.989-133.226-29.563,12.2-230.513,69.088-230.756,93.256,70.163,67.883,148.617,137.095,236.266,181.008,43.459,21.774,146.45,68.967,189.888,81.004h8.882c9.428,1.559,25.177.61,35.527,0h8.882c3.135-.596,6.854.96,8.882,0,2.424-3.15,5.275-7.23,8.882-8.882,39.433-18.061,63.306-39.963,97.387-58.044,22.285-11.824,125.736-51.183,129.802-56.99,10.022-14.319-5.55-40.811-14.027-53.719-14.359-21.861-21.079-20.36-44.409-26.645ZM-1240.586,3793.731c223.769-167.19,434.746-366.645,653.058-541.537,36.305-48.481,57.512-85.842,79.936-142.108.149-.374.647-.812,1.315-1.315l7.567-7.567c53.39-148.641,43.397-284.742,35.018-439.138l-13.226-31.181c-214.575-208.705-433.881-412.975-648.188-621.898-197.765-192.798-404.433-428.545-612.386-604.415-12.189-10.309-42.235-40.1-57.995-31.593-7.556,4.077-77.407,108.738-78.814,118.255-2.667,18.019,26.17,49.749,38.769,64.67,218.244,258.464,549.145,484.766,777.15,741.628,137.828,87.763,308.183,322.253,443.659,391.223,37.322,19.002,102.894,14.857,114.102,63.534,11.333,49.224,1.064,199.895-9.012,253.593-13.146,70.063-69.619,148.484-98.446,216.932-206.697,188.991-460.855,354.499-663.34,544.519-24.947,23.411-28.855,32.686-44.409,62.172,31.11,5.686,53.292-19.375,75.243-35.775ZM7240.59-2661.083c-4.725-17.021-16.788-39.303-37.671-27.313-7.886,4.528-34.985,65.179-68.306,70.083-59.054,8.693-63.901-94.768-119.308-67.093-57.698,28.82,45.162,107.43,88.274,116.198,53.776,10.938,155.078-26.799,137.012-91.876ZM3971.732,390.773c-69.406,47.642-133.985,44.471-193.791-16.358-93.746-95.349-46.941-243.571,81.939-264.226,177.151-28.39,245.904,188.566,111.852,280.584ZM3999.376,258.819c0-63.107-51.158-114.264-114.264-114.264s-114.265,51.158-114.265,114.264,51.159,114.264,114.265,114.264,114.264-51.158,114.264-114.264ZM5467.087,775.87c-16.812,5.209-27.98,30.199-34.583,45.398-11.382,26.208-56.187,158.691-58.807,181.81-4.518,39.881,20.27,71.061,60.676,50.972,37.71-18.749,99.453-229.915,87.851-265.217-6.294-19.151-38.904-17.993-55.138-12.963ZM6313.524-442.568c-84.017,17.831,20.1,104.64-46.492,135.532-85.293,39.568-243.337-26.188-323.617-62.948-173.049-79.238-299.614-188.322-446.962-303.543-71.85-56.184-74.005-46.854-133.226-124.344-106.912-57.29-276.964-309.989-343.217-425.009-6.086-10.566-23.29-28.281-3.17-36.84-55.457-87.583-126.875-192.498-168.753-284.215l-248.688,177.634c7.27,55.412,9.844,30.791,20.385,55.444,90.548,211.77,216.564,343.05,326.002,530.75,105.384,99.959,193.098,218.402,301.853,315.427,167.504,149.441,532.019,410.02,753.121,437.038,112.273,13.72,110.833,1.012,174.387-78.213,33.265-41.467,142.792-193.981,154.159-236.843,10.644-40.129-18.298-61.014-15.782-99.87ZM3859.788,189.749c-81.895,17.897-61.336,158.984,40.262,138.827,68.266-13.544,66.05-162.06-40.262-138.827ZM6793.184-1543.936c59.871-119.96,168.017-210.39,239.995-323.995,60.262-24.323,120.697-7.834,187.926-25.495,15.896-4.176,39.774,1.224,33.929-23.543h-226.484c-19.626,0-218.062,270.722-242.568,308.09-13.308,20.292-30.439,37.967-28.325,64.943,10.812,1.867,24.858-1.955,35.527,0ZM5212.029,1120.542c21.504-17.414,4.976-468.589.204-532.902-22.549-.493-51.011-5.96-53.744,22.484l27.141,510.506c7.293-1.208,23.879,1.953,26.399-.087ZM3901.535,2035.201c13.722.412,89.405-29.577,120.552-35.33,2.8-8.726,10.189-8.026,17.763-8.882,2.855-.323,5.978-.022,8.882,0,32.526-13.23,9.231-34.829,8.787-62.237-11.509,8.019-24.823,5.909-35.433,8.947-20.76,5.942-116.729,36.274-127.129,43.806-17.969,13.014-23.027,52.809,6.578,53.696ZM-354.877,509.6l2.767-28.023C-267.211,348.465-152.884,221.76-99.033,72.538c-25.723-18.683-77.183-11.978-106.581-17.763l-17.763-8.882c-2.842-.57-6.012.517-8.882,0h-8.882c-5.642-.863-12.105.833-17.763,0l-8.882-8.882c-11.336-1.435-24.279,1.57-35.527,0l-35.527-8.882c-32.558,7.15-250.567,382.741-306.381,435.684-7.338,15.713,5.474,45.536,13.285,61.692,9.411,3.148,13.541,9.329,17.763,17.763,1.189,2.375-1.213,6.568,0,8.882,31.661,60.413,69.557,122.988,97.281,175.529,136.419,258.536,277.484,520.629,411.43,777.179,55.027,105.396,100.465,208.311,153.619,307.889,194.405,117.161,381.131,248.75,581.111,355.877-28-115.454-66.26-225.728-97.699-337.505-100.256-54.559-204.17-109.504-291.732-183.44L-354.877,509.6ZM3455.968-272.395c-131.254,20.379-102.749,78.987-118.977,179.417-6.689,41.395-35.89,255.538-48.123,271.619-19.544,25.693-159.019,67.011-199.362,89.294-.55.304,1.151,10.372-8.882,8.882,4.039,5.845-9.624,15.91,17.763,17.763,73.853,4.998,222.845-99.646,288.196-88.947,17.531,2.87,137.938,126.502,164.772,151.119,3.103,2.846,5.831,6.069,8.882,8.882,1.6,1.475,7.284-1.477,8.882,0,3.093,2.859,5.842,6.044,8.882,8.882,15.081,14.078,30.392,39.446,35.527,44.409.747.722,9.721,1.069,17.763,8.882,3.008,2.921,5.887,5.964,8.882,8.882l8.882,8.882c9.011,8.789,17.72,17.921,26.645,26.645l8.882,8.882c2.995,2.921,5.881,5.959,8.882,8.882l8.882,8.882c80.851,78.606,158.635,161.288,239.807,239.807l8.882,8.882c8.935,8.6,17.381,17.784,26.645,26.645.743.71,9.736,1.232,17.763,8.882,3.025,2.882,5.846,5.994,8.882,8.882l8.882,8.882c12.509,11.952,24.97,33.896,26.645,35.527l8.882,8.882c12.284,12.348,81.247,78.491,88.817,79.936.614.117,3.825-9.563,8.706-8.981,1.039,4.129-.436,11.442-.342,15.418.176.789.355,1.548.517,2.445,1.238,1.487,7.312-1.459,8.882,0l8.882,8.882c18.037,16.695,27.904,23.458,44.409,44.409.945,1.2,2.134,2.282,3.352,3.352,2.006,1.761,4.116,3.475,5.529,5.53,11.943,17.354,22.874,33.627,30.934,53.478,58.502,144.101,101.359,343.218,146.7,497.189,18.325,62.23,128.278,482.022,152.851,495.41,6.332,3.45,32.12,3.372,33.62,1.967,14.682-13.757-43.754-156.417-35.481-186.516-16.577-15.005-13.023-35.761-17.763-53.29-9.495-35.115-17.74-74.989-26.645-106.581-59.507-211.098-142.624-537.675-230.925-728.301-46.243-41.465-107.294-81.102-142.108-133.226-1.886-2.824-6.363-5.294-8.882-8.882-242.736-209.669-463.485-445.534-696.725-666.612-19.35-14.445-44.671-7.374-67.151-8.359,12.462-106.909,19.036-217.466,36.162-323.638,9.771-60.568,53.024-41.174,94.351-24.473,466.296,188.436,954.269,470.333,1408.927,696.044,76.677,38.066,156.518,75.301,236.952,104.994,2.391-36.846,4.029-39.974,35.527-62.172-207.773-39.525-522.371-236.653-725.116-336.25-328.207-161.23-658.076-319.089-986.745-479.414Z" fill="#edad3e"/>
  <path d="M-1928.667,1884.409l-16.913,16.913c2.306-2.764,7.622-11.185,16.913-16.913ZM4053.172,3705.072c-11.952,111.118-93.876,320.307-59.844,424.056,4.19,12.773,36.395,74.077,55.364,55.682-9.953-160.181,11.032-320.425,4.48-479.738ZM6953.055-1499.527c-1.885-.717-3.63-1.033-5.311-1.166,1.766.364,3.549.835,5.311,1.166ZM4556.616,2286.903c-27.606-52.204-67.753-115.907-104.503-161.95-13.802-17.295-95.409-104.813-107.667-105.931-11.708-1.068-16.191-3.282-24.837,7.41-7.748,9.582-43.24,167.666-38.763,180.759.821,2.403,30.701,30.427,36.614,35.188,25.145,20.246,102.593,70.884,130.949,86.116,224.684,120.699,558.339,257.766,799.637,350.546,20.58,7.912,121.267,50.823,132.923,40.202,1.666-1.519-1.657-13.05.021-17.716-85.083-21.328-172.054-63.304-248.688-106.581-122.148-49.405-445.032-168.434-532.903-239.807-41.084-33.372-20.819-26.704-42.782-68.237ZM7015.227-1446.237c53.93,7.768,135.251,37.293,195.075,49.173,46.599,9.254,95.031,18.192,142.431,21.881,7.123-4.427,37.207,9.708,35.48-8.79-109.366-19.609-216.145-54.82-326.809-68.652-14.245-1.781-37.074-9.927-46.177,6.388ZM4507.615-430.489c4.137,3.669,1.95,13.642,2.966,14.531,8.717,7.624,52.9,27.773,62.172,35.527,76.573,64.033,213.61,156.976,275.333,222.043,28.714,2.177,17.212-4.999,4.535-17.856-26.313-26.688-65.414-63.854-93.352-88.725-3.142-2.797-6.564-5.697-10.146-8.658-48.74-40.299-134.765-94.944-167.489-142.331-5.926-8.583-6.622-23.884-8.882-26.645-51.079-42.704-109.675-88.736-155.697-141.812-16.061-18.523-33.557-50.178-48.583-71.35-39.71-2.94-45.519,30.032-30.881,62.03,11.559,25.267,140.049,136.66,170.022,163.245ZM6335.842-504.59c-17.859,38.11,35.295,101.548,29.378,152.9-6.224,54.032-200.835,335.667-249.318,355.345-38.682,15.7-98.609,6.535-138.515-1.329-27.792,67.244-139.173,145.247-163.399,205.673-30.668,76.488-36.524,294.95-52.354,391.733-18.209,111.333-41.783,224.868-76.297,332.262-97.402,303.058-363.541,575.289-506.812,861.004-9.064,43.346,3.8,18.875,20.184,28.755,717.138,541.281,1435.229,1111.522,2270.035,1461.318,6.953,7.026,5.821,19.093,8.331,22.415,113.879,150.746,213.071,426.101,306.23,604.147,43.421,82.988,108.672,221.706,155.62,292.907,73.685,111.75,152.426,215.412,217.784,337.323,11.68,21.788,37.992,99.709,41.98,104.566,5.294,6.444,23.794,7.915,33.007,15.583,26.264,21.858,55.532,163.04,61.786,204.779,7.73,51.612,23.759,174.769,18.624,221.64-12.493,114.025-161.153,2.514-209.926-2.079-12.95-1.219-28.183,7.787-43.19,6.957-48.55-2.683-263.543-144.459-292.875-187.857-5.726-8.472-2.148-24.38-7.193-32.396-2.48-3.94-42.556-25.442-55.564-37.722-27.125-25.608-133.751-135.528-136.309-164.107-7.62-85.124-22.044-179.183-48.094-264.321-5.741-18.762-22.383-92.017-46.147-86.832-19.6,4.276-41.409,84.94-82.054,64.617-14.705-7.352-104.263-140.007-119.968-164.82-46.79-73.92-206.77-345.338-224.99-414.843-12.65-48.253,18.687-85.834-13.806-154.596-25.95-54.917-159.583-109.262-217.86-137.41-108.283-52.302-221.497-100.078-332.092-147.521-602.356-258.397-1221.669-478.604-1829.254-724.15-100.798,296.809-209.822,591.702-290.668,895.146-39.792,149.348-98.473,356.264-115.531,506.193-10.459,91.938,9.048,117.997,49.312,194.457,75.848,144.037,197.412,319.111,296.239,449.826,19.922,26.35,60.158,86.174,82.57,103.946,46.265,36.682,131.273,10.267,186.845,7.998,23.292-.951,43.603,10.084,62.341,9.904,40.787-.392,102.388-32.446,160.093-27.706,90.643,7.447,190.635,110.816,248.278,178.246,21.842,25.549,66.533,74.723,66.487,106.706-.046,32.203-48.975,92.858-79.432,102.643-102.772,33.016-251.232-2.728-360.525,22.232-146.589-34.913-347.213,16.063-487.757-9.838-45.573-8.399-99.15-91.469-111.447-132.801-5.513-18.531-6.492-72.502-10.272-78.566-1.54-2.469-25.897-7.962-38.014-19.697-28.463-27.56-79.885-149.67-102.645-164.146-24.089-15.321-41.102,21.841-66.604,21.997-39.749.242-87.165-89.756-85.479-126.462l-345.298-508.66c80.738-417.278,115.788-844.705,133.538-1269.037,9.937-237.541,15.01-477.59-.453-715.341-85.681,19.444-183.379,38.964-270.89,44.32-861.573,52.727-1571.609-504.867-2344.522-781.675-261.778-93.751-543.245-171.518-821.701-186.301,57.545,224.693,138.799,442.322,199.791,666.104,78.053,286.378,146.792,582.234,151.491,879.8-123.155,176.121-273.23,329.985-426.569,479.316-410.743,400.007-850.111,772.447-1261.567,1172.025-133.177,157.614-156.099,277.02-45.446,454.26,159.205,255.011,374.922,486.454,542.517,736.884,24.387,16.465,172.411-15.26,213.707-18.516,80.732-6.365,158.961-10.065,239.762-17.808,24.573-2.355,115.534-12.049,131.339-7.2,9.038,2.772,102.279,81.898,117.515,95.715,40.279,36.524,148,144.894,172.959,186.75,8.887,14.903,22.942,55.91,13.497,70.984-11.545,18.426-125.338,93.232-151.937,96.995-307.004-14.939-636.74,22.507-941.062,1.146-113.063-7.936-129.82-76.717-155.057-169.126-2.428-8.89.635-21.711-4.026-35.566-7.864-23.373-118.989-147.028-138.322-155.754-29.778-13.441-57.369,43.582-119.458,31.248-23.582-4.685-117.271-99.191-110.058-126.768,10.063-38.472,72.706-28.078-1.244-108.318-98.389-106.756-243.714-231.976-355.066-328.83-127.117-110.564-260.613-214.17-395.633-314.904-8.872-5.566-10.791-13.127-12.804-22.723-5.855-27.91-21.657-163.685-13.371-181.692,8.047-17.486,128.157-117.399,155.463-146.449,381-405.326,558.291-962.092,772.236-1463.577,23.021-26.316,169.512-89.17,176.454-110.106,62.814-189.445-322.19-448.305-429.262-569.983-275.123,193.738-560.789,377.64-860.08,532.928-555.182,288.056-817.94,280.642-1422.564,344.897-489.733,52.046-973.838,139.54-1439.143,301.675-299.122,359.647-637.129,686.911-926.222,1054.787,9.743,176.505,18.086,355.261,70.592,525.245l283.245-21.881c10.212,4.296,18.676,10.929,26.833,18.234,57.731,51.701,152.837,163.166,177.225,235.752,6.923,20.604,28.56,91.74,16.809,105.683-3.628,4.304-42.809,5.588-54.296,10.497-8.583,3.669-8.871,14.793-13.207,16.92-40.617,19.92-166.414,6.926-220.565,8.641-176.538,5.594-419.254,15.428-592.554-10.642-70.321-10.58-72.965-69.248-77.649-131.099-10.238-135.158,25.16-376.179-.169-491.179-1.51-6.856-15.424-7.055-20.206-17.247-19.05-40.605-101.203-318.944-93.78-346.686,395.49-458.034,735.414-964.836,1028.867-1494.209,11.252-12.76,24.854-25.106,41.936-29.117,78.691-18.478,178.411-22.339,261.977-40.001,71.043-15.016,150.456-34.908,220.195-55.139,1043.123-302.607,1663.411-1245.785,2300.207-2051.746-120.171,17.409-240.178,40.918-360.793,56.558-1338.294,173.533-2599.731-126.743-3484.573-1184.69-80.601-96.368-257.843-325.478-287.247-441.022-16.326-64.15-7.248-119.112,69.911-87.634,341.051,393.308,706.939,781.164,1170.349,1032.245,1009.255,546.829,2518.32,416.828,3511.332-115.472,388.01-207.992,637.802-343.211,1084.846-425.047C-11.271-496.674,942.802-477.395,1806.001-540.396c249.154-18.185,585.415-30.699,823.639-82.297,172.504-37.364,427.818-178.849,608.66-243.986,163.195-58.78,330.625-108.454,499.451-148.915,121.849-29.203,289.052-44.636,400.206-79.408,60.089-18.798,232.026-131.635,301.38-169.35,38.721-21.056,82.173-43.852,123.698-58.353,3.687-50.495-34.173-80.728,4.916-123.964,16.1-17.809,228.022-172.034,247.075-179.235,28.344-10.712,50.847,2.342,64.392-6.029,278.993-286.717,545.114-585.981,838.921-857.906-41.901-37.465-85.832-84.725-128.868-119.663-33.283-27.019-156.382-102.486-166.216-126.881-22.577-56.001,7.253-152.52-16.018-214.963,2.139-85.461,161.614-131.519,231.608-159.93,155.982-63.314,296.514-104.122,449.715-180.886,27.109-13.583,47.709-37.225,73.511-50.834,16.345-8.62,156.72-65.743,165.627-66.2,58.749-3.009,149.526,163.454,169.772,168.986,35.282,9.64,80.761-10.041,113.64-9.756,108.581.945,273.642,48.7,363.526,44.51,60.776-2.833,188.496-82.672,251.41-95.239,65.427-13.069,140.351,70.805,179.714,118.344,40.685,49.135,69.615,124.759,103.017,163.436,21.828,25.275,96.614,57.711,132.373,89.67,25.107,22.437,42.253,52.408,62.464,70.762,26.718,24.264,96.648,60.138,109.828,85.561,30.002,57.872-12.528,111.255-7.368,166.523,4.293,45.987,49.318,117.166,45.85,172.405l750.332,257.817c60.467,28.77,119.316,71.579,81.502,146.978-122.048,135.575-304.008,513.7-464.74,584.117-20.84,9.131-34.838-3.205-39.022-.477-4.443,2.897-43.734,71.465-58.9,88.229-103.172,114.042-216.052,123.369-361.789,95.155-60.827-11.775-126.482-44.686-189.045-50.762-92.466-8.981-206.644,1.252-302.269.291-40.382-.406-76.837-12.957-123.843-9.082-90.851,7.489-181.227,79.445-262.575,119.307l-545.729,697.83ZM6797.625-1170.904v8.882c5.768-2.961,5.768-5.921,0-8.882ZM8294.221-2183.296c-15.287,15.359,5.772,14.969,12.603,18.439,22.108,11.233,51.183,19.611,73.74,32.733l251.102,28.594c1.579-13.031.314-21.304-8.111-31.78-13.989-17.394-164.367-59.797-193.944-63.56-25.762-3.279-119.598-.293-135.39,15.573ZM7015.281-3195.837c-.562,14.308,25.031,14.93,35.473,17.664,74.142,19.408,151.603,29.72,221.956,62.168l-26.558-133.221c33.47.23,49.487,22.286,79.879,26.567-86.526-106.12-204.264,25.071-310.75,26.824ZM5665.287-2596.503l-222.125-359.626v199.839c0,23.556,92.957,64.755,114.853,80.545,28.668,20.673,53.512,48.021,80.462,70.523,7.104,5.931,17.958,23.425,26.81,8.72ZM5669.646-2583.097v8.882c5.768-2.961,5.768-5.921,0-8.882ZM-5579.054,5135.208c46.381,64.038,96.594,127.767,137.133,195.841,4.441,7.457,45.475,120.394,67.101,97.121,17.393-18.72-55.593-147.936-72.528-171.628-14.644-20.488-110.18-138.086-131.705-121.334ZM-5757.246,5149.05c30.935,104.743,99.227,200.584,107.137,314.693h186.516c5.786-63.055-107.332-312.197-157.264-326.798-19.582-5.727-132.576-3.081-136.39,12.105ZM-1329.031,2292.849c-107.35-131.63-339.057-279.566-413.12-426.203-17.291-20.749-26.331-33.768-30.522-41.852h0c-2.277,4.87-4.96,8.18-7.946,10.567-.032.026-.064.053-.096.078-.726.575-1.471,1.095-2.231,1.57-.034.021-.068.041-.102.063-5.822,3.597-12.595,4.588-19.655,6.931-.219.073-.439.146-.658.222-.799.275-1.6.576-2.404.893-.323.128-.646.253-.97.388-.766.323-1.534.685-2.303,1.06-.318.156-.636.295-.954.461-1.07.557-2.141,1.163-3.211,1.855,56.817-89.424-76.811,17.154-106.581,35.527,39.873-37.648-5.3-108.985.563-127.853,6.754-21.736,54.542.893-.802-72.147-177.519-234.28-298.618-453.536-345.118-755.816-2.651-17.237-5.159-113.733-9.992-118.798-3.217-3.372-80.02-1.63-93.204-.103-189.727,21.972-488.083,456.012-608.372,603.985-230.16,283.13-459.098,564.508-728.177,812.801-66.025,69.483-218.346,181.131-298.081,245.635h-.016c-1.105.9-2.29,1.863-3.543,2.884-1.212.984-2.404,1.958-3.578,2.921-.288.236-.604.497-.899.739-13.25,10.87-24.099,20.196-31.509,27.382l301.976.089c-70.834,4.549-274.946-2.864-322.289,10.775-23.582,6.796-172.026,117.516-213.527,141.741-195.911,114.361-371.533,184.446-565.517,247.162l-506.258,106.581c-35.422,21.737-41.346,71.4-60.528,103.783-242.945,410.175-505.875,813.662-801.244,1188.262-51.834,65.737-108.487,145.675-176.483,192.559,30.919,65.329,34.651,175.173,60.543,234.73,5.869,13.499,9.61,24.665,27.368,21.482v-262.011c0-8.355,31.495-28.484,44.363-22.159-16.088,92.263-6.172,186.633-8.469,280.095-5.158,209.805-24.469,427.993.655,638.096,2.163,18.089,9.264,55.19,25.49,63.328l524.122,22.011c-19.443-71.117-33.265-149.758-61.904-217.782-7.209-17.123-33.449-47.258-34.63-54.686-2.87-18.057,30.935-25.636,25.472-47.171-43.388-.927-82.467-16.056-127.12-6.832-27.176,5.614-22.529,22.749-38.765,31.446-21.848,11.703-57.693,25.757-82.759,28.543,40.942-48.522,78.643-103.014,151.008-88.767-33.376-181.475-71.706-365.329-58.231-551.108,296.111-367.897,631.768-701.464,937.924-1060.463,513.143-175.873,1036.458-264.951,1576.156-315.65,61.662-5.794,133.333-2.758,194.452-10.029,35.553-4.231,36.425-11.761,58.604-34.454,2.081,14.108-21.938,25.572,4.561,26.931,45.203,2.32,163.905-11.101,211.966-19.195,24.407-4.11,46.084-3.019,58.807-25.5-3.555,28.742,8.458,14.914,25.199,11.94,232.594-41.324,467.179-145.507,676.457-251.747,226.775-115.124,471.484-254.732,681.476-397.653,58.203-39.613,122.054-99.285,176.731-134.145,36.455-23.242,63.331,4.596,7.88-63.396ZM-70.842,5955.113c-2.544-9.255-8.322-38.881-19.223-38.354l26.467,79.844c3.768-16.062-3.471-27.762-7.244-41.49ZM-88.558,5907.278l-21.324-72.463-10.644,3.131,21.324,72.463,10.643-3.131ZM78.611,5650.355c63.187,75.187,161.65,157.758,213.152,239.711,13.714,21.823,31.728,85.933,35.626,88.786,3.527,2.581,77.259-32.091,79.828-35.627,12.217-16.818-51.954-76.02-62.163-88.686-62.861-77.985-126.356-145.152-204.556-208.939l-61.886,4.755ZM-81.269,5668.023c-12.582,5.985-62.544,47.025-62.559,57.462-.012,8.353,63.602,119.682,73.44,150.066,7.655,23.642,24.077,156.623,46.851,156.623h284.215c3.295,0,13.367-11.748,22.275-8.97-19.205-82.603-54.526-144.494-103.139-212.145-19.429-27.038-97.885-128.865-118.975-143.036-24.202-16.263-115.024-12.885-142.108,0ZM-125.768,5818.966c6.382-12.475-5.618-23.698-8.701-17.672-6.382,12.474,5.618,23.698,8.701,17.672ZM-139,5783.485v8.882c5.767-2.961,5.767-5.922,0-8.882ZM-147.882,5765.721v8.882c5.767-2.961,5.767-5.922,0-8.882ZM-285.549,5676.904c12.882,1.259,47.932,14.977,62.172,17.763,41.461,8.112,70.479,19.967,97.696-26.556-53.574.241-107.518-4.13-159.868,8.793ZM4033.627,2069.139c14.877-6.591,45.754-5.932,49.608-21.015.713-2.79-6.196-54.823-8.046-57.031-1.385-1.652-19.65-.054-26.458-.104,32.526-13.23,9.231-34.829,8.787-62.237-11.509,8.019-24.823,5.909-35.433,8.947,45.392-11.019,24.548-50.21,17.079-83.689-23.157-103.801-64.23-204.621-92.652-307.029-49.444-178.151-74.053-344.187-164.234-506.336-85.198-153.19-175.564-255.39-304.779-370.339-7.315-6.507-26.644-5.41-32.726-11.575-16.118-16.334-22.24-65.735-71.054-53.29-76.464-75.627-169.835-146.699-248.688-222.043-14.307-13.67-41.063-30.582-53.29-44.409-48.654-55.017-78.563-134.858-115.462-195.398-150.729-247.294-245.631-390.131-301.979-683.893-2.71-14.127-16.688-31.811-8.92-53.303-13.556-5.026-27.623,8.202-35.489,8.895-392.426,34.549-791.237,83.179-1190.151,97.699-5.905.215-11.85-.071-17.763,0-8.851.106-17.826-.477-26.645,0-9.718.525-22.326-2.811-26.645,8.882-5.829-.478-11.886.111-17.763,0-203.206-3.853-422.398,23.762-626.254,35.435C3.808-402.565-784.585-403.922-1440.173-140.624c-74.431,29.893-152.626,66.319-222.043,106.581-158.82,72.725-302.125,169.831-464.726,241.371-361.694,159.136-839.857,291.759-1231.683,344.823-169.373,22.937-344.213,30.807-515.14,35.527-11.814.326-23.702-.002-35.527,0h-115.462c-85.92-14.04-175.423-8.051-261.965-17.81-857.201-96.666-1428.317-403.71-2021.024-1016.753-101.996-105.495-196.247-229.833-297.067-333.307-31.874-32.713-77.985-67.915-66.137,3.917,24.42,148.049,327.778,500.873,438.961,618.013,537.64,566.445,1180.823,886.639,1955.373,1002.241,187.132,27.929,439.349,59.14,624.892,36.796,9.207,14.905,24.053,16.646,39.767,17.948,156.105,12.931,414.907-18.591,576.253-36.972,259.36-29.548,515.935-95.168,778.442-87.511,5.221-120.665,51.623-236.842,115.431-337.55-8.871,61.711-42.514,115.019-59.643,175.723-103.836,368.001,82.264,763.326,299.318,1052.156,21.983,29.252,76.556,103.371,98.001,126.129,8.247,8.753,23.986,9.389,35.356,22.66,4.085,1.373,56.533,61.861,62.562,66.01,121.971,83.923,317.478,325.154,439.021,440.482,157.388,149.341,370.226,358.222,555.342,461.615,35.359,19.75,79.509,46.33,53.924,93.82l-329.257,199.277c-116.45,212.105-187.954,469.19-284.215,692.774-24.947,23.411-28.855,32.686-44.409,62.172-135.332,256.555-254.546,487.984-457.283,701.782-26.558,28.007-123.993,103.413-133.555,124.509-8.877,19.586,3.762,47.192,4.644,70.763,30.168,13.778,63.787,44.255,88.938,66.494,204.518,180.844,400.802,372.976,586.073,572.99,27.861,30.078,142.852,130.789,149.822,157.245,11.497,43.641-72.335,62.606-43.767,105.167,5.896,8.784,61.378,62.138,68.998,64.46,58.634,17.86,68.322-42.88,95.689-42.754,27.872.13,169.822,148.606,185.95,178.448,29.152,53.937,7.714,171.697,91.693,192.523,22.257,5.519,93.544,9.836,121.818,11.407,149.713,8.32,307.282-6.905,457.793-.407-20.799-98.179-53.668-206.489-106.599-293.056-3.38-5.527-5.294-12.664-8.882-17.763h-230.925c-.588,2.541-.009,6.057,0,8.882-91.065,69.208-42.36-11.965-.583-50.042-109.361-152.717-232.644-300.732-344.182-453.397-169.255-231.662-444.044-496.507-179.488-771.32,345.932-324.64,694.872-646.294,1039.393-972.317,21.51-20.355,41.18-42.121,62.172-62.172,24.601-23.499,50.946-41.316,79.936-71.054,20.934-21.475,44.061-33.753,62.172-62.172,27.601-5.755,37.493-29.556,53.29-44.409,91.484-86.013,199.827-182.806,279.131-275.989,17.749-20.857,114.364-150.083,118.385-165.822,5.771-22.582,3.42-62.192,2.519-87.024-4.013-110.626-33.182-224.438-53.649-332.692-14.34-75.848-26.122-137.758-44.409-213.161-28-115.454-66.26-225.728-97.699-337.505-114.85-408.334-224.16-786.929-386.638-1180.986C77.659,486.975-32.852,296.687-72.388,134.71-13.053,257.317,57.292,374.986,114.129,498.86c56.575,123.304,98.679,269.446,158.122,388.104,25.331,50.564,75.858,111.705,102.891,163.56,35.358,67.824,32.338,128.418,112.613,171.603,66.51,35.78,335.964,69.187,436.526,96.378,932.535,252.15,1751.227,984.679,2751.419,859.001,169.087-21.246,207.597-41.769,357.927-108.366ZM5234.355,4904.372c30.381,55.481,72.012,110.119,119.903,150.807-19.635-59.572-70.578-114.17-119.903-150.807ZM5225.56,4895.313c5.768-2.961,5.768-5.922,0-8.882v8.882ZM5207.796,4877.549c5.768-2.961,5.768-5.922,0-8.882v8.882ZM5185.501,4859.74c6.383-12.475-5.618-23.698-8.7-17.672-6.383,12.474,5.618,23.698,8.7,17.672ZM4937.747,4854.256c.844,5.746,45.28,63.833,53.97,79.501,17.913,32.299,81.882,152.479,84.65,180.331,1.145,11.52-11.318,42.169-6.187,47.634,6.825,7.273,170.13-26.768,198.575-18.93,46.64-14.911-26.59-156.238-43.921-184.581-17.282-28.261-98.132-137.649-123.796-142.597-23.79-4.585-168.288,4.607-163.291,38.642ZM4616.278,2627.548l-506.177-231.586c-13.752-17.727,4.236-171.001.682-213.896-10.503-126.745-20.495-75.121-86.886-51.6-25.574,9.06-135.452,28.823-143.287,52.746-4.471,13.651,8.114,41.617,8.656,60.54,5.87,205.108-1.102,413.483-9.287,617.646-17.46,435.482-47.696,873.657-133.447,1300.739,84.311,134.817,181.303,261.785,266.673,395.67,26.908,42.2,57.486,83.11,81.518,127.204,7.281,13.362,30.596,82.938,34.386,85.562,31.325,21.694,48.075-64.846,86.677-42.132,7.938,4.671,83.286,136.186,95.466,157.533,7.276,12.752,10.174,37.424,14.873,42.741,17.484,19.792,105.99,27.647,113.315,42.225,11.231,22.353-56.127,8.798-59.922,35.063-3.012,20.834,64.004,132.658,86.842,142.251,75.932-.605,505.926,34.748,542.106,9.62,9.028-6.27,8.897-17.123,8.893-26.876-.016-33.829-128.69-294.454-148.746-298.474-39.892,20.361-144.533-2.639-171.625,13.828-30.026,18.252-84.329,232.676-144.651,216.771-16.844-4.442-81.938-82.903-68.352-96.713,15.989-16.254,58.062,51.474,79.831,40.458,38.034-19.248,73.044-143.759,105.115-178.249-120.219-139.765-229.227-300.538-327.102-457.327-38.332-61.404-143.326-213.682-142.37-279.322,44.576-217.356,95.932-433.593,151.948-648.122,13.358-51.156,71.019-199.852,70.358-236.062l194.514-580.237ZM7396.993,4198.126c-66.812-98.822-118.146-206.925-179.217-309.158-28.415-47.566-79.497-88.368-78.254-148.284-33.789,13.367-79.286,9.418-57.926,53.534l236.327,443.217c14.945,10.708,65.572-27.222,79.07-39.309ZM7388.953,4280.737c-2.084,1.459.657,9.634-.837,10.529-7.216,4.325-17.059-22.339-26.313-13.33,14.359,6.926,21.196,66.259,39.645,57.74,17.851-8.242,29.572-84.387-12.494-54.938ZM7770.828,4748.248c-4.788-6.306-117.964-93.734-125.181-96.992-9.448-4.265-40.011-8.339-44.182-4.585-15.631,14.065,49.388,60.819,48.369,80.325,20.328,13.019,90.345,106.134,111.258,88.284,4.322-3.688,20.611-52.711,9.736-67.031ZM7994.287,4335.899c-12.526-6.015-24.247-17.564-19.93,4.352,15.209,77.203,66.37,162.046,79.094,249.579,4.922,33.858,8.645,95.854,10.185,131.923.968,22.693,5.089,201.222-14.072,200.485-47.142-15.172-109.418-63.932-158.352-62.305-6.926.23-11.593,7.984-14.459,8.735-6.081,1.595-17.217-4.126-24.301,2.348-4.356,3.981-1.407,14.759-2.344,15.415-5.107,3.577-33.222-3.209-35.517,17.668,88.18,21.508,156.734,98.527,239.07,129.624,21.413,8.088,28.074-.392,9.608-14.066l-213.161-133.226c5.625.742,13.624-1.402,17.763,0,21.917,7.423,62.831,33.7,78.175,52.527l143.868,71.817c5.661-.806,11.976.54,17.763,0l4.473-8.741c2.408,2.422,2.789,8.131,4.408,8.741,58.736,22.061,100.377,67.287,159.782,88.815,7.377-132.408-23.948-261.925-35.492-393.14l-79.792-59.824c15.333,114.796,67.645,272.662,53.22,386.511-1.557,12.286-5.245,26.326-17.689,13.175-8.155-8.619-15.055-152.95-18.991-180.952-5.394-38.373-20.58-169.141-34.226-194.537-7.134-13.279-61.489-19.303-71.176-46.447,8.059-6.212,93.209-3.624,88.68-17.616l-166.589-270.862ZM7992.169,4317.957c16.786-18.775-43.538-64.327-57.78-70.824-9.646,19.598,46.131,83.853,57.78,70.824ZM6313.524-442.568c-84.017,17.831,20.1,104.64-46.492,135.532-85.293,39.568-243.337-26.188-323.617-62.948-173.049-79.238-299.614-188.322-446.962-303.543-40.354-44.821-80.844-96.275-133.226-124.344-116.64-152.623-241.694-296.508-346.387-461.85-55.457-87.583-126.875-192.498-168.753-284.215-3.695-8.091-1.162-40.055-8.988-53.268-2.728-2.081-20.038,10.698-25.515,14.324-28.97,19.181-204.215,143.769-214.792,158.187-19.605,26.723-1.959,38.83.607,58.391,7.27,55.412,9.844,30.791,20.385,55.444,90.548,211.77,216.564,343.05,326.002,530.75-21.222-20.129-18.661-16.924-38.825-41.214-118.213-142.411-233.31-303.895-300.914-480.395-30.626-24.114-31.802.421-42.175,6.469-115.119,67.123-274.846,170.622-390.796,222.043-25.476,11.298-101.357,28.228-133.226,35.527-323.803,74.156-563.488,128.487-857.621,235.52-30.994,10.522-58.422,20.692-79.627,29.795-16.037,6.152-32.196,12.411-48.624,18.901-97.189,38.396-180.553,71.785-275.333,115.462-47.978,22.109-106.302,11.658-97.699,79.936.171,1.356.428,2.785.618,4.158,22.454,162.129,177.677,435.319,256.952,582.036,18.137,33.568,34.694,73.869,53.29,106.581,29.014,51.036,55.407,93.751,88.817,142.108,4.039,5.845-9.624,15.91,17.763,17.763-.95,5.53,1.478,13.356,0,17.763l150.989,124.344c150.681,140.976,320.751,262.463,470.855,403.994,25.32,23.873,125.503,117.535,135.233,140.038,16.873,39.026-7.903,77.718.014,124.433,6.544,38.616,36.596,102.644,48.622,146.735,53.175,194.967,110.2,390.525,159.867,586.199,45.634,179.781,91.799,348.998,73.227,537.748,89.032,34.087,194.847,106.586,284.571,130.294,1.999.528,3.506,6.19,6.873,6.618,6.678.85,8.768-6.048,10.891-6.618,4.845-1.301,12.143.874,17.763,0-.481,1.417-.611,7.67,0,8.882,5.914,11.737,11.041,5.519,17.763,8.882,224.318,112.234,467.96,188.685,701.98,277.993,20.69,7.896,41.329,15.855,61.848,23.986,86.187,34.152,171.358,76.241,257.852,110.74,492.606,196.484,989.891,382.193,1469.714,608.61,14.08-50.012-62.804-91.639-93.329-124.275-.773-9.694-9.462-19.572-4.546-26.45,51.025,25.958,108.089,57.3,155.535,88.622,72.895,48.121,116.896,118.01,133.226,204.28,15.537,82.078,57.612,115.713,96.786,184.974,67.84,119.94,126.315,249.528,205.193,356.811,19.819,26.956,74.161,85.261,84.628,106.329,25.989,52.302,34.753,233.817,52.635,258.215,7.21,9.835,49.994,12.383,67.016,17.37,18.455,17.588,127.07,64.401,142.076,53.256.435-5.872-.216-11.829.031-17.729,2.134-51.092-9.307-95.162,0-142.108,4.032-20.339-9.025-38.524,22.314-44.615,45.763-8.897,41.145,6.549,48.74,35.733,2.539,9.758,8.891,13.242,7.147,28.668-4.838,42.791-31.687,155.859-51.556,193.375-7.855,14.831-32.916,22.443-35.526,44.32,25.593-2.017,47.681,7.533,69.699,17.656,9.963,5.697,22.047,10.75,36.241,15.16,3.142,1.03,6.304,1.997,9.521,2.799,6.047,3.272,11.675,5.863,17.763,8.882,13.505,6.696,83.212,39.529,88.703,35.59,2.133-1.529,9.906-40.352,9.802-48.869-1.907-156.79-11.917-338.512-94.607-474.673-15.35-25.277-43.561-25.918-39.496-66.29,1.694-16.822,19.074-33.695,17.834-49.715-1.691-21.842-101.082-176.653-120.093-212.972-107.872-206.072-203.486-417.839-315.111-621.91-11.128-20.344-18.767-43.567-35.527-62.172-4.594-1.67-10.947-6.16-17.763-8.882-174.139-69.529-351.633-148.077-515.14-239.807-413.464-231.959-835.43-539.088-1219.615-818.74-193.232-140.657-447.102-377.074-657.277-470.675-15.783-7.028-57.219-14.051-59.337-16.282-13.629-14.364,23.037-24.77,31.474-34.894,161.14-193.342,166.829-551.566,155.055-791.022-4.716-95.931-32.513-229.307-26.645-319.742,2.391-36.846,4.029-39.974,35.527-62.172,2.858.544,6.034-.563,8.882,0-9.762-56.121-10.857-112.93-21.896-169.061-18.359-93.362-49.206-192.277-75.803-283.907-29.614-102.023-85.908-201.326-88.725-310.818,10.346-1.993,12.028,10.361,17.671,17.721,38.719,109.533,79.89,217.9,115.462,328.624,41.588,129.448,65.053,221.139,88.817,355.269,4.914,27.737,5.367,53.777,8.882,79.936.705,5.251,8.255,12.741,8.882,17.763.247,1.98,3.66,4.289,6.184,6.184l2.697,2.697c2.429,15.947-1.097,36.172,0,53.29.083,1.303-.434,3.728,0,8.882,16.098,191.359,15.517,369.782-23.677,558.076-29.494,141.697-111.323,338.145-125.211,470.185-2.905,27.617-5.091,58.38,24.455,73.07,1.542-24.544-2.693-50.285.864-74.721,9.493-65.219,186.846-279.741,239.289-338.014,14.503-16.115,29.527-37.635,53.032-40.231-71.065,86.376-152.842,197.438-205.8,296.018-13.947,25.961-51.751,83.173-33.963,107.968l17.836.258,301.863-484.18c116.612-124.01,164.336-239.332,202.113-406.284,32.894-145.369,46.084-298.473,64.249-446.359-38.1,48.925-70.202,116.914-96.357,174.445-79.725,175.363-102.444,351.509-178.888,518.327-34.958,3.741-69.085,59.982-112.891,23.903-56.273-46.349,3.222-137.997,17.781-185.626,15.171-49.631,11.07-106.511,50.684-144.667,49.346-47.529,80.903,10.334,102.04-13.083l199.908-426.549c-18.121-2.289-29.004,15.11-40.012,26.51-83.304,86.273-156.776,218.905-239.576,302.207-10.374,10.436-31.706,34.069-31.125,4.45L5940.478,1.339c6.989-15.83-58.547-26.678-70.628-31.307-125.187-47.966-248.737-101.746-351.312-190.519-21.958-4.567-12.511,22.268-13.204,35.454-4.937,93.852-23.557,190.115-35.527,284.215h-17.763c7.566-110.916,18.683-226.093,0-337.505-2.108-12.573,5.224-28.862-9.028-39.726-71.762-55.097-144.163-110.349-213.139-168.872-49.215-41.758-97.736-97.33-146.65-137.557-14.984-12.322-38.972-40.153-48.624-9.114-4.505-16.083-33.883-66.563-44.409-79.936,10.714-41.268-27.148-56.821-39.536-80.746-5.078-9.809-3.294-23.126-4.872-25.835,105.384,99.959,193.098,218.402,301.853,315.427,167.504,149.441,532.019,410.02,753.121,437.038,112.273,13.72,110.833,1.012,174.387-78.213,33.265-41.467,142.792-193.981,154.159-236.843,10.644-40.129-18.298-61.014-15.782-99.87ZM5522.225,788.833c-6.294-19.151-38.904-17.993-55.138-12.963-16.812,5.209-27.98,30.199-34.583,45.398-11.382,26.208-56.187,158.691-58.807,181.81-4.518,39.881,20.27,71.061,60.676,50.972,37.71-18.749,99.453-229.915,87.851-265.217ZM5212.029,1120.542c21.504-17.414,4.976-468.589.204-532.902-22.549-.493-51.011-5.96-53.744,22.484l27.141,510.506c7.293-1.208,23.879,1.953,26.399-.087ZM6425.513-681.488c84.117-110.671,305.645-346.612,353.96-454.278,3.411-7.6,11.265-22.856.262-26.386-85.63,24.779-185.584,70.907-275.044,71.435-10.224.061-33.49,5.915-31.185-9.022l568.3-222.266c-21.124-29.184-78.673-13.306-106.516-35.415,48.364-.946,69.287-4.735,124.344,0,13.644,1.173,16.495-.083,17.763,0,65.425,4.297,128.55,14.023,195.398,8.882,105.681,26.489,213.311-10.921,319.742,8.882,132.996,23.839,255.254,89.126,390.628,39.799,80.93-29.489,188.016-138.143,202.299-223.993,11.616-69.831,4.012-53.498-51.141-55.612-50.302-1.928-92.237,8.138-137.3,9.248-237.196,5.843-457.775-18.129-693.789-79.653-40.082-12.072-40.732-54.429.867-62.53,43.564-8.483,180.298,55.77,228.434,71.392,66.2,21.484,123.434,29.119,219.874,34.898,4.688.281,6.611-.07,8.882,0,17.538.538,35.781.791,53.29,0h2.258c4.912.224,8.164,1.79,24.387,0,20.669-2.281,52.307-5.049,71.054-8.882,86.551,20.905,175.76-7.918,266.452,0,98.49,8.599,31.904,85.675,44.45,97.649,24.457,23.339,84.598-51.732,97.437-66.819,24.835-29.185,144.601-195.078,142.901-221.214-.364-5.58-76.386-53.423-89.39-67.185-1.661-1.758-7.047-14.769-17.763-26.645-41.663-46.172-125.881-149.214-132.571-209.617-6.813-61.518,32.031-76.018,79.281-101.244,12.833-6.851,35.659-3.626,35.474-17.665l-523.968-177.733c24.941-58.216-42.299-186.833-62.172-248.688l-8.882-35.527c-1.329-5.195,1.486-13.067,0-17.763-2.325-7.345,3.985-20.433-8.882-26.645l4.397-26.603,22.248,35.485c1.143-.007,12.712,13.245,17.627,8.954,32.648-28.506-14.524-66.465-44.359-76-10.389-3.32-24.754,4.957-25.793,4.164-1.518-1.16-6.386-24.514-14.426-34.422-105.184-129.608-247.392-196.039-401.421-255.883-249.473-96.928-543.284-151.905-810.596-126.425-15.31-13.615-31.364-51.803-48.737-71.162-25.11-27.977-55.648-55.717-84.489-79.827-5.244-4.384-5.091-19.618-20.541-16.803-14.965,2.726-34.664,31.024-41.631,34.567-1.301.662-6.256.271-8.882,0-48.806-5.029-81.145,20.152-124.344,44.409-.301.009-.669.243-1.069.591-21.712,12.135-39.316,20.342-61.103,34.936-59.813,22.918-136.5,62.155-177.926,111.062-6.54,7.721-5.958,18.41-8.59,22.164-30.125,42.949-48.055,63.711-52.273,121.106-3.537,48.092,14.631,82.445,12.347,127.539-57.618-84.442-83.848-177.368-4.482-257.527,2.4-.933,65.493-36.012,31.416-35.252-68.933,26.746-140.249,48.015-208.922,75.35-25.972,10.338-50.294,30.699-71.182,39.837-27.71,12.121-157.358,35.917-150.989,79.936,179.406,190.465,254.909,473.679,413.744,674.267,226.068,285.498,404.383,56.283,421.567-216.43,12.267-194.685-9.324-417.054-9.311-617.708,2.574-61.747,15.99-120.738,35.527-177.634,41.024,7.706,154.665,141.962,151.707,173.048-1.921,20.197-22.354,19.95-30.889,32.142-41.382,59.118-78.164,123.266-118.934,182.991,9.096,161.876,11.985,321.155,6.997,482.228-25.717-5.292-16.202,12.702-20.268,28.128-35.614,135.144-102.886,306.049-272.744,273.856,12.548,36.91,16.273,87.774,44.324,115.457,78.291,245.586,276.277,398.553,524.022,452.968-7.052-.25-36.075,12.138-65.904,8.083-22.779-3.096-133.396-48.895-138.322-43.574-12.358,13.352,88.283,137.881,106.453,155.513,3.564,11.075-2.214,17.806-13.127,13.127-7.674-3.289-56.008-54.727-66.969-66.302-118.388-125.029-296.015-312.7-371.729-463.152-24.865-49.408-40.792-123.701-64.412-166.505-24.694-44.747-145.158-151.925-190.952-217.616-10.739-15.405-52.69-94.929-57.589-97.792-9.049-5.285-22.919.215-30.531,7.37-103.566,102.223-204.34,207.277-305.951,311.299-128.471,131.518-251.594,267.348-382.212,394.98l-141.809,164.569c131.91,292.42,324.985,571.799,559.549,790.473-.909,13.19,6.421,13.339,8.882,17.763,16.277,29.262,122.985,115.103,155.649,141.889,49.29,40.419,102.376,80.181,155.211,115.681,9.315,6.259,16.864,11.543,26.645,17.763,77.131,49.053,222.626,94.36,266.452,124.344.798.545-4.725,11.088,5.393,18.554,5.491,4.051,72.964,23.927,81.527,24.3,22.072.961,23.8-6.983,37.741-20.401,72.4-69.683,175.757-250.37,244.851-341.275ZM7041.872-2547.571c-53.251-40.305-103.289-86.515-150.989-133.226,69.824-28.816,136.236-81.515,212.715-93.715,59.188-9.441,105.144,8.172,160.318-3.984,3.198,18.012,72.202,115.288,53.29,142.108-1.683,2.387-32.751-7.657-13.819,44.988,11.345,31.551,68.278,43.102,67.109,88.238-14.359-21.861-21.079-20.36-44.409-26.645-99.327-26.759-186.317,37.31-284.215-17.763ZM7095.208-2707.488c.273.259.776.503,1.479.727,1.405.449,3.606.818,6.352,1.061,2.746.243,6.039.36,9.629.306,3.589-.054,7.474-.28,11.407-.724,1.966-.222,3.944-.498,5.903-.835,3.916-.673,7.756-1.587,11.269-2.786,7.026-2.4,12.741-5.946,15.152-11.005,1.206-2.529,1.584-5.437.888-8.769-7.061-33.788-88.824-3.283-62.079,22.025ZM7103.578-2569.207c53.776,10.938,155.078-26.799,137.012-91.876-4.725-17.021-16.788-39.303-37.671-27.313-7.886,4.528-34.985,65.179-68.306,70.083-59.054,8.693-63.901-94.768-119.308-67.093-57.698,28.82,45.162,107.43,88.274,116.198ZM5421.044,676.495c2.956-4.517,7.19-4.697,0-8.704-20.003,13.481-11,25.524,0,8.704ZM5270.105,1369.403c41.457-43.035,214.753-231.256,224.296-273.124,5.803-25.46,9.881-40.61-15.712-37.871-62.505,136.401-141.678,176.336-221.917,288.78-26.227,36.751-22.684,59.602,13.333,22.215ZM-1364.982,4202.235l-266.627,355.043c-21.812,67.029,53.505,168.937,80.262,231.568,15.173,35.516,6.263,78.499,61.398,43.352,58.712-37.429-19.801-135.281-28-183.216-4.278-25.008-4.407-48.965,2.043-73.697,26.435-101.361,147.728-241.149,184.255-348.59,3.28-9.647,12.149-36.342,6.894-41.875-6.146-6.472-35.068,5.849-40.225,17.415ZM4039.85,1990.99c-7.574.855-14.963.156-17.763,8.882,7.259-1.34,15.029.043,17.763-8.882ZM3999.376,258.819c0,63.107-51.158,114.264-114.264,114.264s-114.265-51.158-114.265-114.264,51.159-114.264,114.265-114.264,114.264,51.158,114.264,114.264ZM3859.788,189.749c-81.895,17.897-61.336,158.984,40.262,138.827,68.266-13.544,66.05-162.06-40.262-138.827ZM6919.466,3228.033c16.662,5.675,54.689,22.063,69.115,6.398-24.919-11.672-41.747-23.63-71.054-35.527-42.207-17.135-86.226-28.337-128.891-44.211,22.191,34.076,91.265,59.865,130.83,73.34Z" fill="#091328"/>
  <path d="M5212.237,481.097c-23.765-134.13-47.23-225.821-88.817-355.269-35.572-110.723-76.744-219.091-115.462-328.624,35.358,46.11,76.048,162.885,97.699,222.043,34.779,95.032,72.521,201.564,95.114,300.122,11.269,49.152,33.806,114.307,11.467,161.728ZM4749.124-273.626c-6.515-5.852-13.098-12.295-19.728-19.167-43.529-45.121-89.01-108.254-129.747-137.097-10.186-7.212-25.553-11.59-26.896-12.712,2.259,2.761,2.956,18.062,8.881,26.645,32.723,47.387,118.749,102.032,167.489,142.331ZM4572.753-442.602c-55.809-68.206-104.021-109.517-166.233-171.328-11.325-11.254-5.855-39.45-38.046-41.833,15.026,21.172,32.521,52.827,48.583,71.35,46.022,53.076,104.619,99.108,155.697,141.812ZM4039.85-1037.678c-323.803,74.156-563.489,128.487-857.621,235.52-26.064,9.484-52.611,19.431-79.627,29.795-16.037,6.152-32.196,12.411-48.624,18.901v17.763l8.882,8.882c-1.544-23.476,13.618-22.173,28.326-29.43,108.22-53.396,250.773-92.801,368.056-120.414l736.008-1.102c11.343-1.313-3.797-12.461-4.41-17.806-80.903-16.007-106.337-84.285-150.99-142.108ZM5380.99,2692.646c-80.718-30.477-159.736-65.547-239.806-97.699l-541.785-239.807c87.872,71.373,410.756,190.402,532.903,239.807h4.457c-1.589.258-3.18.516-4.457,0,76.634,43.277,163.605,85.252,248.688,106.581.972-2.704-1.045-6.475,0-8.882ZM4848.086-158.387c-61.723-65.067-198.76-158.01-275.333-222.043-9.272-7.754-53.456-27.903-62.172-35.527-42.039,49.979-103.515,91.847-25.997,145.897,36.555,25.488,56.82,15.449,88.362,27.104,114.682,42.381,219.757,171.096,324.048,235.5,11.64-46.231-17.035-117.332-48.908-150.931ZM4563.872-1295.248c-115.119,67.123-274.846,170.622-390.796,222.043v8.882l390.796-204.28c-2.123-6.353,1.441-18.71,0-26.645ZM-445.42,5721.313c-.588,2.542-.009,6.057,0,8.881.012,3.81-.982,17.034-.059,17.74,16.29,12.459,202.838-20.649,239.866-8.858-3.38-5.527-5.294-12.664-8.882-17.763h-230.925ZM7050.754-3178.173c50.878-16.901,145.499-71.398,195.397-71.054,33.47.23,49.487,22.286,79.879,26.566-86.526-106.12-204.265,25.071-310.75,26.824-.562,14.308,25.031,14.93,35.473,17.664ZM-285.549,5676.904c12.882,1.259,47.932,14.977,62.172,17.764,41.461,8.112,70.479,19.966,97.696-26.557-53.574.241-107.518-4.129-159.868,8.793ZM140.497,5645.599l-61.886,4.755c63.187,75.187,161.65,157.758,213.152,239.711-7.09-30.286,36.805-13.407,53.29-35.527-62.861-77.985-126.356-145.152-204.556-208.939ZM1419.742-487.011c-5.905.215-11.85-.071-17.763,0-8.851.106-17.826-.477-26.645,0-9.718.525-22.326-2.811-26.645,8.882-5.829-.478-11.886.111-17.763,0-203.206-3.853-422.398,23.762-626.254,35.435C3.807-402.565-784.585-403.922-1440.173-140.624c-74.431,29.893-152.626,66.319-222.043,106.581,66.642-30.516,147.661-53.109,213.161-88.817,3.905-2.129,7.081-4.69,8.882-8.882,121.084-35.872,239.728-81.176,362.234-112.938,271.359-70.354,549.1-93.906,827.917-117.987,505.222-43.634,1073.87-93.517,1580.947-88.817,220.957,2.048,475.586,19.341,697.124,35.618,209.155,15.367,417.038,47.884,626.262,62.038l-44.418-230.881c-392.426,34.549-791.237,83.179-1190.151,97.699ZM-81.269,5668.022c37.861,15.001,106.098,14.789,142.108,0-24.203-16.263-115.024-12.885-142.108,0ZM7570.456-2849.625c38.339,4.595-28.604-78.025,8.639-62.02,40.5,17.404,109.03,148.402,155.552,177.559l4.397-26.604,22.248,35.485c1.143-.007,12.712,13.245,17.627,8.954,32.648-28.506-14.524-66.465-44.359-76-10.389-3.32-24.754,4.958-25.793,4.164-1.518-1.159-6.386-24.514-14.426-34.422-105.184-129.608-247.392-196.039-401.421-255.884-249.473-96.927-543.285-151.905-810.596-126.425,20.709,18.417,134.303,6.339,173.103,8.972,251.002,17.036,568.51,94.803,792.171,211.468,65.888,34.368,86.083,73.212,122.859,134.753ZM7663.593,4611.098c18.455,17.588,127.069,64.401,142.076,53.255.435-5.872-.215-11.829.032-17.729-49.32-.202-95.262-21.801-142.107-35.527ZM5407.635-2130.13c-128.471,131.518-251.594,267.348-382.212,394.98l-141.81,164.569c48.355-32.99,80.918-82.622,119.958-124.291,99.112-105.785,206.059-210.055,306.045-315.294,12.338-12.987,88.077-91.972,98.019-93.319-.46-8.839.308-17.79,0-26.645ZM7254.121,3872.373c67.84,119.94,126.315,249.528,205.192,356.811l-301.979-541.785c15.537,82.078,57.612,115.713,96.786,184.975ZM7894.447,4252.253c1.694-16.822,19.074-33.694,17.834-49.714-1.691-21.842-101.082-176.653-120.093-212.972-107.872-206.072-203.486-417.839-315.112-621.91-77.995-6.716-75.536,32.749-71.054,97.699,122.575,223.792,218.69,466.943,347.768,686.952,60.955,103.896,184.235,181.51,229.811,308.547,10.975,30.589,17.497,64.011,17.497,101.394v253.129c-24.961,2.265-47.418-.696-66.708-17.568l-4.346,8.687c13.505,6.696,83.212,39.528,88.704,35.59,2.133-1.529,9.906-40.352,9.802-48.869-1.907-156.79-11.917-338.512-94.607-474.673-15.35-25.277-43.561-25.918-39.496-66.29ZM7830.385,4721.44c.318-.746.673-1.493,1.073-2.239-8.692,13.854-32.12,21.682-34.639,42.797,25.594-2.017,47.681,7.533,69.699,17.656,11.914,5.478,23.823,11.083,36.241,15.16,3.142,1.03,6.304,1.997,9.521,2.799-23.909-12.939-95.494-44.25-81.896-76.173ZM7814.582-2405.463c-.651,1.517-11.025,1.324-8.893,8.727,162.917,68.431,336.509,111.355,497.387,186.671,12.833-6.851,35.659-3.626,35.475-17.665l-523.969-177.733ZM7423.786,3296.603c-174.139-69.53-351.633-148.077-515.14-239.807-26.658,45.413,3.017,96.688,8.882,142.108,29.307,11.897,46.135,23.854,71.054,35.527,103.545,48.5,263.102,115.25,355.269,168.753l79.936-106.581ZM7831.458,4719.201c.314-.5.613-1.006.887-1.523-.326.508-.615,1.015-.887,1.523ZM5892.019-3169.016c-68.933,26.746-140.249,48.015-208.922,75.35-25.972,10.338-50.294,30.699-71.182,39.837-27.709,12.121-157.358,35.917-150.989,79.936,24.032-12.427,48.101-24.725,72.455-36.65,6.226-3.049,7.33-12.556,14.595-15.763,9.79-4.323,62.026-20.269,72.822-9.758-3.688,7.959-35.194,85.905-4.561,70.979,14.516-7.073,23.761-46.423,36.287-61.458,42.93-51.525,149.6-84.491,208.081-107.22,2.4-.933,65.493-36.012,31.416-35.251ZM5913.602-3147.046c-6.54,7.721-5.958,18.41-8.59,22.164l8.767,35.457c28.398-74.948,103.9-108.411,164.878-150.9,7.078-4.933,10.306-16.065,12.872-17.784-59.813,22.918-136.5,62.155-177.926,111.062ZM7042.021-2800.551c20.297-8.791,102.384-27.548,106.448-31.325,34.628-32.187-93.855-9.144-98.066-12.45-19.581-15.372-13.438-107.794-17.448-111.838-28.049-28.291-122.413,104.387-146.729,124.161-19.771,16.078-165.17,79.955-137.414,106.753,7.714,7.448,138.406-7.414,160.238-12.874,48.14-12.041,88.015-42.957,132.971-62.427ZM5478.748-1526.214c-7.991,7.512-25.157,191.07-26.615,217.732-8.83,161.44,1.307,335.229.548,498.333-.077,16.464-9.35,27.584-9.519,30.041-.909,13.19,6.42,13.339,8.882,17.763,22.35,4.815,23.403-16.581,25.75-31.721,28.076-181.188,48.635-484.519,36.778-665.814-1.201-18.35-8.394-92.123-35.824-66.334ZM6328.557-3372.611c-14.965,2.726-34.664,31.024-41.631,34.567,20.63,30.708-5.07,63.102-7.945,94.201-3.403,36.809,4.948,69.644,7.314,97.259.201,4.271.297,8.521.631,12.819,2.574-61.747,15.989-120.738,35.527-177.635,5.328-15.515-9.512-45.615,26.645-44.408-5.244-4.385-5.091-19.618-20.541-16.803ZM6153.7-3293.635c-.301.009-.669.243-1.069.591-10.645,9.255-54.058,133.149-16.831,97.076,6.887-6.674,24.062-66.857,48.858-88.913,25.726-22.884,68.801-27.439,93.386-53.163-48.806-5.029-81.146,20.152-124.344,44.409Z" fill="#3fddfb"/>
  <metadata>
    <sfw xmlns="http://ns.adobe.com/SaveForWeb/1.0/">
      <slices/>
      <sliceSourceBounds x="-6760.06" y="-6115.44" width="15455.75" height="9524.68" bottomLeftOrigin="true"/>
    </sfw>
  </metadata>
</svg>