<?xml version="1.0" encoding="UTF-8"?>
<svg id="Layer_1" xmlns="http://www.w3.org/2000/svg" baseProfile="tiny" version="1.2" viewBox="0 0 512 512">
  <!-- Generator: Adobe Illustrator 29.0.0, SVG Export Plug-In . SVG Version: 2.1.0 Build 186)  -->
  <path d="M276.311,197.572c.19.061.487.111.858.143.371.033.816.049,1.301.041.485-.007,1.01-.038,1.541-.098.266-.03.533-.067.798-.113.529-.091,1.048-.214,1.523-.376.949-.324,1.722-.803,2.047-1.487.163-.342.214-.735.12-1.185-.954-4.565-12.001-.444-8.388,2.976.037.035.105.068.2.098Z" fill="none"/>
  <path d="M185.628,471.21c-4.516,5.941-10.114,14.72-15.799,23.267-3.824-1.382-7.605-2.853-11.341-4.411l25.194-26.781c-13.878-8.86-19.627-25.673-23.998-40.78-5.769-19.938-7.555-39.539-9.492-60.11l-22.304-31.703c-2.885-.519-1.447,1.322-1.745,3.013-5.261,29.882-11.972,59.398-16.841,89.381-1.924,11.85-3.863,23.723-5.528,35.638-1.368-1.029-2.726-2.071-4.072-3.127v-15.111c0-4.472,1.017-11.923,1.2-17.4.999-29.919,2.94-63.254,1.258-93.055-.171-3.038-.596-5.908-1.385-8.816-24.091,4.311-51.451-18.603-52.674-42.132-.062-1.194.042-2.404,0-3.6,13.729-14.055,27.345-28.249,41.337-42.06,1.029-.967,2.903-1.71,4.125-.996.662.387,6.33,11.131,7.781,13.213,6.187,8.876,22.463,23.357,25.8,29.402,3.191,5.783,5.343,15.821,8.703,22.497,10.23,20.328,34.229,45.684,50.225,62.577,1.481,1.564,8.011,8.514,9.048,8.958,1.475.632,2.255-.277,1.774-1.774-2.455-2.382-16.053-19.208-14.383-21.012.665-.719,15.611,5.469,18.689,5.887,4.03.548,7.952-1.126,8.904-1.092,5.819.206,14.163,2.523,20.4,3.6,1.461.252,3.359-.264,4.8,0,6.869,1.259,13.997,4.425,20.883,5.843.239.049.479.113.718.158,31.383,5.898,65.162,14.629,96.002,19.2,16.131,2.391,34.765,4.56,48.571-6.03,6.862-5.264,15.187-14.851,15.03-23.971,7.452.286,8.479-1.921,6.91,7.514-1.93,11.599-16.398,26.28-27.333,30.264-18.291,6.665-34.809-2.156-52.778-5.377-14.38-2.676-28.922,2.379-43.201-1.2,1.632-.126,8.928-.901,10.02-1.177,1.246-.316.672-2.356.781-2.423.962-.598,5.027,1.312,4.794-1.188-14.777-2.649-29.204-7.407-44.156-9.276-1.925-.241-5.009-1.341-6.239.863-2.649-.382-6.737-.081-9.6,0-5.366.152-17.422-.357-12,8.4,1.511,2.44,5.6,3.5,8.4,3.6.795.028,1.604.016,2.4,0,3.762,2.987,11.537.842,14.391,4.785l-76.784,30.031c-.311,2.018,2.832,1.227,4.213,1.219,12.087-.071,25.592-6.304,37.162-9.652,1.487.477.425,2.538-.035,3.565-6.528,14.547-36.459,46.425-47.824,61.378ZM302.506,173.48c-.598-1.309.483-7.929-3.573-7.815,1.376,1.839,1.619,5.094,1.222,7.233.096,1.386.18,2.487.21,3.641.038,1.458-.013,3.003-.259,5.34-.375,1.766-1.495,4.338-1.2,6,.432,2.434,9.755,15.577,7.2,19.2,7.392,1.026,6.691-.985,5.873-7.677-1.35-11.045-5.433-17.084-9.473-25.923ZM170.165,237.281c-4.812,18.26-13.901,41.351-36.851,37.001,1.695,4.987,2.199,11.859,5.989,15.6,10.238,10.103,21.643-.263,26.621-9.98,7.711-15.051,6.478-30.237,6.979-46.421-3.475-.715-2.189,1.716-2.738,3.8ZM482.609,274.782c-1.89-2.35-22.208-8.079-26.204-8.588-3.481-.443-16.159-.04-18.293,2.104-2.065,2.075.78,2.023,1.703,2.491,2.987,1.518,6.915,2.65,9.963,4.423l33.927,3.863c.213-1.761.043-2.878-1.096-4.294ZM52.901,190.88c0,3.183,12.56,8.749,15.518,10.883,3.873,2.793,7.23,6.488,10.871,9.529.96.801,2.426,3.165,3.622,1.178l-30.012-48.59v27.001ZM448.909,310.282c-.224-.237-.952-1.995-2.4-3.6-13.886,20.754-35.687,33.43-60.001,38.401,11.694,2.825,23.747-1.07,36.001,0,13.307,1.162,4.311,11.576,6.006,13.193,3.304,3.153,11.43-6.99,13.165-9.028,3.355-3.943,19.537-26.357,19.307-29.888-.049-.754-10.321-7.218-12.078-9.078ZM365.928,346.283h-1.021c.508.03.776.006,1.021,0ZM376.907,346.283h-3.295c.664.03,1.103.242,3.295,0Z" fill="#0a4783"/>
  <path d="M373.307,238.281l70.794,24.014c.025,1.897-3.059,1.461-4.793,2.387-21.736-10.176-45.191-15.976-67.203-25.221-.288-1,1.114-.974,1.201-1.179ZM216.692,131.491c33.913,2.302,76.812,12.809,107.032,28.572,8.902,4.644,11.631,9.892,16.6,18.207,5.18.621-3.865-10.542,1.167-8.38,5.472,2.351,14.731,20.051,21.017,23.99l.594-3.594,3.006,4.794c.154,0,1.718,1.79,2.382,1.21,4.411-3.851-1.962-8.98-5.993-10.269-1.404-.449-3.345.67-3.485.563-.205-.157-.863-3.312-1.949-4.651-14.212-17.512-33.425-26.487-54.237-34.573-33.707-13.096-73.404-20.524-109.521-17.081,2.798,2.488,18.146.856,23.388,1.212ZM138.764,125.481c.956-.666,1.392-2.171,1.739-2.403-8.081,3.096-18.443,8.398-24.04,15.006-.884,1.043-.805,2.487-1.161,2.995l1.184,4.791c3.837-10.126,14.038-14.648,22.277-20.388ZM62.549,366.04c-.162-2.479-1.134-12.447-4.84-8.963-1.08,1.015-3.399,25.816-3.596,29.418-.397,7.251-.509,14.687-.488,22.192,2.571,3.402,5.225,6.736,7.96,10.001,1.352-18.811,1.89-38.486.964-52.65ZM175.303,109.878c-.709-.592-.688-2.651-2.775-2.27-2.022.368-4.684,4.192-5.625,4.67,2.787,4.149-.685,8.526-1.074,12.728-.46,4.973.669,9.41.988,13.141.027.577.04,1.151.085,1.732.348-8.343,2.16-16.313,4.8-24,.72-2.096-1.285-6.163,3.6-6ZM250.959,193.335c6.504-1.627,11.892-5.804,17.966-8.435,2.742-1.188,13.833-3.722,14.382-4.232,4.679-4.349-12.681-1.235-13.25-1.682-2.646-2.077-1.816-14.564-2.357-15.111-3.79-3.822-16.539,14.104-19.825,16.776-2.671,2.172-22.316,10.803-18.566,14.424,1.042,1.006,18.7-1.002,21.65-1.739ZM270.105,133.879c6.874-2.284,19.659-9.647,26.4-9.6,4.522.031,6.686,3.011,10.793,3.589-11.691-14.338-27.599,3.387-41.986,3.624-.076,1.933,3.382,2.017,4.793,2.387ZM48.101,279.082c-.062-1.194.042-2.404,0-3.6-13.006,13.314-25.606,26.956-38.531,40.214.123.512.249,1.023.375,1.533,8.355-8.514,16.803-17.002,24.912-25.538,1.667-1.755,11.9-12.427,13.244-12.608ZM67.062,154.398c1.323-.584,8.38-2.739,9.839-1.318-.498,1.075-4.755,11.607-.616,9.59,1.961-.956,3.21-6.272,4.903-8.304,5.8-6.962,20.213-11.416,28.114-14.487.324-.126,8.849-4.866,4.245-4.763-9.314,3.614-18.949,6.487-28.228,10.181-3.509,1.397-6.795,4.148-9.618,5.382-3.744,1.638-21.261,4.853-20.4,10.8,3.247-1.679,6.499-3.341,9.789-4.952.841-.412.99-1.696,1.972-2.13ZM146.484,131.474c.93-.902,3.251-9.033,6.601-12.013,3.476-3.092,9.296-3.707,12.618-7.183-6.594-.679-10.964,2.723-16.8,6-.041.001-.09.033-.144.08-1.438,1.251-7.304,17.99-2.274,13.116Z" fill="#3fddfb"/>
  <path d="M99.702,440.485v15.111c-13.956-10.944-26.735-23.319-38.116-36.906,1.352-18.811,1.89-38.486.964-52.65-.162-2.479-1.134-12.447-4.84-8.963-1.08,1.015-3.399,25.816-3.596,29.418-.397,7.251-.509,14.687-.488,22.192-20.275-26.83-35.337-57.819-43.68-91.46,8.355-8.514,16.803-17.002,24.912-25.538,1.667-1.755,11.9-12.427,13.244-12.608,1.223,23.529,28.583,46.444,52.674,42.132.789,2.908,1.213,5.778,1.385,8.816,1.683,29.801-.258,63.135-1.258,93.055-.183,5.478-1.2,12.928-1.2,17.4ZM300.094,142.278l-3.588-18c-6.742-.047-19.526,7.317-26.4,9.6,10.017,2.622,20.483,4.016,29.989,8.4ZM159.684,422.504c-5.769-19.938-7.555-39.539-9.492-60.11l-22.304-31.703c-2.885-.519-1.447,1.322-1.745,3.013-5.261,29.882-11.972,59.398-16.841,89.381-1.924,11.85-3.863,23.723-5.528,35.638,16.748,12.596,35.107,23.166,54.714,31.343l25.194-26.781c-13.878-8.86-19.627-25.673-23.998-40.78ZM310.906,377.484c-6.404-.499-12.948-1.706-19.244-2.956-8.083-1.605-19.07-5.594-26.357-6.644-2.649-.382-6.737-.081-9.6,0-5.366.152-17.422-.357-12,8.4,1.511,2.44,5.6,3.5,8.4,3.6.795.028,1.604.016,2.4,0,6.535-.128,9.361-.64,16.8,0,1.843.158,2.229-.011,2.4,0,8.84.581,17.369,1.895,26.401,1.2,1.632-.126,8.928-.901,10.02-1.177,1.246-.316.672-2.356.781-2.423ZM230.505,354.683c-6.237-1.077-14.581-3.394-20.4-3.6-33.473-7.352-60.223-28.02-70.801-61.201,10.238,10.103,21.643-.263,26.621-9.98,7.711-15.051,6.478-30.237,6.979-46.421.674-21.763.284-43.283-.945-65.155,5.509-8.069,10.478-16.737,16.069-24.724,1.153-1.647,3.914-1.614,4.173-4.343.4-4.2-14.955-22.34-20.497-23.381.72-2.096-1.285-6.163,3.6-6,3.897,3.257,8.023,7.006,11.415,10.786,2.347,2.616,4.516,7.775,6.585,9.615,2.798,2.488,18.146.856,23.388,1.212,33.913,2.302,76.812,12.809,107.032,28.572,8.902,4.644,11.631,9.892,16.6,18.207,5.18.621-3.865-10.542,1.167-8.38,5.472,2.351,14.731,20.051,21.017,23.99,1.739.839.886,2.608,1.2,3.6.201.635-.18,1.698,0,2.4l.093.371c.349,1.418.751,3.321,1.107,4.43,2.685,8.357,11.77,25.735,8.4,33.601-.088.205-1.49.179-1.201,1.179,22.012,9.246,45.466,15.045,67.203,25.221-6.384,3.408-11.632,5.367-10.712,13.679.904,8.161,12.283,22.083,17.912,28.322-13.886,20.754-35.687,33.43-60.001,38.401-2.533.518-6.808.892-9.6,1.2h-3.6c-2.366.107-4.831.073-7.2,0-.061-.002-.119-.001-.18,0h-1.021c-13.03-.781-20.763-1.812-29.707-4.715-6.504-2.111-24.978-10.792-30.864-9.646-5.621,1.094-5.533,6.817-.117,8.449,31.888,8.312,61.691,11.551,93.739,10.762,6.089-.15,11.754-1.51,18.551-1.249.157,9.119-8.167,18.707-15.03,23.971-13.806,10.59-32.44,8.421-48.571,6.03-30.84-4.571-64.619-13.303-96.002-19.2-.255-.097-.49-.14-.718-.158-6.885-1.417-14.014-4.584-20.883-5.843,8.089-16.208,22.701-28.426,32.426-43.775,8.142-3.286,16.308-1.059,25.391-3.445,2.148-.564,5.374.165,4.584-3.181h-30.601c-2.652,0-29.463,36.578-32.774,41.626-1.798,2.742-4.113,5.13-3.827,8.775ZM229.309,195.074c1.042,1.006,18.7-1.002,21.65-1.739,6.504-1.627,11.892-5.804,17.966-8.435,2.742-1.188,13.833-3.722,14.382-4.232,4.679-4.349-12.681-1.235-13.25-1.682-2.646-2.077-1.816-14.564-2.357-15.111-3.79-3.822-16.539,14.104-19.825,16.776-2.671,2.172-22.316,10.803-18.566,14.424ZM217.327,213.68c9.48,9.172,20.08,18.523,31.922,24.456,5.872,2.942,19.787,9.318,25.656,10.945h1.2c1.274.211,3.402.082,4.8,0h1.2c.424-.081.926.13,1.2,0,.328-.426.713-.977,1.2-1.2,5.328-2.44,8.553-5.399,13.158-7.842,3.011-1.598,16.988-6.915,17.538-7.7,1.354-1.935-.75-5.514-1.895-7.258.158-6.098-7.534-7.659-9.067-11.922-2.558-7.113,1.64-5.756,1.867-6.078,7.392,1.026,6.691-.985,5.873-7.677-1.35-11.045-5.433-17.084-9.473-25.923-.598-1.309.483-7.929-3.573-7.815,1.376,1.839,1.619,5.094,1.222,7.233.096,1.386.181,2.487.21,3.641.038,1.458-.013,3.003-.259,5.34-.375,1.766-1.495,4.338-1.2,6-7.455,1.642-13.664-.737-21.661.538-10.333,1.648-19.306,8.769-28.74,12.662-3.994,1.648-31.145,9.335-31.178,12.6ZM165.83,125.006c.389-4.202,3.861-8.579,1.074-12.728-.176.089-.845.037-1.2,0-3.322,3.475-9.142,4.091-12.618,7.183-3.35,2.98-5.671,11.111-6.601,12.013-5.03,4.874.836-11.866,2.274-13.116-2.934,1.64-5.312,2.748-8.256,4.72-.347.232-.783,1.736-1.739,2.403-8.239,5.741-18.44,10.262-22.277,20.388l-1.184-4.791c-4.07,5.803-6.493,8.608-7.063,16.363-.478,6.498,1.977,11.139,1.668,17.232-7.785-11.409-11.329-23.965-.606-34.795-7.902,3.071-22.314,7.525-28.114,14.487-1.692,2.031-2.941,7.348-4.903,8.304-4.139,2.017.118-8.515.616-9.59-1.459-1.42-8.516.734-9.839,1.318-.982.433-1.131,1.718-1.972,2.13-3.291,1.611-6.542,3.273-9.789,4.952,24.24,25.734,34.441,63.999,55.902,91.101,30.544,38.574,54.637,7.605,56.959-29.242,1.657-26.304-1.26-56.349-1.258-83.46-.045-.581-.058-1.155-.085-1.732-.32-3.731-1.448-8.168-.988-13.141ZM304.926,221.386l2.38.095-1.948-.088c-.144-.002-.289-.008-.432-.007Z" fill="#0b80c6"/>
  <path d="M249.249,238.137c-11.842-5.933-22.442-15.285-31.922-24.456.033-3.265,27.183-10.952,31.178-12.6,6.445,6.311,13.206,12.555,20.4,18,13.227,7.441,24.98-1.215,38.401,2.4l-1.948-.088c-.144-.002-.289-.008-.432-.007l2.38.095c3.152.849,4.06.646,6,3.6,1.145,1.744,3.249,5.323,1.895,7.258-.549.785-14.527,6.103-17.538,7.7-4.605,2.443-7.83,5.402-13.158,7.842-.487.223-.872.774-1.2,1.2-.274.13-.776-.081-1.2,0h-1.2c-1.398.082-3.526.211-4.8,0h-1.2c-5.869-1.626-19.784-8.003-25.656-10.945ZM293.122,307.463c2.148-.564,5.374.165,4.584-3.181h-30.601c-2.652,0-29.463,36.578-32.774,41.626-1.798,2.742-4.113,5.13-3.827,8.775,1.461.252,3.359-.264,4.8,0,8.089-16.208,22.701-28.426,32.426-43.775,8.142-3.286,16.308-1.059,25.391-3.445ZM295.754,203.744c-.638-2.3-2.268-5.31-5.09-3.69-1.066.612-4.727,8.806-9.229,9.469-7.979,1.175-8.634-12.804-16.12-9.065-7.796,3.894,6.102,14.515,11.927,15.7,7.266,1.478,20.953-3.621,18.512-12.413Z" fill="#edad3e"/>
  <path d="M256.905,360.683c-.238-.045-.479-.108-.718-.158.227.018.463.061.718.158ZM265.305,367.883c7.287,1.05,18.274,5.039,26.357,6.644,6.296,1.25,12.84,2.458,19.244,2.956.962-.598,5.027,1.312,4.794-1.188-14.777-2.649-29.204-7.407-44.156-9.276-1.925-.241-5.009-1.341-6.239.863ZM304.239,213.159c1.533,4.263,9.225,5.824,9.067,11.922-1.94-2.954-2.848-2.751-6-3.6-13.42-3.615-25.174,5.041-38.401-2.4-7.195-5.446-13.956-11.689-20.4-18,9.434-3.893,18.407-11.014,28.74-12.662,7.997-1.276,14.206,1.104,21.661-.538.432,2.434,9.755,15.577,7.2,19.2-.227.322-4.425-1.035-1.867,6.078ZM276.112,197.474c.037.035.105.068.2.098.19.061.487.111.858.143.371.033.816.049,1.301.041.485-.007,1.01-.038,1.541-.098.266-.03.533-.067.798-.113.529-.091,1.048-.214,1.523-.376.949-.324,1.722-.803,2.047-1.487.163-.342.214-.735.12-1.185-.954-4.565-12.001-.444-8.388,2.976ZM295.754,203.744c-.638-2.3-2.268-5.31-5.09-3.69-1.066.612-4.727,8.806-9.229,9.469-7.979,1.175-8.634-12.804-16.12-9.065-7.796,3.894,6.102,14.515,11.927,15.7,7.266,1.478,20.953-3.621,18.512-12.413ZM490.743,289.119c-16.49,18.318-41.075,69.407-62.792,78.921-2.816,1.234-4.707-.433-5.272-.064-.6.391-5.909,9.656-7.958,11.921-13.94,15.408-29.191,16.669-48.882,12.857-8.218-1.591-17.089-6.038-25.542-6.859-12.493-1.213-27.92.169-40.84.039-5.456-.055-10.382-1.751-16.733-1.227-12.275,1.012-24.486,10.734-35.477,16.12l-73.734,94.285c-.089.191-.164.387-.228.587-1.156-.399-2.307-.806-3.455-1.221,5.685-8.547,11.283-17.326,15.799-23.267,11.365-14.953,41.296-46.831,47.824-61.378.461-1.027,1.522-3.088.035-3.565-11.57,3.348-25.074,9.58-37.162,9.652-1.381.008-4.525.799-4.213-1.219l76.784-30.031c-2.854-3.943-10.63-1.798-14.391-4.785,6.534-.128,9.361-.64,16.8,0,1.843.159,2.229-.011,2.4,0,8.84.581,17.369,1.895,26.401,1.2,14.279,3.579,28.821-1.476,43.201,1.2,17.969,3.221,34.488,12.042,52.778,5.377,10.935-3.984,25.403-18.665,27.333-30.264,1.569-9.435.542-7.228-6.91-7.514-6.796-.26-12.462,1.099-18.551,1.249-32.048.789-61.851-2.449-93.739-10.762-5.416-1.631-5.503-7.354.117-8.449,5.886-1.146,24.36,7.535,30.864,9.646,8.944,2.903,16.677,3.934,29.707,4.715.508.03.776.006,1.021,0,.06-.001.119-.002.18,0,2.37.073,4.834.107,7.2,0h.305c.664.03,1.103.242,3.295,0,2.793-.308,7.067-.682,9.6-1.2,11.694,2.825,23.747-1.07,36.001,0,13.307,1.162,4.311,11.576,6.006,13.193,3.304,3.153,11.43-6.99,13.165-9.028,3.355-3.943,19.537-26.357,19.307-29.888-.049-.754-10.321-7.218-12.078-9.078-.224-.237-.952-1.995-2.4-3.6-5.629-6.238-17.008-20.161-17.912-28.322-.921-8.312,4.328-10.271,10.712-13.679,1.734-.926,4.818-.49,4.793-2.387l-70.794-24.014c3.37-7.866-5.715-25.243-8.4-33.601-.356-1.109-.759-3.012-1.107-4.43l-.093-.371c-.18-.702.201-1.765,0-2.4-.314-.992.538-2.761-1.2-3.6l.594-3.594,3.006,4.794c.154,0,1.718,1.79,2.382,1.21,4.411-3.851-1.962-8.98-5.993-10.268-1.404-.449-3.345.67-3.485.563-.205-.157-.863-3.312-1.949-4.651-14.212-17.512-33.425-26.487-54.237-34.573-33.707-13.096-73.404-20.524-109.521-17.081-2.068-1.84-4.238-6.999-6.585-9.615-3.393-3.78-7.519-7.528-11.415-10.786-.709-.592-.688-2.651-2.775-2.27-2.022.368-4.684,4.192-5.625,4.67-.176.089-.845.037-1.2,0-6.594-.679-10.964,2.723-16.8,6-.041.001-.09.033-.144.08-2.934,1.64-5.312,2.748-8.256,4.72-8.081,3.096-18.443,8.398-24.04,15.006-.884,1.043-.805,2.487-1.161,2.995-4.07,5.803-6.493,8.608-7.063,16.363-.478,6.498,1.977,11.139,1.668,17.232-7.785-11.409-11.329-23.965-.606-34.795.324-.126,8.849-4.866,4.245-4.763-9.314,3.614-18.949,6.487-28.228,10.181-3.509,1.397-6.795,4.148-9.618,5.382-3.744,1.638-21.261,4.853-20.4,10.8,24.24,25.734,34.441,63.999,55.902,91.101,30.544,38.574,54.637,7.604,56.959-29.242,1.657-26.304-1.26-56.349-1.258-83.46.348-8.343,2.16-16.313,4.8-24,5.543,1.041,20.897,19.181,20.497,23.381-.26,2.729-3.02,2.695-4.173,4.343-5.591,7.988-10.561,16.655-16.069,24.724,1.229,21.871,1.619,43.392.945,65.155-3.475-.715-2.189,1.716-2.738,3.8-4.812,18.26-13.901,41.351-36.851,37.001,1.695,4.987,2.199,11.859,5.989,15.6,10.578,33.182,37.328,53.849,70.801,61.201-.953-.034-4.874,1.64-8.904,1.092-3.078-.418-18.023-6.606-18.689-5.887-1.67,1.804,11.928,18.629,14.383,21.012.482,1.496-.299,2.406-1.774,1.774-1.037-.444-7.567-7.394-9.048-8.958-15.995-16.893-39.995-42.249-50.225-62.577-3.36-6.676-5.511-16.713-8.703-22.497-3.336-6.046-19.613-20.527-25.8-29.402-1.451-2.081-7.119-12.826-7.781-13.213-1.223-.714-3.097.029-4.125.996-13.993,13.812-27.609,28.005-41.337,42.06-13.006,13.314-25.606,26.956-38.531,40.214-.469-1.942-.916-3.893-1.339-5.852,26.707-28.228,53.312-56.55,81.85-82.962-5.661-5.062-11.597-11.447-17.412-16.168-4.497-3.651-21.129-13.847-22.458-17.143-3.05-7.566.98-20.607-2.164-29.044.289-11.547,21.836-17.77,31.293-21.608,21.075-8.555,40.063-14.068,60.762-24.44,3.663-1.835,6.446-5.03,9.932-6.868,2.208-1.165,21.175-8.883,22.378-8.944,7.938-.407,20.203,22.084,22.938,22.832,4.767,1.302,10.912-1.357,15.354-1.318,14.671.128,36.972,6.58,49.117,6.014,8.211-.383,25.468-11.17,33.968-12.868,8.84-1.766,18.963,9.567,24.281,15.99,5.497,6.639,9.406,16.856,13.919,22.082,2.949,3.415,13.054,7.797,17.885,12.115,3.392,3.032,5.709,7.081,8.44,9.561,3.61,3.278,13.058,8.125,14.839,11.56,4.054,7.819-1.693,15.032-.996,22.499.58,6.213,6.663,15.83,6.195,23.294l101.378,34.834c8.17,3.887,16.121,9.671,11.012,19.858ZM52.901,163.879v27.001c0,3.183,12.56,8.749,15.518,10.883,3.873,2.793,7.23,6.488,10.871,9.529.96.801,2.426,3.165,3.622,1.178l-30.012-48.59ZM307.298,127.868c-11.691-14.338-27.599,3.387-41.986,3.624-.076,1.933,3.382,2.017,4.793,2.387,10.017,2.622,20.483,4.016,29.989,8.4l-3.588-18c4.522.031,6.686,3.011,10.793,3.589ZM482.609,274.782c-1.89-2.35-22.208-8.079-26.204-8.588-3.481-.443-16.159-.04-18.293,2.104-2.065,2.075.78,2.023,1.703,2.491,2.987,1.518,6.915,2.65,9.963,4.423l33.927,3.863c.213-1.761.043-2.878-1.096-4.294Z" fill="#091328"/>
  <path d="M256,12.5c32.877,0,64.765,6.437,94.778,19.131,28.995,12.264,55.037,29.822,77.402,52.188,22.366,22.366,39.924,48.408,52.188,77.402,12.695,30.013,19.131,61.901,19.131,94.778s-6.437,64.765-19.131,94.778c-12.264,28.995-29.822,55.037-52.188,77.402-22.366,22.366-48.408,39.924-77.402,52.188-30.013,12.695-61.901,19.131-94.778,19.131s-64.765-6.437-94.778-19.131c-28.995-12.264-55.037-29.822-77.402-52.188-22.366-22.366-39.924-48.408-52.188-77.402-12.695-30.013-19.131-61.901-19.131-94.778s6.437-64.765,19.131-94.778c12.264-28.995,29.822-55.037,52.188-77.402,22.366-22.366,48.408-39.924,77.402-52.188,30.013-12.695,61.901-19.131,94.778-19.131M256,2.5C115.996,2.5,2.5,115.996,2.5,256s113.496,253.5,253.5,253.5,253.5-113.496,253.5-253.5S396.004,2.5,256,2.5h0Z" fill="#091328"/>
  <metadata>
    <sfw xmlns="http://ns.adobe.com/SaveForWeb/1.0/">
      <slices/>
      <sliceSourceBounds x="2.5" y="-509.5" width="507" height="507" bottomLeftOrigin="true"/>
    </sfw>
  </metadata>
</svg>